<svg id="bottom_btn" xmlns="http://www.w3.org/2000/svg" xmlns:xlink="http://www.w3.org/1999/xlink" viewBox="0 0 539.9 193.3"><defs><style>.cls-1{fill:none;stroke:#b3daae;stroke-width:2px;}.cls-2,.cls-9{fill:#fcce38;}.cls-3{fill:url(#linear-gradient);}.cls-4{fill:url(#linear-gradient-2);}.cls-5{fill:url(#linear-gradient-3);}.cls-6{fill:url(#linear-gradient-4);}.cls-7{fill:url(#linear-gradient-5);}.cls-8{fill:url(#linear-gradient-6);}.cls-9{isolation:isolate;opacity:0.5;}.cls-10{fill:url(#linear-gradient-7);}.cls-11{fill:url(#linear-gradient-8);}.cls-12{fill:url(#linear-gradient-9);}.cls-13{fill:url(#linear-gradient-10);}.cls-14{fill:url(#linear-gradient-11);}.cls-15{fill:url(#linear-gradient-12);}.cls-16{fill:url(#linear-gradient-13);}.cls-17{fill:url(#linear-gradient-14);}.cls-18{fill:url(#linear-gradient-15);}.cls-19{fill:url(#linear-gradient-16);}.cls-20{fill:url(#linear-gradient-17);}.cls-21{fill:url(#linear-gradient-18);}.cls-22{fill:url(#linear-gradient-19);}.cls-23{fill:url(#linear-gradient-20);}.cls-24{fill:url(#linear-gradient-21);}.cls-25{fill:url(#linear-gradient-22);}.cls-26{fill:url(#linear-gradient-23);}.cls-27{fill:url(#linear-gradient-24);}.cls-28{fill:#c3c56f;}.cls-29{fill:#d9daae;}</style><linearGradient id="linear-gradient" x1="-114.78" y1="-105.41" x2="-115.1" y2="-106.76" gradientTransform="translate(4316 3574.3) scale(33.33)" gradientUnits="userSpaceOnUse"><stop offset="0" stop-color="#fcce38"/><stop offset="0.22" stop-color="#fcd44f"/><stop offset="0.5" stop-color="#fbdb67"/><stop offset="0.77" stop-color="#fbdf75"/><stop offset="1" stop-color="#fbe07a"/></linearGradient><linearGradient id="linear-gradient-2" x1="-115" y1="-105.21" x2="-114.45" y2="-105.26" xlink:href="#linear-gradient"/><linearGradient id="linear-gradient-3" x1="-114.4" y1="-106.33" x2="-114.79" y2="-104.9" gradientTransform="translate(4316 3574.3) scale(33.33)" gradientUnits="userSpaceOnUse"><stop offset="0" stop-color="#fcce38"/><stop offset="0.36" stop-color="#fcce38"/><stop offset="1" stop-color="#c86f34"/></linearGradient><linearGradient id="linear-gradient-4" x1="-115.23" y1="-106.22" x2="-114.56" y2="-105.8" xlink:href="#linear-gradient"/><linearGradient id="linear-gradient-5" x1="-115.22" y1="-104.98" x2="-115.02" y2="-106.06" gradientTransform="translate(4316 3574.3) scale(33.33)" gradientUnits="userSpaceOnUse"><stop offset="0" stop-color="#fcce38"/><stop offset="0.01" stop-color="#fccd38"/><stop offset="0.37" stop-color="#fbb53a"/><stop offset="0.71" stop-color="#fba73b"/><stop offset="1" stop-color="#fba23b"/></linearGradient><linearGradient id="linear-gradient-6" x1="-114.59" y1="-105.37" x2="-114.89" y2="-106.02" xlink:href="#linear-gradient-5"/><linearGradient id="linear-gradient-7" x1="-115.65" y1="-106.15" x2="-115.51" y2="-105.55" xlink:href="#linear-gradient"/><linearGradient id="linear-gradient-8" x1="-115.56" y1="-106.24" x2="-115.81" y2="-106.22" xlink:href="#linear-gradient"/><linearGradient id="linear-gradient-9" x1="-115.83" y1="-105.74" x2="-115.66" y2="-106.37" xlink:href="#linear-gradient-3"/><linearGradient id="linear-gradient-10" x1="-115.46" y1="-105.8" x2="-115.75" y2="-105.98" xlink:href="#linear-gradient"/><linearGradient id="linear-gradient-11" x1="-115.46" y1="-106.34" x2="-115.55" y2="-105.86" xlink:href="#linear-gradient-5"/><linearGradient id="linear-gradient-12" x1="-115.74" y1="-106.17" x2="-115.6" y2="-105.88" xlink:href="#linear-gradient-5"/><linearGradient id="linear-gradient-13" x1="-114.2" y1="-105.98" x2="-114.28" y2="-106.32" xlink:href="#linear-gradient"/><linearGradient id="linear-gradient-14" x1="-114.27" y1="-105.93" x2="-114.09" y2="-105.95" xlink:href="#linear-gradient"/><linearGradient id="linear-gradient-15" x1="-114.36" y1="-105.87" x2="-114.26" y2="-106.23" xlink:href="#linear-gradient-3"/><linearGradient id="linear-gradient-16" x1="-114.35" y1="-106.2" x2="-114.14" y2="-106.06" xlink:href="#linear-gradient"/><linearGradient id="linear-gradient-17" x1="-114.34" y1="-105.87" x2="-114.29" y2="-106.14" xlink:href="#linear-gradient-5"/><linearGradient id="linear-gradient-18" x1="-114.13" y1="-105.97" x2="-114.2" y2="-106.13" xlink:href="#linear-gradient-5"/><linearGradient id="linear-gradient-19" x1="-115.33" y1="-105.2" x2="-115.23" y2="-104.79" xlink:href="#linear-gradient"/><linearGradient id="linear-gradient-20" x1="-115.27" y1="-105.27" x2="-115.44" y2="-105.25" xlink:href="#linear-gradient"/><linearGradient id="linear-gradient-21" x1="-115.45" y1="-104.92" x2="-115.33" y2="-105.36" xlink:href="#linear-gradient-3"/><linearGradient id="linear-gradient-22" x1="-115.19" y1="-104.96" x2="-115.4" y2="-105.09" xlink:href="#linear-gradient"/><linearGradient id="linear-gradient-23" x1="-115.2" y1="-105.33" x2="-115.26" y2="-105" xlink:href="#linear-gradient-5"/><linearGradient id="linear-gradient-24" x1="-115.39" y1="-105.22" x2="-115.3" y2="-105.02" xlink:href="#linear-gradient-5"/></defs><path id="outside" class="cls-1" d="M9.4,1H530.5c4.6,0,8.4,5.9,8.4,13.2V179.1c0,7.3-3.8,13.2-8.4,13.2H9.4c-4.7,0-8.4-5.9-8.4-13.2V14.2C1,6.9,4.7,1,9.4,1Z"/><g id="main_sparkle" data-name="main sparkle"><path class="cls-2" d="M497.5,43.7a13,13,0,0,1-18.3,0,13,13,0,0,1,0,18.3,13,13,0,0,1,18.3,0,12.9,12.9,0,0,1,0-18.3Z"/><path class="cls-3" d="M499,54.2l12.2-1.3c.1,0,.1-.1,0-.1L499,51.5a9.2,9.2,0,0,1-8.3-8.4l-2.3-22.7h-.1l-2.2,22.7a9.4,9.4,0,0,1-8.4,8.4l-12.3,1.3c-.1,0-.1.1,0,.1l12.3,1.3a9.6,9.6,0,0,1,8.4,8.4l2.2,22.7h0c.1,0,.1,0,.1-.1h0l2.3-22.7A9.4,9.4,0,0,1,499,54.2Z"/><path class="cls-4" d="M487.8,53.5c-2.6-3.3-22.4-.7-22.4-.7s-.1.1,0,.1l12.3,1.3a9.6,9.6,0,0,1,8.4,8.4l2,21.3h.2S490.6,57,487.8,53.5Z"/><path class="cls-5" d="M499,51.5a9.2,9.2,0,0,1-8.3-8.4l-1.5-14.7s-.5,19.9,3.9,22.7,2.4.1,18.1,1.7Z"/><path class="cls-6" d="M486.8,45.3c1-11.6,1.4-17.3,2.1-20.4l-.5-4.5h-.1l-2.2,22.7a9.4,9.4,0,0,1-8.4,8.4l-8.1.9C479,53.4,486.3,52,486.8,45.3Z"/><path class="cls-7" d="M488.3,85.3l-2.2-22.7a9.6,9.6,0,0,0-8.4-8.4l-12.3-1.3s10.2.6,12.4.6,8.4,1.3,9,9.1S488.3,85.3,488.3,85.3Z"/><path class="cls-8" d="M488.4,85.3l2.2-22.7a9.4,9.4,0,0,1,8.4-8.4l12.2-1.3s-10.2.6-12.3.6-8.4,1.3-9,9.1S488.4,85.3,488.4,85.3Z"/></g><g id="top_left" data-name="top left"><path class="cls-9" d="M466.3,35.6a6,6,0,0,1-8.4,0h0a6,6,0,0,1,0,8.4h0a6,6,0,0,1,8.4,0h0A6,6,0,0,1,466.3,35.6Z"/><path class="cls-10" d="M457.4,39.2l-5.4.6h0l5.4.6a4.2,4.2,0,0,1,3.7,3.7l1,10h0l1-10a4.1,4.1,0,0,1,3.7-3.7l5.4-.6h0l-5.4-.6a4.2,4.2,0,0,1-3.7-3.7l-1-10.1h0l-1,10.1A4.2,4.2,0,0,1,457.4,39.2Z"/><path class="cls-11" d="M462.3,39.5c1.2,1.4,9.9.3,9.9.3h0l-5.4-.5a4.2,4.2,0,0,1-3.7-3.7l-.9-9.4h-.1S461.1,37.9,462.3,39.5Z"/><path class="cls-12" d="M457.4,40.4a4.2,4.2,0,0,1,3.7,3.7l.6,6.5s.2-8.8-1.7-10-1.1-.1-8-.8Z"/><path class="cls-13" d="M462.8,43.1c-.5,5.1-.6,7.6-.9,9l.2,2h0l1-10a4.1,4.1,0,0,1,3.7-3.7l3.6-.4C466.2,39.5,463,40.1,462.8,43.1Z"/><path class="cls-14" d="M462.1,25.4l1,10.1a4.2,4.2,0,0,0,3.7,3.7l5.4.5-5.5-.2a4,4,0,0,1-3.9-4C462.5,32,462.1,25.4,462.1,25.4Z"/><path class="cls-15" d="M462.1,25.4l-1,10.1a4.2,4.2,0,0,1-3.7,3.7l-5.4.5,5.4-.2a4,4,0,0,0,4-4C461.7,32,462.1,25.4,462.1,25.4Z"/></g><g id="right_sparkle" data-name="right sparkle"><path class="cls-9" d="M512.5,36.6a4.8,4.8,0,0,1-6.7,0,4.5,4.5,0,0,1,0,6.6h0a4.8,4.8,0,0,1,6.7,0A4.7,4.7,0,0,1,512.5,36.6Z"/><path class="cls-16" d="M512.9,40.2l4.1-.3h0l-4.1-.3c-1.6-.2-2.8-1.1-2.9-2.2l-.8-5.9h0l-.8,5.9c-.1,1.1-1.4,2-2.9,2.1l-4.2.4h0l4.2.3c1.6.2,2.8,1.1,2.9,2.2l.8,5.9h0l.8-5.9C510.1,41.3,511.3,40.4,512.9,40.2Z"/><path class="cls-17" d="M509,40.1c-.9-.9-7.7-.2-7.7-.2h0l4.2.3c1.6.2,2.8,1.1,2.9,2.2l.7,5.5h.1S510,41,509,40.1Z"/><path class="cls-18" d="M505.5,40.2a3.2,3.2,0,0,1,2.9,2.2l.5,3.8s.1-5.1-1.4-5.9-.8,0-6.2-.4Z"/><path class="cls-19" d="M508.7,38a30,30,0,0,1,.7-5.3l-.2-1.2h0l-.8,5.9c-.1,1.1-1.4,2-2.9,2.1l-2.8.3C506,40,508.5,39.7,508.7,38Z"/><path class="cls-20" d="M509.2,48.3l-.8-5.9c-.1-1.1-1.4-2-2.9-2.2l-4.2-.3,4.3.2c.7,0,2.9.3,3.1,2.3S509.2,48.3,509.2,48.3Z"/><path class="cls-21" d="M509.2,48.3l.8-5.9c.1-1.1,1.3-2,2.8-2.2l4.2-.3-4.2.2c-.7,0-2.9.3-3.1,2.3S509.2,48.3,509.2,48.3Z"/></g><g id="bottom_left" data-name="bottom left"><path class="cls-9" d="M475.6,67.3a4.2,4.2,0,0,1-5.9,0h0a4.1,4.1,0,0,1,0,5.8h0a4.1,4.1,0,0,1,5.8,0h.1a3.9,3.9,0,0,1,0-5.8Z"/><path class="cls-22" d="M469.4,69.8l-3.7.4h0l3.7.4a2.8,2.8,0,0,1,2.5,2.6l.7,6.9h.1l.6-6.9a2.9,2.9,0,0,1,2.6-2.6l3.7-.4h0l-3.7-.4a3,3,0,0,1-2.6-2.6l-.6-6.9h-.1l-.7,6.9A2.9,2.9,0,0,1,469.4,69.8Z"/><path class="cls-23" d="M472.8,70c.8,1,6.8.2,6.8.2s.1,0,0-.1l-3.7-.3a3.1,3.1,0,0,1-2.6-2.6l-.6-6.5h0S472,68.9,472.8,70Z"/><path class="cls-24" d="M469.4,70.6a2.8,2.8,0,0,1,2.5,2.6l.5,4.4s.1-6-1.2-6.9-.8,0-5.5-.5Z"/><path class="cls-25" d="M473.1,72.5c-.3,3.5-.4,5.2-.6,6.2v1.4h.1l.6-6.9a2.9,2.9,0,0,1,2.6-2.6l2.5-.3C475.5,70,473.3,70.4,473.1,72.5Z"/><path class="cls-26" d="M472.7,60.3l.6,6.9a3,3,0,0,0,2.6,2.6l3.7.4-3.8-.2a2.8,2.8,0,0,1-2.7-2.8C472.9,64.8,472.7,60.3,472.7,60.3Z"/><path class="cls-27" d="M472.6,60.3l-.6,6.9a3,3,0,0,1-2.6,2.6l-3.7.4,3.7-.2a2.8,2.8,0,0,0,2.8-2.8C472.4,64.8,472.6,60.3,472.6,60.3Z"/></g><path class="cls-28" d="M48.6,79.3c10.9,0,17-9.4,17-9.4l-1.4-1s-4.7,5.8-11.7,5.8c-9.3,0-17.6-9.6-17.6-21.6,0-7.2,4.7-11.7,10.3-11.7,8,0,15.3,8.6,15.3,8.7L64.3,45a26.3,26.3,0,0,0-15.4-5.3c-11.1,0-19.5,8.4-19.5,19.9S38.1,79.3,48.6,79.3Zm26.5-1.4A18.8,18.8,0,0,1,72.7,67h14l3.7,10.9h6.4L84.4,41H78L65.6,77.9ZM72.8,65.5a44,44,0,0,1,2.3-11.1c1.1-3.3,2.8-8.3,3.7-11.1l7.5,22.2ZM98.6,77.9h9.5a31.7,31.7,0,0,1-7.9-21v-13l17.2,34h6.3V41h-9.5a31.3,31.3,0,0,1,8,21V74.8L105,41H98.6ZM126.9,41V77.9h13c8.5,0,18.3-4.6,18.3-18.4S148.5,41,140,41Zm11.4,1.6c8.6,0,13.6,5.3,13.6,16.9s-5,17-13.6,17h-5V42.6Zm30,20.6V77.9h6.4V63.2L187.4,41h-9.2c3.5,6-1.8,16.2-4.3,20.8L161.9,41h-6.3ZM189.5,41V77.9h13c8.4,0,18.3-4.6,18.3-18.4S211.1,41,202.6,41Zm11.4,1.6c8.6,0,13.6,5.3,13.6,16.9s-5,17-13.6,17h-5.1V42.6Zm22.5,35.3h6.4V62h2l12.5,15.9h6.3l-12.5-16c7.3-.8,10.8-5.6,10.8-10.5S245.1,41,236.5,41H223.4Zm11.3-35.3c4.5,0,7.9,3.6,7.9,8.5s-3.3,9.4-7.8,9.4h-5V42.6Zm18,35.3h6.4V41h-6.4Zm9.5,0h6.4v-15h6c7.8,0,13.1-4.6,13.1-11S283,41,275.9,41H262.2ZM273,42.6c5.1,0,8.3,3.4,8.3,9.5s-3.2,9.3-8.3,9.3h-4.4V42.6Zm29.7,8.6c1.9-4.5,7.2-8.3,11.9-8.5V77.9h6.3V42.7c4.7.2,10.1,4,11.9,8.5V41H302.7Zm51.4,28.1c11.6,0,19.1-8.8,19.1-20a19.4,19.4,0,0,0-19.4-19.6c-11.3,0-19.2,8.3-19.2,19.9A19.4,19.4,0,0,0,354.1,79.3ZM340.1,53c0-6.5,3.7-11.6,11-11.6,9.9,0,16.2,13.2,16.2,23.9,0,6.8-3.5,12.1-10.3,12.1C347.1,77.4,340.1,63.7,340.1,53Zm35.7,9.3c0,10.1,6.2,17,15.6,17s13.1-6,13.1-17.2V41H395c4.2,4.3,7.9,12.6,7.9,21.6s-3.7,15.3-10.7,15.3-10.1-5-10.1-13.6V41h-6.3Zm31.8,15.6H414V62h2l12.5,15.9h6.3l-12.6-16c7.3-.8,10.9-5.6,10.9-10.5S429.3,41,420.7,41H407.6Zm11.3-35.3c4.5,0,7.8,3.6,7.8,8.5s-3.2,9.4-7.7,9.4h-5V42.6Z"/><path class="cls-29" d="M86.5,107a8.7,8.7,0,0,1,7.2-5.2v21.4h3.8V101.8a8.7,8.7,0,0,1,7.2,5.2v-6.2H86.5Zm20.6,16.2H111V112.4h10.4v10.8h3.8V100.8h-3.8v10.7H111V100.8h-3.9Zm21,0H144v-5.8c-1.5,3.6-5.2,4.7-12.1,4.8V111.8l7.3,1v-1.9h-7.3v-9.1c6.9.1,10.6,1.1,12.1,4.7v-5.7H128.1Zm23.5,0a12.8,12.8,0,0,1-1.4-6.7h8.5l2.3,6.6h3.8l-7.5-22.4h-3.9l-7.5,22.4Zm-1.4-7.5a30.5,30.5,0,0,1,1.4-6.8c.8-2,1.7-5,2.3-6.7l4.5,13.5Zm13.9-8.7a9,9,0,0,1,7.2-5.2v21.4h3.9V101.8a8.9,8.9,0,0,1,7.2,5.2v-6.2H164.1Zm20.7,16.2h3.8v-9.7h1.2l7.6,9.7h3.8l-7.6-9.7c4.4-.5,6.6-3.4,6.6-6.4s-2.3-6.3-7.5-6.3h-7.9Zm6.8-21.5a4.9,4.9,0,0,1,4.8,5.2c0,2.9-2,5.7-4.8,5.7h-3V101.7Zm11.9,21.5h15.9v-5.8c-1.5,3.6-5.2,4.7-12.1,4.8V111.8l7.3,1v-1.9h-7.3v-9.1c6.9.1,10.6,1.1,12.1,4.7v-5.7H203.5Zm38.7.8c7,0,11.6-5.3,11.6-12.1A11.8,11.8,0,0,0,242,100c-6.8,0-11.6,5.1-11.6,12.1A11.8,11.8,0,0,0,242.2,124Zm-8.5-15.9c0-4,2.3-7,6.7-7,6,0,9.8,7.9,9.8,14.4,0,4.1-2.1,7.3-6.2,7.3C237.9,122.8,233.7,114.5,233.7,108.1Zm22.6,15.1h3.9V112.6l7.3,1v-1.9h-7.3v-9.9c6.8.1,10.5.9,12.1,4.6v-5.6h-16Zm27.3,0h14.7v-5.8c-1.5,3.3-4.2,4.6-10.9,4.8V100.8h-3.8Zm17.2,0h3.9V100.8h-3.9Zm13.5,0h3.8l7.5-22.4h-5.7c2.3,7.3-.4,14.2-2.3,20.8l-7-20.8h-3.9Zm13.4,0h3.8V100.8h-3.8Zm6.7,0h5.8a19.4,19.4,0,0,1-4.8-12.8v-7.9l10.4,20.7h3.8V100.8h-5.7a19.1,19.1,0,0,1,4.8,12.7v7.8l-10.4-20.5h-3.9Zm17.8-11.1A11.8,11.8,0,0,0,364.3,124a13.4,13.4,0,0,0,9.9-4.4v-7.4H361.4v2.5l9.5-1.2v6.8a7.6,7.6,0,0,1-5.3,2.5c-4.7,0-10.1-6.5-10.1-14.7,0-4.3,2.8-7,6.2-7,5,0,9.4,5.3,9.5,5.3l2.3-3a15.2,15.2,0,0,0-9.4-3.4C357.2,100,352.2,105.1,352.2,112.1Zm38.5,11.1a13.8,13.8,0,0,1-1.5-6.7h8.6l2.2,6.6h3.9l-7.6-22.4h-3.8l-7.6,22.4Zm-1.4-7.5a25.8,25.8,0,0,1,1.4-6.8l2.3-6.7,4.5,13.5Zm16.6,7.5h3.9v-9.7H411l7.6,9.7h3.8l-7.6-9.7c4.4-.5,6.5-3.4,6.5-6.4s-2.3-6.3-7.4-6.3h-8Zm6.8-21.5c2.8,0,4.8,2.2,4.8,5.2s-2,5.7-4.7,5.7h-3V101.7Zm10.7,5.3a8.9,8.9,0,0,1,7.2-5.2v21.4h3.8V101.8a8.7,8.7,0,0,1,7.2,5.2v-6.2H423.4Zm20,12.5s4.8,4.5,11.1,4.5,8.9-2.7,8.9-6.2c0-7-15.1-8.2-15.1-13.7a3.5,3.5,0,0,1,3.7-3.3c2.7,0,5.6,2.3,7.5,6.8l3.2-3.1c-1.8-2.4-6.2-4.5-10.2-4.5s-8.1,2.3-8.1,5.7c0,7.2,15.2,7.9,15.2,13.9,0,2-1.9,3.6-4.2,3.6-4.7,0-9.8-6.9-9.8-6.9Zm-336,43.7h3.8v-9.1h3.7c4.8,0,7.9-2.8,7.9-6.7s-2.8-6.6-7.1-6.6h-8.3Zm6.6-21.5c3,0,5,2.1,5,5.8s-2,5.6-5,5.6h-2.8V141.7Zm11.4,21.5h3.8V152.4h10.4v10.8h3.9V140.8h-3.9v10.7H129.2V140.8h-3.8Zm21,0h3.8V140.8h-3.8Zm6.7,0h14.6v-5.8c-1.4,3.3-4.1,4.6-10.8,4.8V140.8h-3.8Zm22.6,0a12.8,12.8,0,0,1-1.4-6.7h8.5l2.2,6.6h3.9l-7.5-22.4h-3.9L170,163.2Zm-1.4-7.5a30.5,30.5,0,0,1,1.4-6.8l2.3-6.7,4.5,13.5Zm16.6-14.9v22.4h7.9c5.1,0,11.1-2.8,11.1-11.2s-5.9-11.2-11-11.2Zm7,.9c5.1,0,8.2,3.3,8.2,10.3s-3.1,10.3-8.2,10.3h-3.1V141.7Zm14.6,21.5h15.9v-5.8c-1.5,3.6-5.2,4.7-12.1,4.8V151.8l7.3,1v-1.9h-7.3v-9.1c6.9.1,10.6,1.1,12.1,4.7v-5.7H212.5Zm18.3,0h14.7v-5.8c-1.5,3.3-4.2,4.6-10.9,4.8V140.8h-3.8Zm17.2,0h3.9v-9.1h3.6c4.8,0,7.9-2.8,7.9-6.7s-2.8-6.6-7.1-6.6H248Zm6.6-21.5c3,0,5,2.1,5,5.8s-2,5.6-5,5.6h-2.7V141.7ZM266,163.2h3.8V152.4h10.4v10.8h3.9V140.8h-3.9v10.7H269.8V140.8H266Zm21,0h3.8V140.8H287Zm11.6,0a12.8,12.8,0,0,1-1.4-6.7h8.5l2.2,6.6h3.9l-7.5-22.4h-3.9l-7.5,22.4Zm-1.4-7.5a30.5,30.5,0,0,1,1.4-6.8l2.3-6.7,4.5,13.5Zm16.6,10.1c2.4,0,4.1-1.9,4.1-4.6h-2.8c.1,2.6-.6,3.4-1.3,3.4Zm15.9-2.6h3.9v-9.1h3.6c4.8,0,7.9-2.8,7.9-6.7s-2.8-6.6-7.1-6.6h-8.3Zm6.6-21.5c3,0,5,2.1,5,5.8s-2,5.6-5,5.6h-2.7V141.7Zm13.1,21.5a11.9,11.9,0,0,1-1.5-6.7h8.6l2.2,6.6h3.8L355,140.8h-3.8l-7.6,22.4Zm-1.4-7.5a25.8,25.8,0,0,1,1.4-6.8l2.3-6.7,4.5,13.5Zm24.9-12.9v1l1.8-.9v20.3h3.9V139.9ZM390,157.6a10.4,10.4,0,0,0,5.9-2c-.5,4.1-2.2,7.6-6.1,7.6s-6.6-3.6-6.6-3.6l-1.5,1.7a14.5,14.5,0,0,0,8,2.7c7.4,0,10.3-7.6,9.6-14.8-.5-5.3-4.3-9.2-9.4-9.2s-8.8,3.4-8.8,8.5A8.9,8.9,0,0,0,390,157.6Zm-1.8-16.4c4.2,0,7.7,6,7.7,10.6,0,2.8-1.6,4.6-3.9,4.6-4.7,0-7.8-6.6-7.8-10.8C384.2,143,385.9,141.2,388.2,141.2Zm13.1,1.6v1l1.8-.9v20.3H407V139.9ZM425,154.9V140.8h-2.3l-13.2,14.1,1.3,2.7h10.4v5.6H425v-5.6h2.4v-2.7Zm-14.2,0,10.4-11.1v11.1Zm18.8-14.1v5.7c1.2-2.8,6.9-3.1,12.2-3.1l-11.3,19.8h4l9.7-22.4Z"/></svg>