<svg id="bottom_btn" xmlns="http://www.w3.org/2000/svg" xmlns:xlink="http://www.w3.org/1999/xlink"
    viewBox="0 0 773 176">
    <defs>
        <style>
            .cls-1 {
                fill: #c3c56f;
            }

            .cls-2 {
                fill: #d9daae;
            }

            .cls-3 {
                fill: none;
                stroke: #b3daae;
                stroke-width: 2px;
            }

            .cls-11,
            .cls-4 {
                fill: #fcce38;
            }

            .cls-5 {
                fill: url(#linear-gradient);
            }

            .cls-6 {
                fill: url(#linear-gradient-2);
            }

            .cls-7 {
                fill: url(#linear-gradient-3);
            }

            .cls-8 {
                fill: url(#linear-gradient-4);
            }

            .cls-9 {
                fill: url(#linear-gradient-5);
            }

            .cls-10 {
                fill: url(#linear-gradient-6);
            }

            .cls-11 {
                isolation: isolate;
                opacity: 0.5;
            }

            .cls-12 {
                fill: url(#linear-gradient-7);
            }

            .cls-13 {
                fill: url(#linear-gradient-8);
            }

            .cls-14 {
                fill: url(#linear-gradient-9);
            }

            .cls-15 {
                fill: url(#linear-gradient-10);
            }

            .cls-16 {
                fill: url(#linear-gradient-11);
            }

            .cls-17 {
                fill: url(#linear-gradient-12);
            }

            .cls-18 {
                fill: url(#linear-gradient-13);
            }

            .cls-19 {
                fill: url(#linear-gradient-14);
            }

            .cls-20 {
                fill: url(#linear-gradient-15);
            }

            .cls-21 {
                fill: url(#linear-gradient-16);
            }

            .cls-22 {
                fill: url(#linear-gradient-17);
            }

            .cls-23 {
                fill: url(#linear-gradient-18);
            }

            .cls-24 {
                fill: url(#linear-gradient-19);
            }

            .cls-25 {
                fill: url(#linear-gradient-20);
            }

            .cls-26 {
                fill: url(#linear-gradient-21);
            }

            .cls-27 {
                fill: url(#linear-gradient-22);
            }

            .cls-28 {
                fill: url(#linear-gradient-23);
            }

            .cls-29 {
                fill: url(#linear-gradient-24);
            }
        </style>
        <linearGradient id="linear-gradient" x1="-113.64" y1="-105.15" x2="-114.03" y2="-106.82"
            gradientTransform="translate(4316 3574.3) scale(33.33)" gradientUnits="userSpaceOnUse">
            <stop offset="0" stop-color="#fcce38" />
            <stop offset="0.22" stop-color="#fcd44f" />
            <stop offset="0.5" stop-color="#fbdb67" />
            <stop offset="0.77" stop-color="#fbdf75" />
            <stop offset="1" stop-color="#fbe07a" />
        </linearGradient>
        <linearGradient id="linear-gradient-2" x1="-113.9" y1="-104.9" x2="-113.23" y2="-104.97"
            xlink:href="#linear-gradient" />
        <linearGradient id="linear-gradient-3" x1="-113.17" y1="-106.29" x2="-113.64" y2="-104.52"
            gradientTransform="translate(4316 3574.3) scale(33.33)" gradientUnits="userSpaceOnUse">
            <stop offset="0" stop-color="#fcce38" />
            <stop offset="0.36" stop-color="#fcce38" />
            <stop offset="1" stop-color="#c86f34" />
        </linearGradient>
        <linearGradient id="linear-gradient-4" x1="-114.19" y1="-106.15" x2="-113.37" y2="-105.63"
            xlink:href="#linear-gradient" />
        <linearGradient id="linear-gradient-5" x1="-114.18" y1="-104.62" x2="-113.93" y2="-105.96"
            gradientTransform="translate(4316 3574.3) scale(33.33)" gradientUnits="userSpaceOnUse">
            <stop offset="0" stop-color="#fcce38" />
            <stop offset="0.01" stop-color="#fccd38" />
            <stop offset="0.37" stop-color="#fbb53a" />
            <stop offset="0.71" stop-color="#fba73b" />
            <stop offset="1" stop-color="#fba23b" />
        </linearGradient>
        <linearGradient id="linear-gradient-6" x1="-113.4" y1="-105.11" x2="-113.77" y2="-105.9"
            xlink:href="#linear-gradient-5" />
        <linearGradient id="linear-gradient-7" x1="-114.71" y1="-106.06" x2="-114.54" y2="-105.33"
            xlink:href="#linear-gradient" />
        <linearGradient id="linear-gradient-8" x1="-114.6" y1="-106.18" x2="-114.9" y2="-106.15"
            xlink:href="#linear-gradient" />
        <linearGradient id="linear-gradient-9" x1="-114.92" y1="-105.56" x2="-114.71" y2="-106.34"
            xlink:href="#linear-gradient-3" />
        <linearGradient id="linear-gradient-10" x1="-114.47" y1="-105.63" x2="-114.83" y2="-105.86"
            xlink:href="#linear-gradient" />
        <linearGradient id="linear-gradient-11" x1="-114.48" y1="-106.3" x2="-114.59" y2="-105.71"
            xlink:href="#linear-gradient-5" />
        <linearGradient id="linear-gradient-12" x1="-114.81" y1="-106.09" x2="-114.65" y2="-105.74"
            xlink:href="#linear-gradient-5" />
        <linearGradient id="linear-gradient-13" x1="-112.92" y1="-105.85" x2="-113.02" y2="-106.28"
            xlink:href="#linear-gradient" />
        <linearGradient id="linear-gradient-14" x1="-113.01" y1="-105.8" x2="-112.78" y2="-105.82"
            xlink:href="#linear-gradient" />
        <linearGradient id="linear-gradient-15" x1="-113.12" y1="-105.72" x2="-113" y2="-106.16"
            xlink:href="#linear-gradient-3" />
        <linearGradient id="linear-gradient-16" x1="-113.11" y1="-106.12" x2="-112.84" y2="-105.96"
            xlink:href="#linear-gradient" />
        <linearGradient id="linear-gradient-17" x1="-113.1" y1="-105.72" x2="-113.03" y2="-106.06"
            xlink:href="#linear-gradient-5" />
        <linearGradient id="linear-gradient-18" x1="-112.83" y1="-105.85" x2="-112.92" y2="-106.05"
            xlink:href="#linear-gradient-5" />
        <linearGradient id="linear-gradient-19" x1="-114.31" y1="-104.9" x2="-114.19" y2="-104.39"
            xlink:href="#linear-gradient" />
        <linearGradient id="linear-gradient-20" x1="-114.24" y1="-104.98" x2="-114.44" y2="-104.96"
            xlink:href="#linear-gradient" />
        <linearGradient id="linear-gradient-21" x1="-114.46" y1="-104.55" x2="-114.31" y2="-105.09"
            xlink:href="#linear-gradient-3" />
        <linearGradient id="linear-gradient-22" x1="-114.14" y1="-104.6" x2="-114.39" y2="-104.76"
            xlink:href="#linear-gradient" />
        <linearGradient id="linear-gradient-23" x1="-114.15" y1="-105.06" x2="-114.23" y2="-104.65"
            xlink:href="#linear-gradient-5" />
        <linearGradient id="linear-gradient-24" x1="-114.38" y1="-104.92" x2="-114.27" y2="-104.67"
            xlink:href="#linear-gradient-5" />
    </defs>
    <path id="candydrip" class="cls-1"
        d="M72.1,88.4c11.3,0,17.6-9.8,17.6-9.8l-1.4-1s-4.9,6-12.2,6c-9.6,0-18.3-10-18.3-22.5,0-7.4,4.9-12.1,10.7-12.1,8.3,0,15.9,8.9,15.9,9l4-5.3a26.9,26.9,0,0,0-16-5.6c-11.6,0-20.3,8.8-20.3,20.8S61.1,88.4,72.1,88.4ZM99.6,87c-1.8-3-2.6-6.9-2.5-11.4h14.7L115.6,87h6.6L109.3,48.5h-6.6L89.7,87ZM97.2,74.1a48,48,0,0,1,2.4-11.6l3.9-11.6,7.8,23.2ZM124.1,87H134a33.1,33.1,0,0,1-8.2-21.9V51.5L143.7,87h6.6V48.5h-9.9a33,33,0,0,1,8.3,21.9V83.7L130.8,48.5h-6.7Zm29.5-38.5V87h13.6c8.8,0,19-4.8,19-19.2s-10.1-19.3-18.9-19.3Zm11.9,1.7c8.9,0,14.1,5.5,14.1,17.6s-5.2,17.7-14.1,17.7h-5.3V50.2Zm31.3,21.5V87h6.6V71.7l13.2-23.2H207c3.7,6.3-1.8,16.9-4.5,21.7L190.1,48.5h-6.6Zm22-23.2V87h13.6c8.8,0,19-4.8,19-19.2s-10.1-19.3-18.9-19.3Zm11.9,1.7c8.9,0,14.1,5.5,14.1,17.6s-5.2,17.7-14.1,17.7h-5.3V50.2ZM254.2,87h6.6V70.4h2.1l13,16.6h6.6L269.4,70.3c7.6-.8,11.3-5.8,11.3-10.9s-4-10.9-12.9-10.9H254.2Zm11.7-36.8c4.7,0,8.2,3.7,8.2,8.8s-3.4,9.8-8.1,9.8h-5.2V50.2ZM284.7,87h6.6V48.5h-6.6Zm9.9,0h6.6V71.4h6.3c8.1,0,13.6-4.8,13.6-11.6s-4.9-11.3-12.3-11.3H294.6Zm11.2-36.8c5.3,0,8.7,3.5,8.7,9.9s-3.4,9.6-8.7,9.6h-4.6V50.2Zm31,9c1.9-4.8,7.4-8.7,12.3-8.9V87h6.6V50.3c4.9.2,10.5,4.1,12.4,8.9V48.5H336.8Zm53.5,29.2c12.1,0,19.9-9.1,19.9-20.8a20.3,20.3,0,0,0-20.3-20.5c-11.7,0-19.9,8.8-19.9,20.8A20.2,20.2,0,0,0,390.3,88.4ZM375.7,61c0-6.7,3.9-12,11.5-12,10.3,0,16.9,13.7,16.9,24.9,0,7-3.7,12.5-10.8,12.5C382.9,86.4,375.7,72.2,375.7,61Zm37.2,9.7c0,10.6,6.5,17.7,16.2,17.7s13.7-6.2,13.7-17.9v-22h-9.9c4.4,4.5,8.2,13.1,8.2,22.6S437.3,87,429.9,87s-10.4-5.2-10.4-14.2V48.5h-6.6ZM446,87h6.6V70.4h2.1L467.8,87h6.6L461.3,70.3c7.6-.8,11.2-5.8,11.2-10.9s-3.9-10.9-12.8-10.9H446Zm11.7-36.8c4.7,0,8.2,3.7,8.2,8.8s-3.4,9.8-8,9.8h-5.3V50.2Z" />
    <path id="tla" class="cls-2"
        d="M59.4,123.8a7.8,7.8,0,0,1,6.3-4.5V138h3.4V119.3a7.8,7.8,0,0,1,6.3,4.5v-5.4h-16ZM77.5,138h3.3v-9.4h9.1V138h3.4V118.4H89.9v9.4H80.8v-9.4H77.5Zm18.3,0h14v-5c-1.4,3.1-4.6,4-10.6,4.1v-9l6.4.8v-1.7H99.2v-7.9c6,.1,9.2,1,10.6,4.1v-5h-14Zm20.6,0a10.4,10.4,0,0,1-1.2-5.8h7.4l2,5.8h3.3l-6.5-19.6H118L111.4,138Zm-1.2-6.6a22.9,22.9,0,0,1,1.2-5.9c.7-1.8,1.5-4.4,2-5.9l4,11.8Zm12.2-7.6a7.7,7.7,0,0,1,6.3-4.5V138H137V119.3a7.8,7.8,0,0,1,6.3,4.5v-5.4H127.4Zm18,14.2h3.4v-8.4h1l6.7,8.4h3.3l-6.6-8.5c3.8-.4,5.7-3,5.7-5.6s-2-5.5-6.5-5.5h-7Zm6-18.8a4.3,4.3,0,0,1,4.2,4.5c0,2.6-1.8,5-4.2,5h-2.6v-9.5ZM161.8,138h14v-5c-1.4,3.1-4.7,4-10.7,4.1v-9l6.5.8v-1.7h-6.5v-7.9c6,.1,9.3,1,10.7,4.1v-5h-14Zm33.9.7c6.1,0,10.1-4.6,10.1-10.6a10.2,10.2,0,0,0-10.3-10.4c-6,0-10.1,4.5-10.1,10.6A10.2,10.2,0,0,0,195.7,138.7Zm-7.4-13.9c0-3.5,1.9-6.1,5.8-6.1s8.6,6.9,8.6,12.6c0,3.6-1.9,6.4-5.5,6.4C191.9,137.7,188.3,130.4,188.3,124.8ZM208,138h3.4v-9.2l6.4.8v-1.7h-6.4v-8.6c6,.1,9.2.8,10.6,4v-4.9H208Zm23.9,0h12.8v-5c-1.2,2.8-3.6,4-9.5,4.1V118.4h-3.3Zm15.1,0h3.3V118.4H247Zm11.7,0h3.4l6.6-19.6h-5.1c2.1,6.4-.3,12.4-2,18.3l-6.1-18.3h-3.4Zm11.8,0h3.3V118.4h-3.3Zm5.8,0h5.1a16.8,16.8,0,0,1-4.2-11.1v-7l9.1,18.1h3.4V118.4h-5.1a16.8,16.8,0,0,1,4.2,11.1v6.8l-9-17.9h-3.5Zm15.6-9.7a10.4,10.4,0,0,0,10.6,10.4,11.9,11.9,0,0,0,8.7-3.8v-6.5H300v2.2l8.3-1.1v6a6.8,6.8,0,0,1-4.7,2.2c-4,0-8.8-5.7-8.8-12.9,0-3.8,2.4-6.1,5.5-6.1s8.2,4.7,8.2,4.7l2-2.7a12.8,12.8,0,0,0-8.2-3A10.2,10.2,0,0,0,291.9,128.3Zm33.7,9.7a11.3,11.3,0,0,1-1.3-5.8h7.5l2,5.8h3.3l-6.6-19.6h-3.3L320.6,138Zm-1.2-6.6a22.9,22.9,0,0,1,1.2-5.9l2-5.9,3.9,11.8Zm14.5,6.6h3.4v-8.4h1.1L350,138h3.3l-6.6-8.5c3.8-.4,5.7-3,5.7-5.6s-2-5.5-6.5-5.5h-7Zm6-18.8a4.3,4.3,0,0,1,4.2,4.5c0,2.6-1.8,5-4.2,5h-2.6v-9.5Zm9.3,4.6a7.8,7.8,0,0,1,6.3-4.5V138h3.4V119.3a7.8,7.8,0,0,1,6.3,4.5v-5.4h-16Zm17.5,11s4.2,3.9,9.7,3.9,7.8-2.4,7.8-5.4c0-6.1-13.2-7.1-13.2-12a3,3,0,0,1,3.2-2.9c2.4,0,5,2,6.6,6l2.8-2.8c-1.6-2.1-5.4-3.9-8.9-3.9s-7.1,2-7.1,5c0,6.3,13.3,6.9,13.3,12.2,0,1.7-1.7,3.1-3.7,3.1-4.1,0-8.6-6-8.6-6Zm35.4-20v26.8h1.2V114.8ZM426.5,138h3.3v-8H433c4.2,0,6.9-2.4,6.9-5.8s-2.4-5.8-6.2-5.8h-7.2Zm5.7-18.8c2.7,0,4.4,1.9,4.4,5.1s-1.7,4.9-4.4,4.9h-2.4v-10Zm10,18.8h3.4v-9.4h9.1V138H458V118.4h-3.3v9.4h-9.1v-9.4h-3.4Zm18.3,0h3.4V118.4h-3.4Zm5.9,0h12.9v-5c-1.3,2.8-3.7,4-9.5,4.1V118.4h-3.4Zm19.8,0a10.4,10.4,0,0,1-1.2-5.8h7.4l2,5.8h3.3l-6.5-19.6h-3.4L481.2,138Zm-1.2-6.6a22.9,22.9,0,0,1,1.2-5.9c.7-1.8,1.5-4.4,2-5.9l4,11.8Zm14.6-13V138h6.8c4.5,0,9.8-2.4,9.8-9.8s-5.2-9.8-9.7-9.8Zm6,.8c4.5,0,7.2,2.9,7.2,9s-2.7,9-7.2,9h-2.7v-18ZM518.4,138h14v-5c-1.4,3.1-4.7,4-10.7,4.1v-9l6.5.8v-1.7h-6.5v-7.9c6,.1,9.3,1,10.7,4.1v-5h-14Zm16,0h12.9v-5c-1.3,2.8-3.7,4-9.5,4.1V118.4h-3.4Zm15.1,0h3.3v-8h3.3c4.1,0,6.9-2.4,6.9-5.8s-2.5-5.8-6.3-5.8h-7.2Zm5.7-18.8c2.7,0,4.4,1.9,4.4,5.1s-1.7,4.9-4.4,4.9h-2.4v-10Zm10,18.8h3.4v-9.4h9.1V138h3.4V118.4h-3.4v9.4h-9.1v-9.4h-3.4Zm18.4,0h3.3V118.4h-3.3Zm10.2,0a10.4,10.4,0,0,1-1.3-5.8H600l1.9,5.8h3.4l-6.6-19.6h-3.3L588.7,138Zm-1.2-6.6a22.9,22.9,0,0,1,1.2-5.9l2-5.9,3.9,11.8Zm14.4,8.9c2.1,0,3.6-1.7,3.6-4.1h-2.4c0,2.3-.5,3-1.2,3Zm14-2.3h3.3v-8h3.3c4.1,0,6.9-2.4,6.9-5.8s-2.5-5.8-6.3-5.8H621Zm5.7-18.8c2.7,0,4.4,1.9,4.4,5.1s-1.7,4.9-4.4,4.9h-2.4v-10ZM638.2,138a10.4,10.4,0,0,1-1.3-5.8h7.5l1.9,5.8h3.4l-6.6-19.6h-3.3L633.1,138Zm-1.2-6.6a22.9,22.9,0,0,1,1.2-5.9l2-5.9,3.9,11.8Zm21.8-11.2v.8l1.6-.8V138h3.3V117.7Zm15,12.9a8.1,8.1,0,0,0,5.1-1.8c-.4,3.7-1.9,6.7-5.4,6.7s-5.8-3.2-5.8-3.2l-1.2,1.5a12.3,12.3,0,0,0,7,2.4c6.4,0,8.9-6.6,8.3-12.9-.4-4.7-3.7-8.1-8.2-8.1a7.4,7.4,0,0,0-7.7,7.4A7.8,7.8,0,0,0,673.8,133.1Zm-1.6-14.3c3.6,0,6.7,5.2,6.7,9.2s-1.4,4.1-3.4,4.1c-4.2,0-6.8-5.8-6.8-9.4A3.6,3.6,0,0,1,672.2,118.8Zm11.5,1.4v.8l1.5-.8V138h3.4V117.7Zm20.7,10.6V118.4h-2.1l-11.5,12.4,1.1,2.4H701V138h3.4v-4.8h2v-2.4Zm-12.5,0L701,121v9.8Zm16.5-12.4v5c1-2.4,6-2.7,10.7-2.7L709.2,138h3.5l8.5-19.6Z" />
    <rect id="outside" class="cls-3" x="1" y="1" width="771" height="174" rx="12" />
    <g id="main_sparkle" data-name="main sparkle">
        <path class="cls-4"
            d="M537.4,48.2a16.2,16.2,0,0,1-22.7,0,15.9,15.9,0,0,1,0,22.6,16.2,16.2,0,0,1,22.7,0,16,16,0,0,1-.1-22.6Z" />
        <path class="cls-5"
            d="M539.2,61.1l15.1-1.5c.1,0,.1-.2,0-.2l-15.1-1.6a11.5,11.5,0,0,1-10.3-10.3l-2.8-28.1H526l-2.7,28a11.6,11.6,0,0,1-10.4,10.4l-15.1,1.6c-.1,0-.1.2,0,.2l15.1,1.5a11.7,11.7,0,0,1,10.4,10.4l2.7,28h.1l2.8-28A11.7,11.7,0,0,1,539.2,61.1Z" />
        <path class="cls-6"
            d="M525.5,60.3c-3.3-4.1-27.7-.9-27.7-.9s-.1.2,0,.2l15.1,1.5a11.7,11.7,0,0,1,10.4,10.4l2.5,26.3h.2S528.9,64.6,525.5,60.3Z" />
        <path class="cls-7" d="M539.2,57.8a11.5,11.5,0,0,1-10.3-10.3l-1.8-18.1s-.5,24.4,4.8,27.9,3,.1,22.4,2.1Z" />
        <path class="cls-8"
            d="M524.2,50.2c1.2-14.4,1.7-21.4,2.5-25.2l-.6-5.6H526l-2.7,28a11.6,11.6,0,0,1-10.4,10.4l-10,1.1C514.6,60.2,523.5,58.5,524.2,50.2Z" />
        <path class="cls-9"
            d="M526,99.5l-2.7-28a11.7,11.7,0,0,0-10.4-10.4l-15.1-1.5s12.6.6,15.2.6,10.5,1.6,11.2,11.3S526,99.5,526,99.5Z" />
        <path class="cls-10"
            d="M526.1,99.5l2.8-28a11.5,11.5,0,0,1,10.3-10.4l15.1-1.5s-12.6.6-15.2.6-10.4,1.6-11.2,11.3S526.1,99.5,526.1,99.5Z" />
    </g>
    <g id="top_left" data-name="top left">
        <path class="cls-11"
            d="M498.9,38.1a7.4,7.4,0,0,1-10.4.1h0a7.3,7.3,0,0,1,0,10.4h0a7.5,7.5,0,0,1,10.4,0h0A7.3,7.3,0,0,1,498.9,38.1Z" />
        <path class="cls-12"
            d="M487.9,42.6l-6.7.7h0l6.7.7a5,5,0,0,1,4.5,4.6L493.7,61c0,.1,0,.1.1,0l1.1-12.3a5.2,5.2,0,0,1,4.6-4.6l6.7-.7h0l-6.7-.7a5.1,5.1,0,0,1-4.6-4.6l-1.1-12.3h-.1l-1.3,12.4A4.9,4.9,0,0,1,487.9,42.6Z" />
        <path class="cls-13"
            d="M494,43c1.4,1.8,12.2.4,12.2.4h0l-6.7-.7a5.2,5.2,0,0,1-4.6-4.6l-1.1-11.6h-.1S492.5,41.1,494,43Z" />
        <path class="cls-14" d="M487.9,44.1a4.9,4.9,0,0,1,4.5,4.6l.8,7.9s.3-10.7-2.1-12.3-1.3,0-9.9-.9Z" />
        <path class="cls-15"
            d="M494.5,47.4c-.5,6.4-.7,9.5-1.1,11.1l.2,2.5c0,.1.1.1.1,0l1.2-12.3a5.1,5.1,0,0,1,4.6-4.6l4.4-.5C498.8,43,494.8,43.8,494.5,47.4Z" />
        <path class="cls-16"
            d="M493.7,25.7,494.9,38a5.2,5.2,0,0,0,4.6,4.6l6.7.7-6.8-.3a5,5,0,0,1-4.9-5C494.2,33.8,493.7,25.7,493.7,25.7Z" />
        <path class="cls-17"
            d="M493.6,25.7,492.5,38a5.2,5.2,0,0,1-4.6,4.6l-6.7.7,6.7-.3a5.1,5.1,0,0,0,5-5C493.2,33.8,493.6,25.7,493.6,25.7Z" />
    </g>
    <g id="right_sparkle" data-name="right sparkle">
        <path class="cls-11"
            d="M555.8,39.4a5.9,5.9,0,0,1-8.2,0,5.7,5.7,0,0,1,0,8.2h0a5.7,5.7,0,0,1,8.2,0A5.9,5.9,0,0,1,555.8,39.4Z" />
        <path class="cls-18"
            d="M556.3,43.9l5.1-.4h0l-5.1-.4c-1.9-.2-3.4-1.3-3.6-2.7l-.9-7.2h-.1l-.9,7.2c-.2,1.4-1.7,2.5-3.5,2.7l-5.2.4h0l5.2.4c1.8.2,3.3,1.3,3.5,2.7l.9,7.2h.1l.9-7.2C552.9,45.2,554.4,44.1,556.3,43.9Z" />
        <path class="cls-19"
            d="M551.5,43.7c-1.1-1.1-9.4-.3-9.4-.3s-.1.1,0,.1l5.2.4c1.8.2,3.3,1.3,3.5,2.7l.9,6.7h0C551.7,53.4,552.7,44.8,551.5,43.7Z" />
        <path class="cls-20" d="M547.2,43.9c1.9.2,3.4,1.3,3.6,2.7l.6,4.6s.2-6.3-1.7-7.2-1,0-7.6-.5Z" />
        <path class="cls-21"
            d="M551.1,41.1a48,48,0,0,1,.9-6.5l-.2-1.4h-.1l-.9,7.2c-.2,1.4-1.7,2.5-3.5,2.7l-3.5.2C547.8,43.7,550.9,43.2,551.1,41.1Z" />
        <path class="cls-22"
            d="M551.7,53.8l-.9-7.2c-.2-1.4-1.7-2.5-3.5-2.7l-5.2-.4,5.2.2c.9,0,3.6.4,3.8,2.9S551.7,53.8,551.7,53.8Z" />
        <path class="cls-23"
            d="M551.8,53.8l.9-7.2c.2-1.4,1.7-2.5,3.6-2.7l5.1-.4-5.2.2c-.9,0-3.6.4-3.8,2.9S551.8,53.8,551.8,53.8Z" />
    </g>
    <g id="bottom_left" data-name="bottom left">
        <path class="cls-11"
            d="M510.3,77.2a5.1,5.1,0,0,1-7.2,0h0a5.1,5.1,0,0,1,0,7.2h0a5.2,5.2,0,0,1,7.2,0h0a5.1,5.1,0,0,1,0-7.2Z" />
        <path class="cls-24"
            d="M502.7,80.3l-4.6.5h0l4.6.5a3.3,3.3,0,0,1,3.1,3.1l.9,8.6h0l.9-8.6a3.3,3.3,0,0,1,3.1-3.1l4.6-.5c.1,0,.1-.1,0-.1l-4.6-.5a3.4,3.4,0,0,1-3.1-3.1l-.9-8.6h0l-.9,8.6A3.4,3.4,0,0,1,502.7,80.3Z" />
        <path class="cls-25"
            d="M506.9,80.6c1,1.2,8.4.3,8.4.3s.1-.1,0-.1l-4.6-.5a3.4,3.4,0,0,1-3.1-3.2l-.8-8h-.1S505.9,79.3,506.9,80.6Z" />
        <path class="cls-26" d="M502.7,81.3a3.4,3.4,0,0,1,3.1,3.2l.6,5.5s.2-7.4-1.5-8.5-.9-.1-6.8-.6Z" />
        <path class="cls-27"
            d="M507.3,83.7c-.4,4.3-.6,6.5-.8,7.6l.2,1.8h0l.9-8.6a3.4,3.4,0,0,1,3.1-3.2l3.1-.3C510.2,80.6,507.5,81.1,507.3,83.7Z" />
        <path class="cls-28"
            d="M506.7,68.6l.8,8.6a3.5,3.5,0,0,0,3.2,3.1l4.6.5-4.6-.2a3.4,3.4,0,0,1-3.4-3.4C507.1,74.2,506.7,68.6,506.7,68.6Z" />
        <path class="cls-29"
            d="M506.7,68.6l-.8,8.6a3.5,3.5,0,0,1-3.2,3.1l-4.6.5,4.7-.2a3.4,3.4,0,0,0,3.3-3.4C506.4,74.2,506.7,68.6,506.7,68.6Z" />
    </g>
</svg>