<svg id="small_bottom_btn" xmlns="http://www.w3.org/2000/svg" xmlns:xlink="http://www.w3.org/1999/xlink" viewBox="0 0 541.5 217"><defs><style>.cls-1{fill:#c3c56f;}.cls-2{fill:#d9daae;}.cls-3{fill:none;stroke:#b3daae;stroke-miterlimit:10;}.cls-11,.cls-4{fill:#fcce38;}.cls-5{fill:url(#linear-gradient);}.cls-6{fill:url(#linear-gradient-2);}.cls-7{fill:url(#linear-gradient-3);}.cls-8{fill:url(#linear-gradient-4);}.cls-9{fill:url(#linear-gradient-5);}.cls-10{fill:url(#linear-gradient-6);}.cls-11{isolation:isolate;opacity:0.5;}.cls-12{fill:url(#linear-gradient-7);}.cls-13{fill:url(#linear-gradient-8);}.cls-14{fill:url(#linear-gradient-9);}.cls-15{fill:url(#linear-gradient-10);}.cls-16{fill:url(#linear-gradient-11);}.cls-17{fill:url(#linear-gradient-12);}.cls-18{fill:url(#linear-gradient-13);}.cls-19{fill:url(#linear-gradient-14);}.cls-20{fill:url(#linear-gradient-15);}.cls-21{fill:url(#linear-gradient-16);}.cls-22{fill:url(#linear-gradient-17);}.cls-23{fill:url(#linear-gradient-18);}.cls-24{fill:url(#linear-gradient-19);}.cls-25{fill:url(#linear-gradient-20);}.cls-26{fill:url(#linear-gradient-21);}.cls-27{fill:url(#linear-gradient-22);}.cls-28{fill:url(#linear-gradient-23);}.cls-29{fill:url(#linear-gradient-24);}</style><linearGradient id="linear-gradient" x1="-168.21" y1="-84.8" x2="-168.59" y2="-86.45" gradientTransform="translate(6094.2 2895.4) scale(33.33)" gradientUnits="userSpaceOnUse"><stop offset="0" stop-color="#fcce38"/><stop offset="0.22" stop-color="#fcd44f"/><stop offset="0.5" stop-color="#fbdb67"/><stop offset="0.77" stop-color="#fbdf75"/><stop offset="1" stop-color="#fbe07a"/></linearGradient><linearGradient id="linear-gradient-2" x1="-168.46" y1="-84.56" x2="-167.8" y2="-84.62" xlink:href="#linear-gradient"/><linearGradient id="linear-gradient-3" x1="-167.74" y1="-85.93" x2="-168.21" y2="-84.18" gradientTransform="translate(6094.2 2895.4) scale(33.33)" gradientUnits="userSpaceOnUse"><stop offset="0" stop-color="#fcce38"/><stop offset="0.36" stop-color="#fcce38"/><stop offset="1" stop-color="#c86f34"/></linearGradient><linearGradient id="linear-gradient-4" x1="-168.75" y1="-85.79" x2="-167.94" y2="-85.28" xlink:href="#linear-gradient"/><linearGradient id="linear-gradient-5" x1="-168.74" y1="-84.28" x2="-168.49" y2="-85.6" gradientTransform="translate(6094.2 2895.4) scale(33.33)" gradientUnits="userSpaceOnUse"><stop offset="0" stop-color="#fcce38"/><stop offset="0.01" stop-color="#fccd38"/><stop offset="0.37" stop-color="#fbb53a"/><stop offset="0.71" stop-color="#fba73b"/><stop offset="1" stop-color="#fba23b"/></linearGradient><linearGradient id="linear-gradient-6" x1="-167.97" y1="-84.76" x2="-168.34" y2="-85.54" xlink:href="#linear-gradient-5"/><linearGradient id="linear-gradient-7" x1="-169.26" y1="-85.7" x2="-169.09" y2="-84.98" xlink:href="#linear-gradient"/><linearGradient id="linear-gradient-8" x1="-169.16" y1="-85.82" x2="-169.45" y2="-85.79" xlink:href="#linear-gradient"/><linearGradient id="linear-gradient-9" x1="-169.47" y1="-85.21" x2="-169.27" y2="-85.98" xlink:href="#linear-gradient-3"/><linearGradient id="linear-gradient-10" x1="-169.03" y1="-85.28" x2="-169.38" y2="-85.5" xlink:href="#linear-gradient"/><linearGradient id="linear-gradient-11" x1="-169.03" y1="-85.93" x2="-169.14" y2="-85.35" xlink:href="#linear-gradient-5"/><linearGradient id="linear-gradient-12" x1="-169.36" y1="-85.73" x2="-169.2" y2="-85.38" xlink:href="#linear-gradient-5"/><linearGradient id="linear-gradient-13" x1="-167.5" y1="-85.5" x2="-167.6" y2="-85.92" xlink:href="#linear-gradient"/><linearGradient id="linear-gradient-14" x1="-167.59" y1="-85.44" x2="-167.36" y2="-85.46" xlink:href="#linear-gradient"/><linearGradient id="linear-gradient-15" x1="-167.69" y1="-85.37" x2="-167.57" y2="-85.8" xlink:href="#linear-gradient-3"/><linearGradient id="linear-gradient-16" x1="-167.68" y1="-85.76" x2="-167.42" y2="-85.6" xlink:href="#linear-gradient"/><linearGradient id="linear-gradient-17" x1="-167.67" y1="-85.37" x2="-167.61" y2="-85.7" xlink:href="#linear-gradient-5"/><linearGradient id="linear-gradient-18" x1="-167.4" y1="-85.49" x2="-167.49" y2="-85.69" xlink:href="#linear-gradient-5"/><linearGradient id="linear-gradient-19" x1="-168.87" y1="-84.56" x2="-168.75" y2="-84.05" xlink:href="#linear-gradient"/><linearGradient id="linear-gradient-20" x1="-168.8" y1="-84.64" x2="-169" y2="-84.62" xlink:href="#linear-gradient"/><linearGradient id="linear-gradient-21" x1="-169.01" y1="-84.21" x2="-168.87" y2="-84.74" xlink:href="#linear-gradient-3"/><linearGradient id="linear-gradient-22" x1="-168.7" y1="-84.26" x2="-168.95" y2="-84.42" xlink:href="#linear-gradient"/><linearGradient id="linear-gradient-23" x1="-168.71" y1="-84.71" x2="-168.78" y2="-84.31" xlink:href="#linear-gradient-5"/><linearGradient id="linear-gradient-24" x1="-168.94" y1="-84.57" x2="-168.83" y2="-84.33" xlink:href="#linear-gradient-5"/></defs><path class="cls-1" d="M50.6,91.4c10.9,0,16.9-9.3,16.9-9.3l-1.3-1s-4.8,5.8-11.8,5.8c-9.2,0-17.5-9.7-17.5-21.7,0-7.1,4.7-11.6,10.2-11.6,8,0,15.4,8.6,15.4,8.6l3.8-5a26,26,0,0,0-15.4-5.4c-11.1,0-19.5,8.5-19.5,20S40,91.4,50.6,91.4ZM77,90.1a20.6,20.6,0,0,1-2.4-11H88.7l3.7,10.9h6.3l-12.4-37H80l-12.5,37ZM74.7,77.7A44,44,0,0,1,77,66.6c1.2-3.4,2.8-8.3,3.8-11.1l7.4,22.2Zm25.9,12.4h9.5a31.3,31.3,0,0,1-8-21v-13l17.3,34h6.3v-37h-9.5a32,32,0,0,1,7.9,21.1V86.9L107,53.1h-6.4Zm28.3-37v37h13c8.4,0,18.3-4.6,18.3-18.5S150.4,53.1,142,53.1Zm11.4,1.6c8.5,0,13.5,5.4,13.5,16.9s-5,17-13.5,17h-5.1V54.7Zm30,20.7V90.1h6.3V75.4l12.8-22.3h-9.3c3.6,6.1-1.7,16.3-4.3,20.9L163.9,53.1h-6.3Zm21.2-22.3v37h13c8.4,0,18.3-4.6,18.3-18.5S213,53.1,204.6,53.1Zm11.4,1.6c8.5,0,13.5,5.4,13.5,16.9s-5,17-13.5,17h-5.1V54.7Zm22.5,35.4h6.3V74.2h2l12.6,15.9h6.3L240,74.1c7.3-.8,10.8-5.6,10.8-10.5S247,53.1,238.5,53.1H225.4Zm11.2-35.4c4.5,0,7.9,3.7,7.9,8.5s-3.3,9.4-7.8,9.4h-5V54.7Zm18.1,35.4H261v-37h-6.3Zm9.5,0h6.3v-15h6.1c7.8,0,13-4.6,13-11.1s-4.7-10.9-11.8-10.9H264.2ZM275,54.7c5.1,0,8.3,3.5,8.3,9.6s-3.2,9.2-8.3,9.2h-4.5V54.7Zm29.7,8.7c1.8-4.6,7.2-8.4,11.9-8.6V90.1h6.4V54.8c4.7.2,10,4,11.9,8.6V53.1H304.7Zm51.3,28c11.7,0,19.1-8.7,19.1-19.9a19.4,19.4,0,0,0-19.4-19.7c-11.3,0-19.1,8.4-19.1,20A19.3,19.3,0,0,0,356,91.4ZM342.1,65.2c0-6.5,3.7-11.6,11-11.6,9.9,0,16.2,13.2,16.2,23.9,0,6.7-3.5,12-10.3,12C349,89.5,342.1,75.9,342.1,65.2Zm35.7,9.2c0,10.2,6.2,17,15.5,17s13.1-5.9,13.1-17.1V53.1h-9.5c4.3,4.3,7.9,12.7,7.9,21.7s-3.6,15.3-10.7,15.3-10-5-10-13.7V53.1h-6.3Zm31.8,15.7h6.3V74.2h2l12.5,15.9h6.4l-12.6-16c7.3-.8,10.8-5.6,10.8-10.5s-3.8-10.5-12.3-10.5H409.6Zm11.2-35.4c4.5,0,7.9,3.7,7.9,8.5s-3.3,9.4-7.8,9.4h-5V54.7Z" transform="translate(-0.5 -0.5)"/><path class="cls-2" d="M75.5,123.8a9.1,9.1,0,0,1,7.2-5.2V140h3.9V118.6a9.1,9.1,0,0,1,7.2,5.2v-6.2H75.5ZM96.1,140h3.8V129.2h10.4V140h3.9V117.6h-3.9v10.8H99.9V117.6H96.1Zm21,0H133v-5.8c-1.5,3.7-5.3,4.7-12.1,4.8V128.6l7.3,1v-1.9h-7.3v-9.1c6.8.1,10.6,1.1,12.1,4.8v-5.8H117.1Zm23.5,0a12.6,12.6,0,0,1-1.4-6.7h8.5l2.2,6.6h3.9l-7.5-22.4h-3.9L134.9,140Zm-1.4-7.5a28.6,28.6,0,0,1,1.4-6.7l2.3-6.8,4.5,13.5Zm13.9-8.7a9.3,9.3,0,0,1,7.2-5.2V140h3.9V118.6a9.4,9.4,0,0,1,7.2,5.2v-6.2H153.1ZM173.8,140h3.8v-9.6h1.2l7.6,9.6h3.8l-7.6-9.7c4.4-.5,6.6-3.4,6.6-6.4s-2.3-6.3-7.5-6.3h-7.9Zm6.8-21.4a4.8,4.8,0,0,1,4.7,5.1c0,3-1.9,5.7-4.7,5.7h-3V118.6ZM192.5,140h15.9v-5.8c-1.5,3.7-5.3,4.7-12.1,4.8V128.6l7.3,1v-1.9h-7.3v-9.1c6.8.1,10.6,1.1,12.1,4.8v-5.8H192.5Zm38.7.8c7,0,11.6-5.3,11.6-12.1A11.8,11.8,0,0,0,231,116.8c-6.9,0-11.6,5.1-11.6,12.1A11.8,11.8,0,0,0,231.2,140.8Zm-8.5-15.9c0-3.9,2.3-7,6.7-7,6,0,9.8,8,9.8,14.5,0,4-2.1,7.2-6.2,7.2C226.9,139.6,222.7,131.4,222.7,124.9ZM245.3,140h3.8V129.5l7.4.9v-1.9h-7.4v-9.9c6.9.1,10.5.9,12.2,4.6v-5.6h-16Zm27.3,0h14.7v-5.8c-1.5,3.3-4.2,4.6-10.9,4.8V117.6h-3.8Zm17.2,0h3.9V117.6h-3.9Zm13.4,0h3.9l7.5-22.4h-5.8c2.4,7.3-.3,14.2-2.2,20.9l-7-20.9h-3.9Zm13.5,0h3.8V117.6h-3.8Zm6.7,0h5.7a19.3,19.3,0,0,1-4.8-12.7v-7.9L334.8,140h3.8V117.6h-5.7a19.1,19.1,0,0,1,4.8,12.7v7.8l-10.4-20.5h-3.9Zm17.8-11.1a11.8,11.8,0,0,0,12.1,11.9,13.4,13.4,0,0,0,9.9-4.4V129H350.4v2.6l9.5-1.3v6.8a7.6,7.6,0,0,1-5.3,2.5c-4.7,0-10.1-6.5-10.1-14.7,0-4.3,2.8-7,6.2-7,4.9,0,9.4,5.4,9.5,5.4l2.3-3.1a15.2,15.2,0,0,0-9.4-3.4C346.2,116.8,341.2,121.9,341.2,128.9ZM379.7,140a12.6,12.6,0,0,1-1.5-6.7h8.6L389,140h3.8l-7.5-22.4h-3.8L373.9,140Zm-1.4-7.5a24.3,24.3,0,0,1,1.4-6.7L382,119l4.5,13.5Zm16.6,7.5h3.8v-9.6H400l7.5,9.6h3.9l-7.6-9.7c4.4-.5,6.5-3.4,6.5-6.4s-2.3-6.3-7.5-6.3h-7.9Zm6.8-21.4a4.9,4.9,0,0,1,4.8,5.1c0,3-2,5.7-4.7,5.7h-3.1V118.6Zm10.7,5.2a9.1,9.1,0,0,1,7.2-5.2V140h3.8V118.6a9.1,9.1,0,0,1,7.2,5.2v-6.2H412.4Zm20,12.5s4.8,4.5,11,4.5,9-2.7,9-6.2c0-7-15.2-8.1-15.2-13.7a3.5,3.5,0,0,1,3.8-3.3c2.7,0,5.6,2.3,7.4,6.8l3.3-3.1c-1.8-2.4-6.2-4.5-10.2-4.5s-8.1,2.3-8.1,5.7c0,7.3,15.1,7.9,15.1,13.9a3.9,3.9,0,0,1-4.1,3.6c-4.8,0-9.8-6.9-9.8-6.9ZM96.4,180h3.8v-9.1h3.7c4.7,0,7.9-2.8,7.9-6.7s-2.8-6.6-7.1-6.6H96.4Zm6.5-21.4c3.1,0,5.1,2,5.1,5.8s-2,5.6-5.1,5.6h-2.7V158.6ZM114.4,180h3.8V169.2h10.4V180h3.9V157.6h-3.9v10.8H118.2V157.6h-3.8Zm20.9,0h3.9V157.6h-3.9Zm6.7,0h14.7v-5.8c-1.4,3.3-4.1,4.6-10.8,4.8V157.6H142Zm22.7,0a13.6,13.6,0,0,1-1.5-6.7h8.6L174,180h3.9l-7.6-22.4h-3.8L159,180Zm-1.4-7.5a24.3,24.3,0,0,1,1.4-6.7L167,159l4.5,13.5Zm16.6-14.9V180h7.9c5.1,0,11.1-2.8,11.1-11.2s-5.9-11.2-11-11.2Zm6.9,1c5.2,0,8.3,3.2,8.3,10.2s-3.1,10.3-8.3,10.3h-3V158.6ZM201.5,180h15.9v-5.8c-1.5,3.7-5.3,4.7-12.1,4.8V168.6l7.3,1v-1.9h-7.3v-9.1c6.8.1,10.6,1.1,12.1,4.8v-5.8H201.5Zm18.3,0h14.6v-5.8c-1.4,3.3-4.1,4.6-10.8,4.8V157.6h-3.8Zm17.2,0h3.8v-9.1h3.7c4.8,0,7.9-2.8,7.9-6.7s-2.8-6.6-7.1-6.6H237Zm6.6-21.4c3,0,5,2,5,5.8s-2,5.6-5,5.6h-2.8V158.6ZM255,180h3.8V169.2h10.4V180h3.9V157.6h-3.9v10.8H258.8V157.6H255Zm21,0h3.8V157.6H276Zm11.6,0a13.6,13.6,0,0,1-1.5-6.7h8.6l2.2,6.6h3.9l-7.5-22.4h-3.9L281.9,180Zm-1.4-7.5a24.3,24.3,0,0,1,1.4-6.7l2.3-6.8,4.5,13.5Zm16.6,10.1c2.4,0,4.1-1.9,4-4.6h-2.7c.1,2.6-.6,3.4-1.3,3.4Zm15.9-2.6h3.8v-9.1h3.7c4.8,0,7.9-2.8,7.9-6.7s-2.8-6.6-7.1-6.6h-8.3Zm6.6-21.4c3,0,5,2,5,5.8s-2,5.6-5,5.6h-2.8V158.6ZM338.4,180a11.7,11.7,0,0,1-1.5-6.7h8.5l2.3,6.6h3.8L344,157.6h-3.8L332.6,180Zm-1.4-7.5a24.3,24.3,0,0,1,1.4-6.7c.7-2.1,1.7-5.1,2.2-6.8l4.6,13.5Zm24.9-12.9v1l1.8-.9V180h3.8V156.8ZM379,174.4a9.7,9.7,0,0,0,5.9-2c-.5,4.1-2.2,7.6-6.1,7.6s-6.7-3.6-6.7-3.6l-1.4,1.7a14.5,14.5,0,0,0,8,2.7c7.4,0,10.2-7.6,9.5-14.8-.4-5.3-4.2-9.2-9.3-9.2s-8.8,3.4-8.8,8.5A8.9,8.9,0,0,0,379,174.4ZM377.2,158c4.2,0,7.7,6,7.7,10.6,0,2.8-1.6,4.6-3.9,4.6-4.8,0-7.8-6.6-7.8-10.7S374.9,158,377.2,158Zm13.1,1.6v1l1.8-.9V180H396V156.8ZM414,171.7V157.6h-2.3l-13.2,14.1,1.3,2.8h10.4V180H414v-5.5h2.3v-2.8Zm-14.2,0,10.4-11.1v11.1Zm18.8-14.1v5.8c1.2-2.9,6.9-3.2,12.2-3.2L419.5,180h4l9.7-22.4Z" transform="translate(-0.5 -0.5)"/><path class="cls-3" d="M14.9,1H527.6c7.7,0,13.9,7.6,13.9,17V200c0,9.4-6.2,17-13.9,17H14.9C7.2,217,1,209.4,1,200V18C1,8.6,7.2,1,14.9,1Z" transform="translate(-0.5 -0.5)"/><g id="main_sparkle" data-name="main sparkle"><path class="cls-4" d="M496.7,47.7a15.7,15.7,0,0,1-22.3,0,16,16,0,0,1,0,22.4,15.7,15.7,0,0,1,22.3,0,15.8,15.8,0,0,1,0-22.3Z" transform="translate(-0.5 -0.5)"/><path class="cls-5" d="M498.6,60.5,513.4,59c.1,0,.1-.2,0-.2l-14.8-1.5A11.5,11.5,0,0,1,488.4,47l-2.8-27.6c0-.2-.1-.2-.1,0L482.8,47a11.5,11.5,0,0,1-10.2,10.3l-14.9,1.5c-.1,0-.1.2,0,.2l14.9,1.5a11.5,11.5,0,0,1,10.2,10.3l2.7,27.6h.1l2.8-27.7A11.4,11.4,0,0,1,498.6,60.5Z" transform="translate(-0.5 -0.5)"/><path class="cls-6" d="M484.9,59.7c-3.1-4-27.2-.9-27.2-.9s-.1.2,0,.2l14.9,1.5a11.5,11.5,0,0,1,10.2,10.3l2.5,25.9h.2S488.3,64,484.9,59.7Z" transform="translate(-0.5 -0.5)"/><path class="cls-7" d="M498.6,57.3A11.5,11.5,0,0,1,488.4,47l-1.8-17.8s-.6,24.1,4.7,27.6,3,.1,22.1,2Z" transform="translate(-0.5 -0.5)"/><path class="cls-8" d="M483.7,49.7c1.2-14.2,1.7-21.1,2.5-24.8l-.6-5.6c0-.1-.1-.1-.1,0L482.8,47a11.3,11.3,0,0,1-10.2,10.2l-9.9,1.1C474.2,59.6,483,57.9,483.7,49.7Z" transform="translate(-0.5 -0.5)"/><path class="cls-9" d="M485.5,98.4l-2.7-27.6a11.5,11.5,0,0,0-10.2-10.3L457.7,59s12.4.6,15,.6,10.3,1.6,11,11.1S485.5,98.4,485.5,98.4Z" transform="translate(-0.5 -0.5)"/><path class="cls-10" d="M485.6,98.4l2.7-27.6a11.5,11.5,0,0,1,10.2-10.3L513.4,59s-12.4.6-15,.6-10.3,1.6-11,11.1S485.6,98.4,485.6,98.4Z" transform="translate(-0.5 -0.5)"/></g><g id="top_left" data-name="top left"><path class="cls-11" d="M458.7,37.8a7.1,7.1,0,0,1-10.2,0h0a7.2,7.2,0,0,1,0,10.2h0a7.2,7.2,0,0,1,10.2,0h0A7.4,7.4,0,0,1,458.7,37.8Z" transform="translate(-0.5 -0.5)"/><path class="cls-12" d="M447.9,42.2l-6.6.7h0l6.6.7a5.1,5.1,0,0,1,4.5,4.5l1.2,12.2c0,.1,0,.1.1,0l1.1-12.2a5.1,5.1,0,0,1,4.5-4.5l6.6-.7c.1,0,.1,0,0-.1l-6.6-.7a5.1,5.1,0,0,1-4.5-4.5l-1.1-12.2h-.1l-1.2,12.2A5.1,5.1,0,0,1,447.9,42.2Z" transform="translate(-0.5 -0.5)"/><path class="cls-13" d="M453.9,42.6c1.4,1.8,12,.4,12,.4h0l-6.6-.7a5,5,0,0,1-4.5-4.5l-1.1-11.4h-.1S452.4,40.7,453.9,42.6Z" transform="translate(-0.5 -0.5)"/><path class="cls-14" d="M447.9,43.7a5.1,5.1,0,0,1,4.5,4.5l.7,7.9s.3-10.7-2-12.2-1.4,0-9.8-.9Z" transform="translate(-0.5 -0.5)"/><path class="cls-15" d="M454.4,47c-.5,6.3-.7,9.3-1.1,11l.3,2.4h0l1.2-12.2a4.9,4.9,0,0,1,4.5-4.5l4.4-.5C458.6,42.6,454.7,43.4,454.4,47Z" transform="translate(-0.5 -0.5)"/><path class="cls-16" d="M453.6,25.5l1.2,12.2a4.9,4.9,0,0,0,4.5,4.5l6.6.7-6.6-.3a4.9,4.9,0,0,1-4.9-4.9C454.1,33.5,453.6,25.5,453.6,25.5Z" transform="translate(-0.5 -0.5)"/><path class="cls-17" d="M453.6,25.5l-1.2,12.2a5,5,0,0,1-4.5,4.5l-6.6.7,6.6-.3a4.9,4.9,0,0,0,4.9-4.9C453.1,33.5,453.6,25.5,453.6,25.5Z" transform="translate(-0.5 -0.5)"/></g><g id="right_sparkle" data-name="right sparkle"><path class="cls-11" d="M514.9,39.1a5.8,5.8,0,0,1-8.1,0,5.5,5.5,0,0,1,0,8h0a5.8,5.8,0,0,1,8.1,0A5.7,5.7,0,0,1,514.9,39.1Z" transform="translate(-0.5 -0.5)"/><path class="cls-18" d="M515.4,43.5l5.1-.4h0l-5.1-.4c-1.9-.2-3.4-1.2-3.5-2.6l-1-7.2h0L510,40c-.2,1.4-1.7,2.5-3.5,2.7l-5.2.4h0l5.2.4c1.8.2,3.3,1.3,3.5,2.7l.9,7.1h0l1-7.2C512,44.8,513.5,43.7,515.4,43.5Z" transform="translate(-0.5 -0.5)"/><path class="cls-19" d="M510.7,43.3c-1.1-1-9.4-.2-9.4-.2h0l5.2.4c1.8.2,3.3,1.3,3.5,2.6l.8,6.7h.1S511.9,44.4,510.7,43.3Z" transform="translate(-0.5 -0.5)"/><path class="cls-20" d="M506.4,43.5c1.9.2,3.4,1.3,3.5,2.6l.6,4.6s.2-6.2-1.6-7.1-1,0-7.6-.5Z" transform="translate(-0.5 -0.5)"/><path class="cls-21" d="M510.3,40.8c.4-3.7.6-5.5.8-6.4l-.2-1.5h0L510,40c-.2,1.4-1.7,2.5-3.5,2.7l-3.4.2C507,43.3,510,42.8,510.3,40.8Z" transform="translate(-0.5 -0.5)"/><path class="cls-22" d="M510.9,53.3l-.9-7.1c-.2-1.4-1.7-2.5-3.5-2.7l-5.2-.4,5.2.2c.9,0,3.5.4,3.8,2.8S510.9,53.3,510.9,53.3Z" transform="translate(-0.5 -0.5)"/><path class="cls-23" d="M510.9,53.3l1-7.1c.1-1.4,1.6-2.5,3.5-2.7l5.1-.4-5.2.2c-.9,0-3.5.4-3.8,2.8S510.9,53.3,510.9,53.3Z" transform="translate(-0.5 -0.5)"/></g><g id="bottom_left" data-name="bottom left"><path class="cls-11" d="M470,76.4a5,5,0,0,1-7.1,0h0a5,5,0,0,1,0,7.1h0a4.9,4.9,0,0,1,7,0h.1a5,5,0,0,1,0-7.1Z" transform="translate(-0.5 -0.5)"/><path class="cls-24" d="M462.5,79.5l-4.5.4c-.1,0-.1.1,0,.1l4.5.5a3.4,3.4,0,0,1,3.1,3.1l.8,8.4h.1l.8-8.4a3.4,3.4,0,0,1,3.1-3.1l4.5-.5c.1,0,.1-.1,0-.1l-4.5-.4a3.6,3.6,0,0,1-3.1-3.2l-.8-8.4h-.1l-.8,8.4A3.6,3.6,0,0,1,462.5,79.5Z" transform="translate(-0.5 -0.5)"/><path class="cls-25" d="M466.6,79.7c1,1.2,8.3.3,8.3.3s.1-.1,0-.1l-4.5-.5a3.3,3.3,0,0,1-3.1-3.1l-.8-7.9h0S465.6,78.4,466.6,79.7Z" transform="translate(-0.5 -0.5)"/><path class="cls-26" d="M462.5,80.4a3.6,3.6,0,0,1,3.1,3.2l.5,5.4s.2-7.3-1.4-8.4-.9,0-6.8-.6Z" transform="translate(-0.5 -0.5)"/><path class="cls-27" d="M467,82.7a50.6,50.6,0,0,1-.8,7.6l.2,1.7h.1l.8-8.4a3.5,3.5,0,0,1,3.1-3.2l3-.3C469.9,79.7,467.2,80.3,467,82.7Z" transform="translate(-0.5 -0.5)"/><path class="cls-28" d="M466.5,67.9l.8,8.4a3.4,3.4,0,0,0,3.1,3.2l4.5.4-4.6-.2a3.3,3.3,0,0,1-3.3-3.3C466.8,73.4,466.5,67.9,466.5,67.9Z" transform="translate(-0.5 -0.5)"/><path class="cls-29" d="M466.4,67.9l-.8,8.4a3.4,3.4,0,0,1-3.1,3.2l-4.5.4,4.5-.2a3.3,3.3,0,0,0,3.4-3.3C466.1,73.4,466.4,67.9,466.4,67.9Z" transform="translate(-0.5 -0.5)"/></g></svg>