<?xml version="1.0" encoding="utf-8"?>
<!-- Generator: Adobe Illustrator 25.3.1, SVG Export Plug-In . SVG Version: 6.00 Build 0)  -->
<svg version="1.1" id="text_x5F_clover" xmlns="http://www.w3.org/2000/svg" xmlns:xlink="http://www.w3.org/1999/xlink" x="0px"
	 y="0px" viewBox="0 0 300 300" style="enable-background:new 0 0 300 300;" xml:space="preserve">
<style type="text/css">
	.st0{fill:#FFFFFF;}
	.st1{fill:#FFFFFF;stroke:#FFFFFF;stroke-width:6;stroke-linecap:round;stroke-linejoin:round;stroke-miterlimit:10;}
	.st2{fill:none;stroke:#FFFFFF;stroke-width:6;stroke-linecap:round;stroke-linejoin:round;stroke-miterlimit:10;}
</style>
<g id="rotating_x5F_text">
	<path id="L1" class="st0" d="M120.1,3.9l3.7,20.5l12.2-2.2l0.5,2.6l-15.3,2.8l-4.2-23L120.1,3.9z"/>
	<path id="U1" class="st0" d="M160.2,22.9c-1.6,1.5-3.9,2.1-6.9,2.1c-3-0.1-5.4-0.9-7-2.3c-1.7-1.5-2.4-3.8-2.4-6.9l0.4-14.9
		l3.1,0.1L147,15.9c-0.1,2.1,0.5,3.7,1.5,4.8c1.1,1.1,2.7,1.7,4.8,1.8c2,0.1,3.5-0.4,4.6-1.5s1.6-2.6,1.7-4.7L160,1.4l3.1,0.1
		l-0.4,14.9C162.7,19.2,161.9,21.4,160.2,22.9z"/>
	<path id="C1" class="st0" d="M190.9,10.1c-0.9-1.1-2.2-1.9-3.8-2.3c-1.4-0.4-2.6-0.4-3.7-0.1c-1.1,0.3-2.1,0.7-2.9,1.4
		c-0.8,0.7-1.6,1.6-2.1,2.6c-0.6,1-1,2.1-1.3,3.3c-0.3,1.3-0.5,2.6-0.5,3.8s0.2,2.4,0.6,3.4c0.4,1,1,1.9,1.9,2.7
		c0.8,0.8,1.9,1.3,3.3,1.7c1,0.3,1.9,0.3,2.8,0.2c0.9-0.1,1.6-0.4,2.4-0.8c0.7-0.4,1.3-1,1.9-1.7c0.5-0.7,0.9-1.5,1.2-2.5l3,0.8
		c-1,2.8-2.6,4.7-4.7,5.9c-2.1,1.2-4.6,1.4-7.5,0.6c-1.8-0.5-3.2-1.2-4.4-2.1s-2-2.1-2.6-3.3c-0.6-1.3-0.9-2.7-1-4.3
		s0.1-3.2,0.5-4.8c0.4-1.7,1.1-3.1,1.9-4.5c0.8-1.3,1.9-2.4,3-3.3c1.2-0.8,2.5-1.4,4-1.7c1.5-0.3,3.1-0.2,4.9,0.3
		c1.2,0.3,2.3,0.8,3.2,1.3c1,0.6,1.8,1.3,2.5,2.1c0.7,0.8,1.2,1.8,1.5,2.8c0.3,1.1,0.4,2.2,0.3,3.5l-3-0.8
		C192.3,12.6,191.8,11.2,190.9,10.1z"/>
	<path id="K1" class="st0" d="M212.7,14.8l-5.3,10.4l15.9-5l3.6,1.8l-13.2,4l2.8,17.1l-3.5-1.8l-2.2-14.4l-5.1,1.5l-3.7,7.3
		l-2.8-1.4l10.6-20.9L212.7,14.8z"/>
	<path id="Y1" class="st0" d="M230,53.3l-2.4-2l6-7.4l1.7-16.5l2.9,2.3l-1.5,13.1l12.3-4.4l2.8,2.2L236,45.9L230,53.3z"/>
	<path id="D1" class="st0" d="M275.3,69.7c1.9,3.1,2.6,5.9,2.1,8.5s-2.4,4.9-5.5,6.9c-1.7,1-3.3,1.8-4.8,2.2c-1.5,0.4-3,0.5-4.3,0.3
		c-1.4-0.2-2.7-0.8-3.9-1.7c-1.2-0.9-2.3-2.2-3.4-3.8l-4.3-6.8L271,62.9L275.3,69.7z M257.8,81c0.2,0.3,0.4,0.7,0.8,1.1
		c0.3,0.4,0.7,0.8,1.2,1.2c0.5,0.4,1.1,0.7,1.7,1s1.4,0.4,2.2,0.5c0.8,0,1.7-0.1,2.8-0.4c1-0.3,2.1-0.8,3.4-1.6
		c1.2-0.7,2.2-1.5,3-2.3s1.3-1.7,1.7-2.6c0.3-0.9,0.4-1.9,0.2-3c-0.2-1-0.7-2.2-1.4-3.4l-2.8-4.4l-15.4,9.7L257.8,81z"/>
	<path id="A1" class="st0" d="M290.4,100.7l-18.9,16.6l-1.2-3.2l5.8-4.8l-3.4-9.3l-7.5-0.1l-1.1-3l25.1,0.6L290.4,100.7z
		 M278.2,107.4l8.9-7.4v-0.1h-11.6L278.2,107.4z"/>
	<path id="Y2" class="st0" d="M274,131.5l-0.5-3.1l9.5-1.5l12.2-11.2l0.6,3.7l-9.9,8.7l12.1,5l0.6,3.5l-15.1-6.6L274,131.5z"/>
	<path id="E1" class="st0" d="M298.3,164.9l-2.6-0.1l0.5-13l-7.4-0.3l-0.5,12.2l-2.6-0.1l0.5-12.2L278,151l-0.6,13.1l-2.6-0.1
		l0.7-16.2l23.4,1L298.3,164.9z"/>
	<path id="L2" class="st0" d="M291,197.4l-19.5-7.1l-4.2,11.7l-2.5-0.9l5.3-14.6l22,8L291,197.4z"/>
	<path id="U2" class="st0" d="M254.5,222.6c-0.4-2.1,0.1-4.5,1.7-7c1.6-2.6,3.4-4.2,5.5-4.9s4.5-0.2,7.2,1.4l12.7,7.8l-1.6,2.7
		l-12.7-7.8c-1.8-1.1-3.4-1.5-4.9-1.1s-2.8,1.5-3.9,3.3c-1,1.7-1.4,3.3-1,4.7c0.4,1.5,1.5,2.7,3.2,3.8l12.7,7.8l-1.6,2.7l-12.7-7.8
		C256.4,226.6,254.9,224.8,254.5,222.6z"/>
	<path id="C2" class="st0" d="M250.2,255.6c1.4-0.3,2.7-1,3.9-2.2c1-1,1.6-2,2-3.1c0.3-1.1,0.4-2.2,0.2-3.2
		c-0.2-1.1-0.6-2.1-1.2-3.1c-0.6-1-1.3-2-2.2-2.8c-0.9-0.9-2-1.7-3-2.3c-1.1-0.6-2.1-1-3.2-1.2c-1.1-0.2-2.2-0.1-3.2,0.3
		c-1.1,0.3-2.1,1-3.1,2c-0.7,0.7-1.2,1.5-1.6,2.3c-0.3,0.8-0.5,1.6-0.4,2.5c0,0.8,0.2,1.7,0.6,2.5c0.4,0.8,0.9,1.6,1.5,2.3l-2.2,2.2
		c-1.9-2.3-2.8-4.6-2.8-7s1.1-4.6,3.2-6.8c1.3-1.3,2.6-2.2,4-2.7s2.8-0.7,4.2-0.6s2.8,0.5,4.2,1.3c1.4,0.7,2.7,1.7,3.9,2.9
		s2.2,2.5,2.9,3.9s1.2,2.8,1.3,4.3c0.1,1.4,0,2.9-0.6,4.3c-0.5,1.4-1.4,2.8-2.7,4.1c-0.9,0.9-1.8,1.6-2.8,2.1s-2,0.9-3.1,1.1
		s-2.1,0.1-3.2-0.1c-1.1-0.3-2.1-0.8-3.1-1.5l2.2-2.2C247.3,255.5,248.8,255.8,250.2,255.6z"/>
	<path id="K2" class="st0" d="M235.2,272.1l-6.3-9.8l-3.6,16.3l-3.4,2.2l3.1-13.3l-16.2-6.1l3.3-2.1l13.5,5.3l1.3-5.2l-4.5-6.9
		l2.6-1.7l12.7,19.6L235.2,272.1z"/>
	<path id="Y3" class="st0" d="M193.2,267.8l2.9-1.1l3.4,8.9l13.4,9.7l-3.5,1.3l-10.5-7.9l-2.4,12.9l-3.3,1.3l3.4-16.1L193.2,267.8z"
		/>
	<path id="D2" class="st0" d="M156.3,298.8c-3.6,0.1-6.4-0.7-8.4-2.4c-2-1.8-3.1-4.5-3.2-8.3c-0.1-2,0.1-3.7,0.5-5.3
		c0.4-1.5,1-2.8,1.9-3.9s2-1.9,3.4-2.5s3.1-0.9,5-1l8-0.3l0.9,23.4L156.3,298.8z M155.3,278c-0.4,0-0.8,0.1-1.3,0.1
		c-0.5,0.1-1.1,0.2-1.7,0.5c-0.6,0.2-1.2,0.6-1.7,1c-0.6,0.4-1.1,1-1.5,1.7s-0.8,1.6-1,2.6c-0.3,1-0.4,2.3-0.3,3.7
		c0.1,1.4,0.2,2.6,0.6,3.7c0.3,1.1,0.8,2,1.5,2.8s1.5,1.3,2.5,1.7c1,0.4,2.2,0.5,3.7,0.5l5.2-0.2l-0.7-18.2L155.3,278z"/>
	<path id="A2" class="st0" d="M121.9,296.3l-4.9-24.7l3.4,0.6l1.3,7.4l9.7,1.7l3.8-6.5l3.1,0.6l-13.1,21.4L121.9,296.3z
		 M122.2,282.4l1.9,11.4h0.1l5.8-10L122.2,282.4z"/>
	<path id="Y4" class="st0" d="M103.5,266.7l2.9,1.1l-3.4,8.9l3.5,16.2l-3.5-1.3l-2.6-12.9l-10.4,8l-3.3-1.3l13.3-9.7L103.5,266.7z"
		/>
	<path id="E2" class="st0" d="M62.4,270.9l1.4-2.2l11,7l4-6.3l-10.3-6.5l1.4-2.2l10.3,6.5l4.3-6.8l-11.1-7.1l1.4-2.2l13.7,8.7
		l-12.6,19.8L62.4,270.9z"/>
	<path id="L3" class="st0" d="M37.9,248.4L53.8,235l-8-9.5l2-1.7l10,11.9l-17.9,15.1L37.9,248.4z"/>
	<path id="U3" class="st0" d="M34.4,204.1c2.1,0.7,3.8,2.3,5.2,4.9c1.4,2.7,1.9,5.1,1.5,7.2c-0.5,2.2-2.1,4-4.8,5.5l-13.2,7.1
		l-1.5-2.7l13.2-7.1c1.8-1,3-2.2,3.4-3.7s0.1-3.2-0.9-5c-0.9-1.8-2.1-2.8-3.6-3.2c-1.4-0.4-3.1-0.1-4.9,0.9l-13.2,7l-1.5-2.7
		l13.2-7.1C30,203.8,32.3,203.4,34.4,204.1z"/>
	<path id="C3" class="st0" d="M8.1,183.7c-0.5,1.4-0.5,2.8-0.1,4.4c0.4,1.4,0.9,2.4,1.7,3.3c0.8,0.8,1.7,1.4,2.7,1.8
		s2.1,0.6,3.3,0.6s2.4-0.1,3.5-0.5c1.3-0.3,2.5-0.8,3.5-1.4c1.1-0.6,2-1.3,2.7-2.2c0.7-0.8,1.2-1.8,1.4-2.9c0.3-1.1,0.2-2.3-0.2-3.7
		c-0.3-1-0.7-1.8-1.2-2.5s-1.2-1.2-1.9-1.6c-0.7-0.4-1.5-0.7-2.4-0.8s-1.8-0.1-2.8,0.1l-0.8-3c2.9-0.5,5.4-0.1,7.4,1.2
		s3.4,3.3,4.2,6.2c0.5,1.8,0.6,3.4,0.3,4.8s-0.8,2.8-1.6,3.9c-0.8,1.1-1.9,2.1-3.2,2.9c-1.3,0.8-2.8,1.4-4.5,1.9
		c-1.6,0.4-3.3,0.6-4.8,0.5c-1.6-0.1-3-0.4-4.3-1s-2.5-1.5-3.4-2.7c-1-1.2-1.7-2.6-2.1-4.4c-0.3-1.2-0.4-2.3-0.4-3.5
		c0-1.1,0.3-2.2,0.7-3.2c0.4-1,1-1.9,1.8-2.7s1.7-1.4,2.9-1.9l0.8,3C9.6,181.3,8.6,182.3,8.1,183.7z"/>
	<path id="K3" class="st0" d="M1.3,162.7l11.7-0.6L0.6,150.9l-0.2-4l9.9,9.4l13.4-11l0.2,3.9l-11.4,9.1l3.8,3.7l8.2-0.4l0.2,3.1
		l-23.4,1.2L1.3,162.7z"/>
	<path id="Y5" class="st0" d="M26,128.5l-0.5,3.1l-9.5-1.5l-15,6.7l0.6-3.7l12.1-5.2l-9.9-8.5l0.6-3.5l12.2,11L26,128.5z"/>
	<path id="D3" class="st0" d="M17.7,81c1.7-3.2,3.8-5.2,6.3-6.1s5.5-0.4,8.8,1.4c1.7,0.9,3.2,1.9,4.3,3s2,2.3,2.4,3.6
		c0.5,1.3,0.6,2.7,0.5,4.2c-0.2,1.5-0.7,3.1-1.6,4.8L34.6,99L14,88.1L17.7,81z M36.2,90.5c0.2-0.3,0.3-0.7,0.5-1.2s0.3-1,0.4-1.7
		c0.1-0.6,0.1-1.3,0-2s-0.3-1.4-0.7-2.1s-1-1.5-1.7-2.2c-0.8-0.7-1.8-1.4-3.1-2.1c-1.2-0.7-2.4-1.1-3.5-1.4S26,77.5,25,77.7
		c-1,0.2-1.9,0.6-2.7,1.3c-0.8,0.7-1.6,1.7-2.2,2.9l-2.5,4.6l16,8.5L36.2,90.5z"/>
	<path id="A3" class="st0" d="M37.1,52.5l23.8,8.1l-2.2,2.6l-7-2.6l-6.4,7.6l3.7,6.5l-2,2.4L35,55L37.1,52.5z M49,59.7l-10.9-4.1
		v0.1l5.8,10.1L49,59.7z"/>
	<path id="Y6" class="st0" d="M71.9,51.4l-2.4,2l-6-7.4l-15.7-5l2.9-2.3l12.5,4.2l-1.7-13l2.7-2.2L65.9,44L71.9,51.4z"/>
	<path id="E3" class="st0" d="M88.8,13.7L90,16l-11.6,6l3.4,6.6L92.6,23l1.2,2.3L83.1,31l3.7,7.2l11.7-6l1.2,2.3L85.3,42L74.5,21.2
		L88.8,13.7z"/>
</g>
<g id="g1">
	<polygon id="polygon1" class="st1" points="164.7,88.2 123,124.3 83.5,124.3 83.5,170.8 122.4,170.8 164.7,207.4 	"/>
	<path id="path1" class="st2" d="M186,174c4.7-7.5,7.4-16.4,7.4-25.9c0-9.7-2.8-18.7-7.7-26.3"/>
	<path id="path2" class="st2" d="M202.9,104.7c9,12.1,14.3,27.1,14.3,43.4c0,16.1-5.2,31-14.1,43"/>
</g>
</svg>
