<svg width="693" height="392" viewBox="0 0 693 392" fill="none" xmlns="http://www.w3.org/2000/svg">
<path d="M136.538 212.898C131.777 226.32 125.924 235.982 123.855 239.511C118.688 248.336 115.998 255.007 110.741 268.001C106.505 278.494 104.356 283.899 102.971 291.848C102.84 292.592 102.306 299.14 101.226 312.219C100.749 317.991 100.522 321.072 101.258 325.318C101.789 328.361 102.38 329.481 103.47 334.691C104.734 340.733 104.298 340.914 105.105 344.303C106.041 348.253 107.938 356.308 114.464 360.769C115.932 361.773 118.719 363.623 122.263 363.184C122.891 363.102 126.186 362.63 128.057 359.983C129.352 358.141 129.361 356.109 129.363 355.253C129.425 348.171 130.601 341.129 130.586 334.044C130.56 318.61 131.169 320.088 130.83 312.111C130.73 309.869 130.61 308.008 130.923 305.284C131.495 300.301 132.809 298.768 134.285 292.464C135.233 288.414 134.817 288.525 135.827 283.684C136.983 278.133 138.325 274.168 139.015 272.067C144.082 256.599 143.579 250.462 148.631 237.871C152.022 229.405 153.672 228.643 157.159 221.434C157.31 221.117 157.798 220.12 157.997 220.183C158.394 220.307 157.377 224.503 156.832 226.888C156.832 226.888 156.753 227.245 153.958 242.783C151.299 257.587 153.171 275.213 153.768 280.863C154.814 290.651 155.811 292.016 156.255 301.206C156.574 307.909 156.202 310.443 157.428 315.418C159.119 322.268 162.319 327.491 163.785 329.848C171.203 341.775 171.148 342.288 171.798 346.08C172.847 352.218 171.184 357.483 169.346 363.268C166.891 371.049 164.346 373.32 163.853 380.478C163.63 383.716 163.37 388.322 166.227 390.239C168.097 391.497 170.773 391.226 172.592 390.311C174.724 389.232 175.8 387.212 176.847 384.245C178.894 378.449 179.051 374.093 179.477 370.481C179.817 367.622 181.368 362.604 184.455 352.581C188.154 340.6 189.242 339.024 190.584 337.707C193.788 334.568 196.556 334.735 204.659 332.651C216.022 329.728 223.31 326.12 234.383 320.635C244.167 315.796 245.777 313.899 246.737 311.996C250.016 305.481 251.655 302.213 251.987 299.633C252.027 299.299 252.152 298.192 252.91 297.773C253.955 297.201 258.827 298.956 259.295 299.051C262.976 299.818 270.103 299.298 277.146 297.537C278.951 297.083 285.572 294.359 290.852 288.336C293 285.891 293.665 283.829 293.917 281.255C294.154 278.879 294.019 277.48 294.777 274.151C295.141 272.558 295.317 271.043 295.361 270.604C295.827 266.044 290.615 251.248 289.07 248.207C282.63 235.514 279.296 229.457 276.371 225.555C271.308 218.795 267.171 211.423 258.531 206.529C242.986 197.718 237.996 196.626 237.996 196.626C237.016 196.329 233.861 195.399 233.93 194.473C234.005 193.511 236.886 193.403 237.745 193.377C241.023 193.277 249.05 195.563 252.66 195.96C255.129 196.237 268.287 197.618 275.487 198.268C283.261 198.969 289.877 198.716 297.537 197.209C299.553 196.812 303.125 195.976 304.532 197.696C305.815 199.266 303.689 202.343 303.558 206.612C303.523 207.737 303.696 214.605 308.124 216.897C310.463 218.104 317.402 216.524 320.255 213.434C321.502 212.088 322.505 209.347 324.522 203.859C326.368 198.836 326.307 198.013 327.706 195.755C329.362 193.059 330.062 193.231 332.623 189.642C335.327 185.849 335.022 185.003 336.837 182.917C339.516 179.824 341.908 180.051 345.198 177.745C347.281 176.286 353.62 170.155 355.063 165.043C357.243 157.364 352.95 149.801 350.76 147.166C349.396 145.532 343.962 137.568 335.988 132.598C329.09 128.304 321.367 125.541 319.903 124.976C311.302 121.646 304.994 120.06 300.869 121.388C297.336 122.532 293.342 123.281 291.401 123.64C290.368 123.828 288.769 124.065 287.571 124.204C285.696 124.425 281.879 126.922 281.144 126.434C279.794 125.546 286.432 113.316 292.35 100.4C297.913 88.2719 297.21 86.4049 297.366 84.9602C298.659 73.3999 293.773 64.2492 292.131 61.5377C289.813 57.7003 281.578 47.4232 275.011 44.717C265.844 40.9394 256.559 45.2534 251.289 47.0642C242.354 50.1297 237.181 54.4246 228.634 61.8467C224.14 65.7493 221.089 68.9419 217.69 72.5069C210.433 80.1101 203.943 88.6914 203.179 89.7885C200.504 93.6522 199.271 96.6203 194.424 104.905C190.58 111.49 188.04 115.808 187.157 115.561C186.249 115.304 186.085 112.627 187.424 105.594C189.973 92.2142 187.458 88.1204 189.087 78.276C189.653 74.8677 190.047 74.1245 190.652 69.817C190.863 68.3361 191.562 63.1133 191.608 56.6378C191.668 48.9217 189.897 42.077 188.428 33.0786C187.372 26.6263 175.534 12.839 172.943 10.8948C172.31 10.4197 170.58 9.6486 169.148 8.74691C166.254 6.92149 167.313 4.94312 165.101 2.55153C162.947 0.232457 160.861 -0.266612 155.624 0.116577C151.288 0.442614 145.579 0.573241 139.722 4.11836C138.487 4.86584 136.33 8.4459 134.422 10.7562C129.877 16.2735 126.405 24.8423 126.268 25.2923C123.992 32.9912 123.854 37.3255 120.253 43.9817C119.068 46.171 117.079 45.5559 116.583 45.5071C113.789 45.2127 113.281 40.4367 109.079 37.8581C99.0929 31.7374 102.458 33.8638 94.6885 32.0158C92.9286 31.6022 90.6423 31.6143 87.8547 32.2279C79.5956 34.0533 72.4115 35.6595 67.6134 38.0054C57.923 42.7365 54.0866 42.1098 42.6757 50.0461C40.2186 51.7502 37.9583 56.9042 37.0109 63.3199C35.3463 74.5518 33.6195 86.1476 39.5454 95.97C40.2088 97.0808 43.3399 100.484 49.5819 107.292C56.728 115.075 58.2601 116.184 59.3641 116.911C63.0921 119.363 65.3725 119.767 69.0928 123.16C70.0714 124.05 74.48 128.067 73.6142 129.648C72.7875 131.157 67.6092 129.647 64.6184 128.979C47.916 125.222 32.1064 132.358 29.4463 133.609C16.2684 139.824 9.62723 150.641 7.79591 153.713C4.32048 159.544 -2.83277 171.533 1.19676 185.247C1.94968 187.797 4.93224 196.718 13.1568 202.074C14.9394 203.237 17.1377 204.338 37.0392 209.014C46.8255 211.313 50.9879 212.143 51.5517 214.702C52.0065 216.769 50.5077 218.371 45.8993 223.687C38.8699 231.803 35.5049 238.644 34.7827 240.254C32.6429 245.069 31.0955 248.871 31.6347 253.903C32.2038 259.289 33.8258 259.09 35.0422 265.366C36.4862 272.815 35.637 277.1 36.1371 280.334C36.8277 284.786 42.4004 285.836 42.8157 285.988C48.1303 287.925 60.1202 283.197 64.7657 282.073C68.8155 281.094 70.3546 280.15 72.5289 278.778C76.303 276.409 76.8412 273.612 80.5484 269.892C83.7586 266.668 86.5834 265.514 89.0376 264.101C92.6362 262.04 95.5515 259.366 110.046 238.504C117.327 228.028 119.205 224.937 124.26 218.822C127.177 215.291 135.782 204.865 137.66 206.058C138.602 206.728 137.602 209.889 136.538 212.898Z" fill="#FFF0C8" fill-opacity="0.2"/>
<path d="M147.72 219.169H193.62V201.169C189.12 211.469 180.72 215.469 159.72 215.969V149.169H147.72V219.169Z" fill="#FFD057"/>
<path d="M196.451 189.469C196.451 208.769 208.251 221.669 225.951 221.669C241.951 221.669 250.751 210.369 250.751 189.169V149.169H232.751C240.851 157.269 247.751 173.069 247.751 190.169C247.751 207.469 240.751 219.169 227.451 219.169C215.451 219.169 208.451 209.669 208.451 193.269V149.169H196.451V189.469Z" fill="#FFD057"/>
<path d="M292.005 221.669C312.705 221.669 324.105 203.969 324.105 203.969L321.605 202.069C321.605 202.069 312.605 213.069 299.305 213.069C281.805 213.069 266.105 194.769 266.105 172.069C266.105 158.569 275.005 150.069 285.505 150.069C300.605 150.069 314.505 166.269 314.505 166.369L321.705 156.869C321.705 156.669 309.305 146.669 292.605 146.669C271.605 146.669 255.705 162.669 255.705 184.469C255.705 205.969 272.005 221.669 292.005 221.669Z" fill="#FFD057"/>
<path d="M340.58 219.169V184.169L367.18 219.169H379.18L348.38 178.769L373.78 149.169H355.78C359.18 163.069 349.08 174.169 340.58 184.169V149.169H328.58V219.169H340.58Z" fill="#FFD057"/>
<path d="M400.387 191.269V219.169H412.387V191.269L436.487 149.169H418.987C425.787 160.569 415.687 179.869 410.887 188.669L388.287 149.169H376.287L400.387 191.269Z" fill="#FFD057"/>
<path d="M465.494 149.169V219.169H490.094C506.094 219.169 524.794 210.469 524.794 184.169C524.794 157.869 506.294 149.169 490.294 149.169H465.494ZM487.094 152.169C503.294 152.169 512.794 162.269 512.794 184.169C512.794 206.069 503.294 216.369 487.094 216.369H477.494V152.169H487.094Z" fill="#FFD057"/>
<path d="M542.029 219.169C538.729 213.669 537.229 206.569 537.429 198.369L564.129 198.469L571.129 219.169H583.129L559.629 149.169H547.629L524.029 219.169H542.029ZM537.629 195.669C538.029 189.169 539.529 182.069 542.029 174.669C544.229 168.269 547.329 158.969 549.129 153.569L563.229 195.669H537.629Z" fill="#FFD057"/>
<path d="M594.625 191.269V219.169H606.625V191.269L630.725 149.169H613.225C620.025 160.569 609.925 179.869 605.125 188.669L582.525 149.169H570.525L594.625 191.269Z" fill="#FFD057"/>
<path d="M634.732 219.169H684.632V201.169C679.732 212.469 668.132 215.669 646.732 216.069V183.669L669.632 186.669V180.669H646.732V152.269C668.132 152.669 679.732 155.869 684.632 167.169V149.169H634.732V219.169Z" fill="#FFD057"/>
<path d="M156.66 280C155.472 278.02 154.932 275.464 155.004 272.512L164.616 272.548L167.136 280H171.456L162.996 254.8H158.676L150.18 280H156.66ZM155.076 271.54C155.22 269.2 155.76 266.644 156.66 263.98C157.452 261.676 158.568 258.328 159.216 256.384L164.292 271.54H155.076ZM179.001 280H183.321V269.776H187.461C192.789 269.776 196.353 266.644 196.353 262.216C196.353 257.788 193.149 254.8 188.325 254.8H179.001V280ZM186.381 255.88C189.837 255.88 192.033 258.22 192.033 262.396C192.033 266.572 189.837 268.696 186.381 268.696H183.321V255.88H186.381ZM204.461 280H208.781V269.164H210.149L218.681 280H223.001L214.433 269.092C219.401 268.552 221.813 265.276 221.813 261.928C221.813 258.256 219.221 254.8 213.389 254.8H204.461V280ZM212.129 255.88C215.189 255.88 217.493 258.364 217.493 261.676C217.493 264.988 215.261 268.084 212.201 268.084H208.781V255.88H212.129ZM230.73 280H235.05V254.8H230.73V280ZM243.499 280H260.023V273.52C258.403 277.228 255.379 278.668 247.819 278.848V254.8H243.499V280ZM282.875 280H303.575V273.52C302.207 276.688 289.931 277.084 284.927 277.12C288.131 269.74 303.251 267.94 303.251 260.308C303.251 256.852 300.155 253.9 294.107 253.9C287.735 253.9 284.351 257.644 284.351 257.644L285.143 258.508C285.143 258.508 288.707 254.8 293.495 254.8C296.987 254.8 298.931 256.6 298.931 258.94C298.931 265.528 282.875 271.468 282.875 280ZM311.148 280H331.848V273.52C330.48 276.688 318.204 277.084 313.2 277.12C316.404 269.74 331.524 267.94 331.524 260.308C331.524 256.852 328.428 253.9 322.38 253.9C316.008 253.9 312.624 257.644 312.624 257.644L313.416 258.508C313.416 258.508 316.98 254.8 321.768 254.8C325.26 254.8 327.204 256.6 327.204 258.94C327.204 265.528 311.148 271.468 311.148 280ZM339.888 282.952C342.588 282.952 344.496 280.792 344.46 277.732H341.4C341.436 280.648 340.716 281.584 339.888 281.584V282.952ZM367.7 280H388.4V273.52C387.032 276.688 374.756 277.084 369.752 277.12C372.956 269.74 388.076 267.94 388.076 260.308C388.076 256.852 384.98 253.9 378.932 253.9C372.56 253.9 369.176 257.644 369.176 257.644L369.968 258.508C369.968 258.508 373.532 254.8 378.32 254.8C381.812 254.8 383.756 256.6 383.756 258.94C383.756 265.528 367.7 271.468 367.7 280ZM408.357 280.9C415.089 280.9 419.697 275.284 419.697 267.328C419.697 259.408 415.161 253.9 408.213 253.9C401.265 253.9 396.873 259.48 396.873 267.472C396.873 275.428 401.625 280.9 408.357 280.9ZM401.193 267.328C401.193 259.948 404.037 254.8 408.357 254.8C412.641 254.8 415.377 260.02 415.377 267.472C415.377 274.888 412.533 280 408.213 280C403.929 280 401.193 274.744 401.193 267.328ZM427.972 280H448.672V273.52C447.304 276.688 435.028 277.084 430.024 277.12C433.228 269.74 448.348 267.94 448.348 260.308C448.348 256.852 445.252 253.9 439.204 253.9C432.832 253.9 429.448 257.644 429.448 257.644L430.24 258.508C430.24 258.508 433.804 254.8 438.592 254.8C442.084 254.8 444.028 256.6 444.028 258.94C444.028 265.528 427.972 271.468 427.972 280ZM456.245 280H476.945V273.52C475.577 276.688 463.301 277.084 458.297 277.12C461.501 269.74 476.621 267.94 476.621 260.308C476.621 256.852 473.525 253.9 467.477 253.9C461.105 253.9 457.721 257.644 457.721 257.644L458.513 258.508C458.513 258.508 462.077 254.8 466.865 254.8C470.357 254.8 472.301 256.6 472.301 258.94C472.301 265.528 456.245 271.468 456.245 280Z" fill="#C6905E"/>
<path d="M156.66 280V280.25H157.102L156.874 279.871L156.66 280ZM155.004 272.512L155.005 272.262L154.76 272.261L154.754 272.506L155.004 272.512ZM164.616 272.548L164.853 272.468L164.796 272.299L164.617 272.298L164.616 272.548ZM167.136 280L166.899 280.08L166.957 280.25H167.136V280ZM171.456 280V280.25H171.804L171.693 279.92L171.456 280ZM162.996 254.8L163.233 254.72L163.176 254.55H162.996V254.8ZM158.676 254.8V254.55H158.496L158.439 254.72L158.676 254.8ZM150.18 280L149.943 279.92L149.832 280.25H150.18V280ZM155.076 271.54L154.826 271.525L154.81 271.79H155.076V271.54ZM156.66 263.98L156.424 263.899L156.423 263.9L156.66 263.98ZM159.216 256.384L159.453 256.305L159.215 255.595L158.979 256.305L159.216 256.384ZM164.292 271.54V271.79H164.639L164.529 271.461L164.292 271.54ZM156.874 279.871C155.718 277.944 155.183 275.439 155.254 272.518L154.754 272.506C154.681 275.489 155.226 278.096 156.446 280.129L156.874 279.871ZM155.003 272.762L164.615 272.798L164.617 272.298L155.005 272.262L155.003 272.762ZM164.379 272.628L166.899 280.08L167.373 279.92L164.853 272.468L164.379 272.628ZM167.136 280.25H171.456V279.75H167.136V280.25ZM171.693 279.92L163.233 254.72L162.759 254.88L171.219 280.08L171.693 279.92ZM162.996 254.55H158.676V255.05H162.996V254.55ZM158.439 254.72L149.943 279.92L150.417 280.08L158.913 254.88L158.439 254.72ZM150.18 280.25H156.66V279.75H150.18V280.25ZM155.326 271.555C155.468 269.242 156.002 266.708 156.897 264.06L156.423 263.9C155.518 266.58 154.972 269.158 154.826 271.525L155.326 271.555ZM156.896 264.061C157.689 261.756 158.805 258.407 159.453 256.463L158.979 256.305C158.331 258.249 157.215 261.596 156.424 263.899L156.896 264.061ZM158.979 256.463L164.055 271.619L164.529 271.461L159.453 256.305L158.979 256.463ZM164.292 271.29H155.076V271.79H164.292V271.29ZM179.001 280H178.751V280.25H179.001V280ZM183.321 280V280.25H183.571V280H183.321ZM183.321 269.776V269.526H183.071V269.776H183.321ZM179.001 254.8V254.55H178.751V254.8H179.001ZM183.321 268.696H183.071V268.946H183.321V268.696ZM183.321 255.88V255.63H183.071V255.88H183.321ZM179.001 280.25H183.321V279.75H179.001V280.25ZM183.571 280V269.776H183.071V280H183.571ZM183.321 270.026H187.461V269.526H183.321V270.026ZM187.461 270.026C190.173 270.026 192.457 269.229 194.068 267.846C195.681 266.461 196.603 264.502 196.603 262.216H196.103C196.103 264.358 195.243 266.179 193.742 267.467C192.239 268.757 190.077 269.526 187.461 269.526V270.026ZM196.603 262.216C196.603 259.939 195.778 258.016 194.318 256.664C192.86 255.314 190.789 254.55 188.325 254.55V255.05C190.686 255.05 192.628 255.78 193.978 257.031C195.327 258.28 196.103 260.065 196.103 262.216H196.603ZM188.325 254.55H179.001V255.05H188.325V254.55ZM178.751 254.8V280H179.251V254.8H178.751ZM186.381 256.13C188.05 256.13 189.39 256.693 190.316 257.738C191.245 258.786 191.783 260.35 191.783 262.396H192.283C192.283 260.266 191.723 258.572 190.69 257.406C189.654 256.237 188.168 255.63 186.381 255.63V256.13ZM191.783 262.396C191.783 264.442 191.245 265.948 190.32 266.942C189.397 267.932 188.057 268.446 186.381 268.446V268.946C188.161 268.946 189.647 268.398 190.686 267.282C191.723 266.17 192.283 264.526 192.283 262.396H191.783ZM186.381 268.446H183.321V268.946H186.381V268.446ZM183.571 268.696V255.88H183.071V268.696H183.571ZM183.321 256.13H186.381V255.63H183.321V256.13ZM204.461 280H204.211V280.25H204.461V280ZM208.781 280V280.25H209.031V280H208.781ZM208.781 269.164V268.914H208.531V269.164H208.781ZM210.149 269.164L210.346 269.009L210.271 268.914H210.149V269.164ZM218.681 280L218.485 280.155L218.56 280.25H218.681V280ZM223.001 280V280.25H223.516L223.198 279.846L223.001 280ZM214.433 269.092L214.406 268.843L213.958 268.892L214.237 269.246L214.433 269.092ZM204.461 254.8V254.55H204.211V254.8H204.461ZM208.781 268.084H208.531V268.334H208.781V268.084ZM208.781 255.88V255.63H208.531V255.88H208.781ZM204.461 280.25H208.781V279.75H204.461V280.25ZM209.031 280V269.164H208.531V280H209.031ZM208.781 269.414H210.149V268.914H208.781V269.414ZM209.953 269.319L218.485 280.155L218.878 279.845L210.346 269.009L209.953 269.319ZM218.681 280.25H223.001V279.75H218.681V280.25ZM223.198 279.846L214.63 268.938L214.237 269.246L222.805 280.154L223.198 279.846ZM214.46 269.341C219.545 268.788 222.063 265.413 222.063 261.928H221.563C221.563 265.139 219.257 268.316 214.406 268.843L214.46 269.341ZM222.063 261.928C222.063 260.033 221.394 258.183 219.961 256.807C218.528 255.43 216.355 254.55 213.389 254.55V255.05C216.255 255.05 218.294 255.898 219.615 257.167C220.937 258.437 221.563 260.151 221.563 261.928H222.063ZM213.389 254.55H204.461V255.05H213.389V254.55ZM204.211 254.8V280H204.711V254.8H204.211ZM212.129 256.13C215.033 256.13 217.243 258.484 217.243 261.676H217.743C217.743 258.244 215.345 255.63 212.129 255.63V256.13ZM217.243 261.676C217.243 264.908 215.072 267.834 212.201 267.834V268.334C215.451 268.334 217.743 265.068 217.743 261.676H217.243ZM212.201 267.834H208.781V268.334H212.201V267.834ZM209.031 268.084V255.88H208.531V268.084H209.031ZM208.781 256.13H212.129V255.63H208.781V256.13ZM230.73 280H230.48V280.25H230.73V280ZM235.05 280V280.25H235.3V280H235.05ZM235.05 254.8H235.3V254.55H235.05V254.8ZM230.73 254.8V254.55H230.48V254.8H230.73ZM230.73 280.25H235.05V279.75H230.73V280.25ZM235.3 280V254.8H234.8V280H235.3ZM235.05 254.55H230.73V255.05H235.05V254.55ZM230.48 254.8V280H230.98V254.8H230.48ZM243.499 280H243.249V280.25H243.499V280ZM260.023 280V280.25H260.273V280H260.023ZM260.023 273.52H260.273L259.794 273.42L260.023 273.52ZM247.819 278.848H247.569V279.104L247.825 279.098L247.819 278.848ZM247.819 254.8H248.069V254.55H247.819V254.8ZM243.499 254.8V254.55H243.249V254.8H243.499ZM243.499 280.25H260.023V279.75H243.499V280.25ZM260.273 280V273.52H259.773V280H260.273ZM259.794 273.42C259.006 275.223 257.887 276.461 256.047 277.279C254.19 278.104 251.585 278.508 247.813 278.598L247.825 279.098C251.613 279.008 254.3 278.602 256.25 277.735C258.217 276.861 259.42 275.525 260.252 273.62L259.794 273.42ZM248.069 278.848V254.8H247.569V278.848H248.069ZM247.819 254.55H243.499V255.05H247.819V254.55ZM243.249 254.8V280H243.749V254.8H243.249ZM282.875 280H282.625V280.25H282.875V280ZM303.575 280V280.25H303.825V280H303.575ZM303.575 273.52H303.825L303.346 273.421L303.575 273.52ZM284.927 277.12L284.698 277.02L284.545 277.373L284.929 277.37L284.927 277.12ZM284.351 257.644L284.166 257.476L284.013 257.645L284.167 257.813L284.351 257.644ZM285.143 258.508L284.959 258.677L285.139 258.873L285.323 258.681L285.143 258.508ZM282.875 280.25H303.575V279.75H282.875V280.25ZM303.825 280V273.52H303.325V280H303.825ZM303.346 273.421C303.201 273.756 302.902 274.075 302.449 274.374C301.996 274.672 301.407 274.94 300.708 275.177C299.309 275.653 297.509 275.998 295.583 276.247C291.732 276.744 287.425 276.852 284.925 276.87L284.929 277.37C287.434 277.352 291.766 277.244 295.647 276.742C297.586 276.492 299.424 276.142 300.868 275.651C301.591 275.405 302.224 275.121 302.724 274.791C303.223 274.462 303.607 274.076 303.805 273.619L303.346 273.421ZM285.156 277.22C285.931 275.436 287.434 273.972 289.287 272.657C291.14 271.341 293.314 270.195 295.412 269.027C297.5 267.865 299.516 266.681 301.008 265.3C302.506 263.916 303.501 262.31 303.501 260.308H303.001C303.001 262.122 302.107 263.603 300.669 264.933C299.226 266.268 297.261 267.426 295.169 268.59C293.087 269.749 290.88 270.913 288.997 272.249C287.114 273.585 285.525 275.114 284.698 277.02L285.156 277.22ZM303.501 260.308C303.501 258.499 302.688 256.825 301.099 255.609C299.514 254.397 297.169 253.65 294.107 253.65V254.15C297.093 254.15 299.32 254.879 300.795 256.007C302.266 257.131 303.001 258.661 303.001 260.308H303.501ZM294.107 253.65C290.87 253.65 288.389 254.601 286.716 255.555C285.88 256.031 285.245 256.508 284.818 256.868C284.605 257.047 284.443 257.198 284.334 257.304C284.28 257.357 284.239 257.399 284.21 257.429C284.196 257.443 284.186 257.455 284.178 257.463C284.174 257.467 284.171 257.47 284.169 257.472C284.168 257.473 284.168 257.474 284.167 257.475C284.167 257.475 284.166 257.476 284.166 257.476C284.166 257.476 284.166 257.476 284.166 257.476C284.166 257.476 284.166 257.476 284.351 257.644C284.537 257.812 284.537 257.812 284.537 257.812C284.537 257.812 284.536 257.812 284.536 257.812C284.536 257.812 284.537 257.812 284.537 257.812C284.537 257.811 284.537 257.811 284.538 257.81C284.539 257.809 284.541 257.807 284.544 257.804C284.55 257.797 284.559 257.788 284.571 257.775C284.596 257.75 284.633 257.711 284.684 257.662C284.785 257.564 284.937 257.422 285.141 257.25C285.547 256.908 286.157 256.449 286.963 255.989C288.575 255.071 290.972 254.15 294.107 254.15V253.65ZM284.167 257.813L284.959 258.677L285.327 258.339L284.535 257.475L284.167 257.813ZM285.143 258.508C285.323 258.681 285.323 258.681 285.323 258.681C285.323 258.681 285.323 258.681 285.323 258.681C285.323 258.681 285.323 258.681 285.324 258.681C285.324 258.681 285.324 258.68 285.325 258.68C285.327 258.678 285.329 258.676 285.332 258.673C285.338 258.666 285.348 258.656 285.361 258.644C285.387 258.618 285.426 258.579 285.478 258.53C285.582 258.431 285.736 258.29 285.937 258.119C286.338 257.778 286.923 257.322 287.656 256.866C289.123 255.953 291.165 255.05 293.495 255.05V254.55C291.038 254.55 288.903 255.501 287.392 256.442C286.634 256.913 286.029 257.384 285.613 257.738C285.405 257.915 285.243 258.063 285.134 258.167C285.079 258.219 285.037 258.261 285.008 258.289C284.994 258.303 284.983 258.315 284.975 258.322C284.971 258.326 284.968 258.329 284.966 258.331C284.965 258.332 284.965 258.333 284.964 258.334C284.964 258.334 284.963 258.334 284.963 258.334C284.963 258.334 284.963 258.335 284.963 258.335C284.963 258.335 284.963 258.335 285.143 258.508ZM293.495 255.05C295.2 255.05 296.499 255.489 297.366 256.187C298.229 256.882 298.681 257.845 298.681 258.94H299.181C299.181 257.695 298.662 256.588 297.679 255.798C296.701 255.011 295.282 254.55 293.495 254.55V255.05ZM298.681 258.94C298.681 260.487 297.736 262.033 296.239 263.64C294.747 265.242 292.757 266.856 290.742 268.55C288.736 270.236 286.712 271.998 285.19 273.879C283.667 275.76 282.625 277.786 282.625 280H283.125C283.125 277.948 284.09 276.032 285.578 274.194C287.066 272.355 289.056 270.621 291.064 268.932C293.064 267.251 295.087 265.611 296.605 263.98C298.119 262.354 299.181 260.687 299.181 258.94H298.681ZM311.148 280H310.898V280.25H311.148V280ZM331.848 280V280.25H332.098V280H331.848ZM331.848 273.52H332.098L331.618 273.421L331.848 273.52ZM313.2 277.12L312.97 277.02L312.818 277.373L313.202 277.37L313.2 277.12ZM312.624 257.644L312.438 257.476L312.286 257.645L312.44 257.813L312.624 257.644ZM313.416 258.508L313.232 258.677L313.411 258.873L313.596 258.681L313.416 258.508ZM311.148 280.25H331.848V279.75H311.148V280.25ZM332.098 280V273.52H331.598V280H332.098ZM331.618 273.421C331.474 273.756 331.175 274.075 330.721 274.374C330.269 274.672 329.679 274.94 328.98 275.177C327.582 275.653 325.782 275.998 323.855 276.247C320.005 276.744 315.697 276.852 313.198 276.87L313.202 277.37C315.706 277.352 320.039 277.244 323.919 276.742C325.859 276.492 327.697 276.142 329.141 275.651C329.863 275.405 330.496 275.121 330.997 274.791C331.496 274.462 331.88 274.076 332.077 273.619L331.618 273.421ZM313.429 277.22C314.204 275.436 315.706 273.972 317.559 272.657C319.413 271.341 321.587 270.195 323.685 269.027C325.773 267.865 327.789 266.681 329.281 265.3C330.778 263.916 331.774 262.31 331.774 260.308H331.274C331.274 262.122 330.379 263.603 328.942 264.933C327.499 266.268 325.534 267.426 323.442 268.59C321.36 269.749 319.152 270.913 317.27 272.249C315.387 273.585 313.798 275.114 312.97 277.02L313.429 277.22ZM331.774 260.308C331.774 258.499 330.961 256.825 329.372 255.609C327.787 254.397 325.442 253.65 322.38 253.65V254.15C325.366 254.15 327.593 254.879 329.068 256.007C330.539 257.131 331.274 258.661 331.274 260.308H331.774ZM322.38 253.65C319.143 253.65 316.662 254.601 314.989 255.555C314.152 256.031 313.518 256.508 313.091 256.868C312.878 257.047 312.716 257.198 312.607 257.304C312.553 257.357 312.511 257.399 312.483 257.429C312.469 257.443 312.458 257.455 312.451 257.463C312.447 257.467 312.444 257.47 312.442 257.472C312.441 257.473 312.44 257.474 312.44 257.475C312.439 257.475 312.439 257.476 312.439 257.476C312.439 257.476 312.439 257.476 312.439 257.476C312.438 257.476 312.438 257.476 312.624 257.644C312.809 257.812 312.809 257.812 312.809 257.812C312.809 257.812 312.809 257.812 312.809 257.812C312.809 257.812 312.809 257.812 312.809 257.812C312.809 257.811 312.81 257.811 312.811 257.81C312.812 257.809 312.814 257.807 312.817 257.804C312.822 257.797 312.831 257.788 312.844 257.775C312.868 257.75 312.906 257.711 312.956 257.662C313.057 257.564 313.21 257.422 313.413 257.25C313.82 256.908 314.43 256.449 315.236 255.989C316.848 255.071 319.245 254.15 322.38 254.15V253.65ZM312.44 257.813L313.232 258.677L313.6 258.339L312.808 257.475L312.44 257.813ZM313.416 258.508C313.596 258.681 313.596 258.681 313.596 258.681C313.596 258.681 313.596 258.681 313.596 258.681C313.596 258.681 313.596 258.681 313.596 258.681C313.597 258.681 313.597 258.68 313.598 258.68C313.599 258.678 313.601 258.676 313.605 258.673C313.611 258.666 313.62 258.656 313.633 258.644C313.659 258.618 313.699 258.579 313.75 258.53C313.854 258.431 314.009 258.29 314.209 258.119C314.611 257.778 315.196 257.322 315.928 256.866C317.396 255.953 319.437 255.05 321.768 255.05V254.55C319.31 254.55 317.176 255.501 315.664 256.442C314.907 256.913 314.302 257.384 313.886 257.738C313.677 257.915 313.516 258.063 313.406 258.167C313.351 258.219 313.309 258.261 313.281 258.289C313.266 258.303 313.255 258.315 313.248 258.322C313.244 258.326 313.241 258.329 313.239 258.331C313.238 258.332 313.237 258.333 313.237 258.334C313.236 258.334 313.236 258.334 313.236 258.334C313.236 258.334 313.236 258.335 313.236 258.335C313.236 258.335 313.236 258.335 313.416 258.508ZM321.768 255.05C323.473 255.05 324.772 255.489 325.639 256.187C326.501 256.882 326.954 257.845 326.954 258.94H327.454C327.454 257.695 326.934 256.588 325.952 255.798C324.974 255.011 323.555 254.55 321.768 254.55V255.05ZM326.954 258.94C326.954 260.487 326.009 262.033 324.512 263.64C323.02 265.242 321.029 266.856 319.015 268.55C317.009 270.236 314.984 271.998 313.462 273.879C311.94 275.76 310.898 277.786 310.898 280H311.398C311.398 277.948 312.363 276.032 313.851 274.194C315.339 272.355 317.329 270.621 319.337 268.932C321.336 267.251 323.359 265.611 324.878 263.98C326.392 262.354 327.454 260.687 327.454 258.94H326.954ZM339.888 282.952H339.638V283.202H339.888V282.952ZM344.46 277.732L344.71 277.729L344.708 277.482H344.46V277.732ZM341.4 277.732V277.482H341.147L341.15 277.735L341.4 277.732ZM339.888 281.584V281.334H339.638V281.584H339.888ZM339.888 283.202C341.309 283.202 342.53 282.632 343.388 281.654C344.245 280.679 344.729 279.311 344.71 277.729L344.21 277.735C344.228 279.213 343.776 280.455 343.013 281.325C342.251 282.192 341.168 282.702 339.888 282.702V283.202ZM344.46 277.482H341.4V277.982H344.46V277.482ZM341.15 277.735C341.168 279.179 340.997 280.098 340.742 280.646C340.493 281.179 340.182 281.334 339.888 281.334V281.834C340.423 281.834 340.886 281.521 341.195 280.857C341.498 280.208 341.669 279.201 341.65 277.729L341.15 277.735ZM339.638 281.584V282.952H340.138V281.584H339.638ZM367.7 280H367.45V280.25H367.7V280ZM388.4 280V280.25H388.65V280H388.4ZM388.4 273.52H388.65L388.171 273.421L388.4 273.52ZM369.752 277.12L369.523 277.02L369.37 277.373L369.754 277.37L369.752 277.12ZM369.176 257.644L368.991 257.476L368.838 257.645L368.992 257.813L369.176 257.644ZM369.968 258.508L369.784 258.677L369.964 258.873L370.148 258.681L369.968 258.508ZM367.7 280.25H388.4V279.75H367.7V280.25ZM388.65 280V273.52H388.15V280H388.65ZM388.171 273.421C388.026 273.756 387.727 274.075 387.274 274.374C386.821 274.672 386.232 274.94 385.533 275.177C384.134 275.653 382.334 275.998 380.408 276.247C376.557 276.744 372.25 276.852 369.75 276.87L369.754 277.37C372.259 277.352 376.591 277.244 380.472 276.742C382.411 276.492 384.249 276.142 385.693 275.651C386.416 275.405 387.049 275.121 387.549 274.791C388.048 274.462 388.432 274.076 388.63 273.619L388.171 273.421ZM369.981 277.22C370.756 275.436 372.259 273.972 374.112 272.657C375.965 271.341 378.139 270.195 380.237 269.027C382.325 267.865 384.341 266.681 385.833 265.3C387.331 263.916 388.326 262.31 388.326 260.308H387.826C387.826 262.122 386.932 263.603 385.494 264.933C384.051 266.268 382.086 267.426 379.994 268.59C377.912 269.749 375.705 270.913 373.822 272.249C371.939 273.585 370.35 275.114 369.523 277.02L369.981 277.22ZM388.326 260.308C388.326 258.499 387.513 256.825 385.924 255.609C384.339 254.397 381.994 253.65 378.932 253.65V254.15C381.918 254.15 384.145 254.879 385.62 256.007C387.091 257.131 387.826 258.661 387.826 260.308H388.326ZM378.932 253.65C375.695 253.65 373.214 254.601 371.541 255.555C370.705 256.031 370.07 256.508 369.643 256.868C369.43 257.047 369.268 257.198 369.159 257.304C369.105 257.357 369.064 257.399 369.035 257.429C369.021 257.443 369.011 257.455 369.003 257.463C368.999 257.467 368.996 257.47 368.994 257.472C368.993 257.473 368.993 257.474 368.992 257.475C368.992 257.475 368.991 257.476 368.991 257.476C368.991 257.476 368.991 257.476 368.991 257.476C368.991 257.476 368.991 257.476 369.176 257.644C369.362 257.812 369.362 257.812 369.362 257.812C369.362 257.812 369.361 257.812 369.361 257.812C369.361 257.812 369.362 257.812 369.362 257.812C369.362 257.811 369.362 257.811 369.363 257.81C369.364 257.809 369.366 257.807 369.369 257.804C369.375 257.797 369.384 257.788 369.396 257.775C369.421 257.75 369.458 257.711 369.509 257.662C369.61 257.564 369.762 257.422 369.966 257.25C370.372 256.908 370.982 256.449 371.788 255.989C373.4 255.071 375.797 254.15 378.932 254.15V253.65ZM368.992 257.813L369.784 258.677L370.152 258.339L369.36 257.475L368.992 257.813ZM369.968 258.508C370.148 258.681 370.148 258.681 370.148 258.681C370.148 258.681 370.148 258.681 370.148 258.681C370.148 258.681 370.148 258.681 370.149 258.681C370.149 258.681 370.149 258.68 370.15 258.68C370.151 258.678 370.154 258.676 370.157 258.673C370.163 258.666 370.173 258.656 370.186 258.644C370.212 258.618 370.251 258.579 370.303 258.53C370.407 258.431 370.561 258.29 370.762 258.119C371.163 257.778 371.748 257.322 372.481 256.866C373.948 255.953 375.99 255.05 378.32 255.05V254.55C375.863 254.55 373.728 255.501 372.217 256.442C371.459 256.913 370.854 257.384 370.438 257.738C370.23 257.915 370.068 258.063 369.959 258.167C369.904 258.219 369.862 258.261 369.833 258.289C369.819 258.303 369.808 258.315 369.8 258.322C369.796 258.326 369.793 258.329 369.791 258.331C369.79 258.332 369.79 258.333 369.789 258.334C369.789 258.334 369.788 258.334 369.788 258.334C369.788 258.334 369.788 258.335 369.788 258.335C369.788 258.335 369.788 258.335 369.968 258.508ZM378.32 255.05C380.025 255.05 381.324 255.489 382.191 256.187C383.054 256.882 383.506 257.845 383.506 258.94H384.006C384.006 257.695 383.487 256.588 382.504 255.798C381.526 255.011 380.107 254.55 378.32 254.55V255.05ZM383.506 258.94C383.506 260.487 382.561 262.033 381.064 263.64C379.572 265.242 377.582 266.856 375.567 268.55C373.561 270.236 371.537 271.998 370.015 273.879C368.492 275.76 367.45 277.786 367.45 280H367.95C367.95 277.948 368.915 276.032 370.403 274.194C371.891 272.355 373.881 270.621 375.889 268.932C377.889 267.251 379.912 265.611 381.43 263.98C382.944 262.354 384.006 260.687 384.006 258.94H383.506ZM408.357 281.15C411.798 281.15 414.703 279.712 416.744 277.257C418.781 274.806 419.947 271.353 419.947 267.328H419.447C419.447 271.259 418.308 274.592 416.359 276.938C414.412 279.28 411.648 280.65 408.357 280.65V281.15ZM419.947 267.328C419.947 263.322 418.799 259.904 416.751 257.483C414.7 255.058 411.758 253.65 408.213 253.65V254.15C411.616 254.15 414.416 255.496 416.369 257.805C418.326 260.118 419.447 263.414 419.447 267.328H419.947ZM408.213 253.65C404.666 253.65 401.759 255.077 399.744 257.53C397.733 259.979 396.623 263.432 396.623 267.472H397.123C397.123 263.52 398.209 260.187 400.13 257.848C402.048 255.513 404.812 254.15 408.213 254.15V253.65ZM396.623 267.472C396.623 271.499 397.826 274.917 399.901 277.332C401.978 279.751 404.918 281.15 408.357 281.15V280.65C405.063 280.65 402.262 279.313 400.28 277.007C398.296 274.697 397.123 271.401 397.123 267.472H396.623ZM401.443 267.328C401.443 263.666 402.149 260.58 403.372 258.42C404.594 256.263 406.313 255.05 408.357 255.05V254.55C406.081 254.55 404.218 255.911 402.937 258.173C401.659 260.432 400.943 263.61 400.943 267.328H401.443ZM408.357 255.05C410.379 255.05 412.063 256.277 413.254 258.461C414.447 260.649 415.127 263.772 415.127 267.472H415.627C415.627 263.72 414.939 260.507 413.693 258.222C412.445 255.933 410.619 254.55 408.357 254.55V255.05ZM415.127 267.472C415.127 271.152 414.42 274.238 413.197 276.394C411.977 278.545 410.257 279.75 408.213 279.75V280.25C410.488 280.25 412.351 278.899 413.632 276.64C414.911 274.386 415.627 271.208 415.627 267.472H415.127ZM408.213 279.75C406.191 279.75 404.507 278.515 403.316 276.326C402.123 274.133 401.443 271.01 401.443 267.328H400.943C400.943 271.062 401.631 274.275 402.877 276.564C404.124 278.857 405.95 280.25 408.213 280.25V279.75ZM427.972 280H427.722V280.25H427.972V280ZM448.672 280V280.25H448.922V280H448.672ZM448.672 273.52H448.922L448.443 273.421L448.672 273.52ZM430.024 277.12L429.795 277.02L429.642 277.373L430.026 277.37L430.024 277.12ZM429.448 257.644L429.263 257.476L429.11 257.645L429.264 257.813L429.448 257.644ZM430.24 258.508L430.056 258.677L430.236 258.873L430.42 258.681L430.24 258.508ZM427.972 280.25H448.672V279.75H427.972V280.25ZM448.922 280V273.52H448.422V280H448.922ZM448.443 273.421C448.298 273.756 447.999 274.075 447.546 274.374C447.093 274.672 446.504 274.94 445.804 275.177C444.406 275.653 442.606 275.998 440.679 276.247C436.829 276.744 432.521 276.852 430.022 276.87L430.026 277.37C432.531 277.352 436.863 277.244 440.744 276.742C442.683 276.492 444.521 276.142 445.965 275.651C446.688 275.405 447.32 275.121 447.821 274.791C448.32 274.462 448.704 274.076 448.902 273.619L448.443 273.421ZM430.253 277.22C431.028 275.436 432.53 273.972 434.384 272.657C436.237 271.341 438.411 270.195 440.509 269.027C442.597 267.865 444.613 266.681 446.105 265.3C447.603 263.916 448.598 262.31 448.598 260.308H448.098C448.098 262.122 447.204 263.603 445.766 264.933C444.323 266.268 442.358 267.426 440.266 268.59C438.184 269.749 435.977 270.913 434.094 272.249C432.211 273.585 430.622 275.114 429.795 277.02L430.253 277.22ZM448.598 260.308C448.598 258.499 447.785 256.825 446.196 255.609C444.611 254.397 442.266 253.65 439.204 253.65V254.15C442.19 254.15 444.417 254.879 445.892 256.007C447.363 257.131 448.098 258.661 448.098 260.308H448.598ZM439.204 253.65C435.967 253.65 433.486 254.601 431.813 255.555C430.977 256.031 430.342 256.508 429.915 256.868C429.702 257.047 429.54 257.198 429.431 257.304C429.377 257.357 429.335 257.399 429.307 257.429C429.293 257.443 429.282 257.455 429.275 257.463C429.271 257.467 429.268 257.47 429.266 257.472C429.265 257.473 429.264 257.474 429.264 257.475C429.263 257.475 429.263 257.476 429.263 257.476C429.263 257.476 429.263 257.476 429.263 257.476C429.263 257.476 429.263 257.476 429.448 257.644C429.634 257.812 429.633 257.812 429.633 257.812C429.633 257.812 429.633 257.812 429.633 257.812C429.633 257.812 429.633 257.812 429.634 257.812C429.634 257.811 429.634 257.811 429.635 257.81C429.636 257.809 429.638 257.807 429.641 257.804C429.647 257.797 429.656 257.788 429.668 257.775C429.692 257.75 429.73 257.711 429.78 257.662C429.881 257.564 430.034 257.422 430.237 257.25C430.644 256.908 431.254 256.449 432.06 255.989C433.672 255.071 436.069 254.15 439.204 254.15V253.65ZM429.264 257.813L430.056 258.677L430.424 258.339L429.632 257.475L429.264 257.813ZM430.24 258.508C430.42 258.681 430.42 258.681 430.42 258.681C430.42 258.681 430.42 258.681 430.42 258.681C430.42 258.681 430.42 258.681 430.42 258.681C430.421 258.681 430.421 258.68 430.422 258.68C430.423 258.678 430.426 258.676 430.429 258.673C430.435 258.666 430.445 258.656 430.458 258.644C430.484 258.618 430.523 258.579 430.575 258.53C430.678 258.431 430.833 258.29 431.034 258.119C431.435 257.778 432.02 257.322 432.753 256.866C434.22 255.953 436.262 255.05 438.592 255.05V254.55C436.134 254.55 434 255.501 432.488 256.442C431.731 256.913 431.126 257.384 430.71 257.738C430.502 257.915 430.34 258.063 430.23 258.167C430.175 258.219 430.133 258.261 430.105 258.289C430.091 258.303 430.08 258.315 430.072 258.322C430.068 258.326 430.065 258.329 430.063 258.331C430.062 258.332 430.061 258.333 430.061 258.334C430.061 258.334 430.06 258.334 430.06 258.334C430.06 258.334 430.06 258.335 430.06 258.335C430.06 258.335 430.06 258.335 430.24 258.508ZM438.592 255.05C440.297 255.05 441.596 255.489 442.463 256.187C443.326 256.882 443.778 257.845 443.778 258.94H444.278C444.278 257.695 443.758 256.588 442.776 255.798C441.798 255.011 440.379 254.55 438.592 254.55V255.05ZM443.778 258.94C443.778 260.487 442.833 262.033 441.336 263.64C439.844 265.242 437.853 266.856 435.839 268.55C433.833 270.236 431.809 271.998 430.286 273.879C428.764 275.76 427.722 277.786 427.722 280H428.222C428.222 277.948 429.187 276.032 430.675 274.194C432.163 272.355 434.153 270.621 436.161 268.932C438.161 267.251 440.184 265.611 441.702 263.98C443.216 262.354 444.278 260.687 444.278 258.94H443.778ZM456.245 280H455.995V280.25H456.245V280ZM476.945 280V280.25H477.195V280H476.945ZM476.945 273.52H477.195L476.715 273.421L476.945 273.52ZM458.297 277.12L458.067 277.02L457.914 277.373L458.298 277.37L458.297 277.12ZM457.721 257.644L457.535 257.476L457.383 257.645L457.536 257.813L457.721 257.644ZM458.513 258.508L458.328 258.677L458.508 258.873L458.693 258.681L458.513 258.508ZM456.245 280.25H476.945V279.75H456.245V280.25ZM477.195 280V273.52H476.695V280H477.195ZM476.715 273.421C476.571 273.756 476.272 274.075 475.818 274.374C475.366 274.672 474.776 274.94 474.077 275.177C472.679 275.653 470.878 275.998 468.952 276.247C465.102 276.744 460.794 276.852 458.295 276.87L458.298 277.37C460.803 277.352 465.135 277.244 469.016 276.742C470.955 276.492 472.793 276.142 474.238 275.651C474.96 275.405 475.593 275.121 476.093 274.791C476.593 274.462 476.977 274.076 477.174 273.619L476.715 273.421ZM458.526 277.22C459.3 275.436 460.803 273.972 462.656 272.657C464.51 271.341 466.683 270.195 468.782 269.027C470.87 267.865 472.885 266.681 474.378 265.3C475.875 263.916 476.871 262.31 476.871 260.308H476.371C476.371 262.122 475.476 263.603 474.038 264.933C472.596 266.268 470.631 267.426 468.539 268.59C466.456 269.749 464.249 270.913 462.367 272.249C460.484 273.585 458.895 275.114 458.067 277.02L458.526 277.22ZM476.871 260.308C476.871 258.499 476.058 256.825 474.469 255.609C472.883 254.397 470.539 253.65 467.477 253.65V254.15C470.462 254.15 472.69 254.879 474.165 256.007C475.635 257.131 476.371 258.661 476.371 260.308H476.871ZM467.477 253.65C464.24 253.65 461.759 254.601 460.085 255.555C459.249 256.031 458.615 256.508 458.188 256.868C457.975 257.047 457.813 257.198 457.704 257.304C457.649 257.357 457.608 257.399 457.58 257.429C457.566 257.443 457.555 257.455 457.548 257.463C457.544 257.467 457.541 257.47 457.539 257.472C457.538 257.473 457.537 257.474 457.536 257.475C457.536 257.475 457.536 257.476 457.536 257.476C457.536 257.476 457.535 257.476 457.535 257.476C457.535 257.476 457.535 257.476 457.721 257.644C457.906 257.812 457.906 257.812 457.906 257.812C457.906 257.812 457.906 257.812 457.906 257.812C457.906 257.812 457.906 257.812 457.906 257.812C457.906 257.811 457.907 257.811 457.907 257.81C457.909 257.809 457.911 257.807 457.914 257.804C457.919 257.797 457.928 257.788 457.941 257.775C457.965 257.75 458.003 257.711 458.053 257.662C458.154 257.564 458.307 257.422 458.51 257.25C458.917 256.908 459.527 256.449 460.333 255.989C461.945 255.071 464.342 254.15 467.477 254.15V253.65ZM457.536 257.813L458.328 258.677L458.697 258.339L457.905 257.475L457.536 257.813ZM458.513 258.508C458.693 258.681 458.693 258.681 458.693 258.681C458.693 258.681 458.693 258.681 458.693 258.681C458.693 258.681 458.693 258.681 458.693 258.681C458.693 258.681 458.694 258.68 458.695 258.68C458.696 258.678 458.698 258.676 458.701 258.673C458.708 258.666 458.717 258.656 458.73 258.644C458.756 258.618 458.795 258.579 458.847 258.53C458.951 258.431 459.106 258.29 459.306 258.119C459.708 257.778 460.293 257.322 461.025 256.866C462.492 255.953 464.534 255.05 466.865 255.05V254.55C464.407 254.55 462.273 255.501 460.761 256.442C460.004 256.913 459.399 257.384 458.982 257.738C458.774 257.915 458.613 258.063 458.503 258.167C458.448 258.219 458.406 258.261 458.377 258.289C458.363 258.303 458.352 258.315 458.345 258.322C458.341 258.326 458.338 258.329 458.336 258.331C458.335 258.332 458.334 258.333 458.334 258.334C458.333 258.334 458.333 258.334 458.333 258.334C458.333 258.334 458.333 258.335 458.333 258.335C458.333 258.335 458.332 258.335 458.513 258.508ZM466.865 255.05C468.57 255.05 469.868 255.489 470.735 256.187C471.598 256.882 472.051 257.845 472.051 258.94H472.551C472.551 257.695 472.031 256.588 471.049 255.798C470.071 255.011 468.652 254.55 466.865 254.55V255.05ZM472.051 258.94C472.051 260.487 471.105 262.033 469.609 263.64C468.117 265.242 466.126 266.856 464.112 268.55C462.106 270.236 460.081 271.998 458.559 273.879C457.037 275.76 455.995 277.786 455.995 280H456.495C456.495 277.948 457.46 276.032 458.948 274.194C460.436 272.355 462.425 270.621 464.434 268.932C466.433 267.251 468.456 265.611 469.975 263.98C471.489 262.354 472.551 260.687 472.551 258.94H472.051Z" fill="#C6905E"/>
<path d="M153.9 304V325H161.28C166.08 325 171.69 322.39 171.69 314.5C171.69 306.61 166.14 304 161.34 304H153.9ZM160.38 304.9C165.24 304.9 168.09 307.93 168.09 314.5C168.09 321.07 165.24 324.16 160.38 324.16H157.5V304.9H160.38ZM187.517 325.75C194.117 325.75 198.377 320.8 198.377 314.41C198.377 308.23 193.517 303.25 187.337 303.25C180.917 303.25 176.477 308.02 176.477 314.59C176.477 320.8 181.307 325.75 187.517 325.75ZM179.597 310.84C179.597 307.15 181.697 304.27 185.837 304.27C191.447 304.27 195.047 311.74 195.047 317.83C195.047 321.67 193.067 324.67 189.197 324.67C183.527 324.67 179.597 316.9 179.597 310.84ZM214.203 325.75C220.803 325.75 225.063 320.8 225.063 314.41C225.063 308.23 220.203 303.25 214.023 303.25C207.603 303.25 203.163 308.02 203.163 314.59C203.163 320.8 207.993 325.75 214.203 325.75ZM206.283 310.84C206.283 307.15 208.383 304.27 212.523 304.27C218.133 304.27 221.733 311.74 221.733 317.83C221.733 321.67 219.753 324.67 215.883 324.67C210.213 324.67 206.283 316.9 206.283 310.84ZM230.149 325H233.749V315.97H234.889L241.999 325H245.599L238.459 315.91C242.599 315.46 244.609 312.73 244.609 309.94C244.609 306.88 242.449 304 237.589 304H230.149V325ZM236.539 304.9C239.089 304.9 241.009 306.97 241.009 309.73C241.009 312.49 239.149 315.07 236.599 315.07H233.749V304.9H236.539ZM248.823 321.52C248.823 321.52 253.323 325.75 259.203 325.75C264.063 325.75 267.573 323.2 267.573 319.96C267.573 313.39 253.383 312.31 253.383 307.09C253.383 305.41 254.883 304 256.893 304C259.443 304 262.173 306.16 263.883 310.42L266.943 307.48C265.233 305.2 261.093 303.25 257.403 303.25C252.843 303.25 249.753 305.44 249.753 308.59C249.753 315.4 263.973 316.03 263.973 321.64C263.973 323.53 262.203 325 260.073 325C255.633 325 250.893 318.52 250.893 318.52L248.823 321.52ZM283.481 304V309.4C284.621 306.76 289.991 306.43 294.941 306.43L284.351 325H288.101L297.221 304H283.481ZM302 321.46C302 322.48 302.81 323.29 303.86 323.29C304.88 323.29 305.69 322.48 305.69 321.46C305.69 320.41 304.88 319.57 303.86 319.57C302.81 319.57 302 320.41 302 321.46ZM302 312.43C302 313.48 302.81 314.29 303.86 314.29C304.88 314.29 305.69 313.48 305.69 312.43C305.69 311.41 304.88 310.57 303.86 310.57C302.81 310.57 302 311.41 302 312.43ZM321.008 325.75C326.618 325.75 330.458 321.07 330.458 314.44C330.458 307.84 326.678 303.25 320.888 303.25C315.098 303.25 311.438 307.9 311.438 314.56C311.438 321.19 315.398 325.75 321.008 325.75ZM315.038 314.44C315.038 308.29 317.408 304 321.008 304C324.578 304 326.858 308.35 326.858 314.56C326.858 320.74 324.488 325 320.888 325C317.318 325 315.038 320.62 315.038 314.44ZM346.024 325.75C351.634 325.75 355.474 321.07 355.474 314.44C355.474 307.84 351.694 303.25 345.904 303.25C340.114 303.25 336.454 307.9 336.454 314.56C336.454 321.19 340.414 325.75 346.024 325.75ZM340.054 314.44C340.054 308.29 342.424 304 346.024 304C349.594 304 351.874 308.35 351.874 314.56C351.874 320.74 349.504 325 345.904 325C342.334 325 340.054 320.62 340.054 314.44ZM361.17 325H364.77V316.48H368.22C372.66 316.48 375.63 313.87 375.63 310.18C375.63 306.49 372.96 304 368.94 304H361.17V325ZM367.32 304.9C370.2 304.9 372.03 306.85 372.03 310.33C372.03 313.81 370.2 315.58 367.32 315.58H364.77V304.9H367.32ZM378.382 325H383.782C381.532 321.25 381.052 315.88 382.042 310.39C382.252 309.13 382.582 307.27 382.852 305.89L388.072 325H391.672L390.562 320.95L394.672 305.98L398.212 325H401.812L397.912 304H394.312L390.112 319.3L385.942 304H382.342L378.382 325ZM428.948 300.1V328.9H430.148V300.1H428.948ZM457.137 321.52C457.137 321.52 461.637 325.75 467.517 325.75C472.377 325.75 475.887 323.2 475.887 319.96C475.887 313.39 461.697 312.31 461.697 307.09C461.697 305.41 463.197 304 465.207 304C467.757 304 470.487 306.16 472.197 310.42L475.257 307.48C473.547 305.2 469.407 303.25 465.717 303.25C461.157 303.25 458.067 305.44 458.067 308.59C458.067 315.4 472.287 316.03 472.287 321.64C472.287 323.53 470.517 325 468.387 325C463.947 325 459.207 318.52 459.207 318.52L457.137 321.52ZM480.995 325H484.595V314.89H494.345V325H497.945V304H494.345V314.08H484.595V304H480.995V325ZM514.085 325.75C520.685 325.75 524.945 320.8 524.945 314.41C524.945 308.23 520.085 303.25 513.905 303.25C507.485 303.25 503.045 308.02 503.045 314.59C503.045 320.8 507.875 325.75 514.085 325.75ZM506.165 310.84C506.165 307.15 508.265 304.27 512.405 304.27C518.015 304.27 521.615 311.74 521.615 317.83C521.615 321.67 519.635 324.67 515.765 324.67C510.095 324.67 506.165 316.9 506.165 310.84ZM535.364 325H538.964L542.864 313.39L546.764 325H550.364L557.414 304H552.014C554.204 310.84 551.714 317.32 549.884 323.56L544.904 308.68L546.464 304H545.564L544.454 307.36L543.314 304H539.714L542.414 312.07L538.514 323.68L531.914 304H528.314L535.364 325ZM572.578 319.09C572.578 322.87 575.548 325.6 580.228 325.6C584.848 325.6 587.818 322.87 587.818 319.09C587.818 316.12 585.958 313.78 582.898 312.94C585.058 312.22 586.438 310.63 586.438 308.47C586.438 305.44 583.648 303.25 580.108 303.25C576.538 303.25 573.718 305.44 573.718 308.47C573.718 310.66 575.158 312.25 577.378 312.97C574.378 313.84 572.578 316.15 572.578 319.09ZM575.908 319.03C575.908 315.61 577.768 313.36 580.108 313.36C582.568 313.36 584.518 315.67 584.518 319.15C584.518 322.54 582.658 324.88 580.288 324.88C577.858 324.88 575.908 322.48 575.908 319.03ZM580.078 304.06C581.758 304.06 583.168 305.74 583.168 308.38C583.168 311.02 581.908 312.58 580.138 312.58C578.368 312.58 577.078 310.99 577.078 308.26C577.078 305.65 578.398 304.06 580.078 304.06ZM592.598 321.46C592.598 322.48 593.408 323.29 594.458 323.29C595.478 323.29 596.288 322.48 596.288 321.46C596.288 320.41 595.478 319.57 594.458 319.57C593.408 319.57 592.598 320.41 592.598 321.46ZM592.598 312.43C592.598 313.48 593.408 314.29 594.458 314.29C595.478 314.29 596.288 313.48 596.288 312.43C596.288 311.41 595.478 310.57 594.458 310.57C593.408 310.57 592.598 311.41 592.598 312.43ZM611.606 325.75C617.216 325.75 621.056 321.07 621.056 314.44C621.056 307.84 617.276 303.25 611.486 303.25C605.696 303.25 602.036 307.9 602.036 314.56C602.036 321.19 605.996 325.75 611.606 325.75ZM605.636 314.44C605.636 308.29 608.006 304 611.606 304C615.176 304 617.456 308.35 617.456 314.56C617.456 320.74 615.086 325 611.486 325C607.916 325 605.636 320.62 605.636 314.44ZM636.622 325.75C642.232 325.75 646.072 321.07 646.072 314.44C646.072 307.84 642.292 303.25 636.502 303.25C630.712 303.25 627.052 307.9 627.052 314.56C627.052 321.19 631.012 325.75 636.622 325.75ZM630.652 314.44C630.652 308.29 633.022 304 636.622 304C640.192 304 642.472 308.35 642.472 314.56C642.472 320.74 640.102 325 636.502 325C632.932 325 630.652 320.62 630.652 314.44ZM651.768 325H655.368V316.48H658.818C663.258 316.48 666.228 313.87 666.228 310.18C666.228 306.49 663.558 304 659.538 304H651.768V325ZM657.918 304.9C660.798 304.9 662.628 306.85 662.628 310.33C662.628 313.81 660.798 315.58 657.918 315.58H655.368V304.9H657.918ZM668.98 325H674.38C672.13 321.25 671.65 315.88 672.64 310.39C672.85 309.13 673.18 307.27 673.45 305.89L678.67 325H682.27L681.16 320.95L685.27 305.98L688.81 325H692.41L688.51 304H684.91L680.71 319.3L676.54 304H672.94L668.98 325Z" fill="#C6905E"/>
<path d="M153.9 304V303.75H153.65V304H153.9ZM153.9 325H153.65V325.25H153.9V325ZM157.5 324.16H157.25V324.41H157.5V324.16ZM157.5 304.9V304.65H157.25V304.9H157.5ZM153.65 304V325H154.15V304H153.65ZM153.9 325.25H161.28V324.75H153.9V325.25ZM161.28 325.25C163.721 325.25 166.384 324.587 168.443 322.902C170.511 321.21 171.94 318.511 171.94 314.5H171.44C171.44 318.379 170.064 320.93 168.127 322.515C166.181 324.108 163.639 324.75 161.28 324.75V325.25ZM171.94 314.5C171.94 310.49 170.526 307.791 168.474 306.098C166.43 304.413 163.781 303.75 161.34 303.75V304.25C163.699 304.25 166.225 304.892 168.156 306.484C170.079 308.069 171.44 310.62 171.44 314.5H171.94ZM161.34 303.75H153.9V304.25H161.34V303.75ZM160.38 305.15C162.756 305.15 164.605 305.888 165.866 307.397C167.133 308.913 167.84 311.246 167.84 314.5H168.34C168.34 311.184 167.622 308.717 166.249 307.076C164.87 305.427 162.864 304.65 160.38 304.65V305.15ZM167.84 314.5C167.84 317.754 167.133 320.103 165.865 321.634C164.603 323.158 162.754 323.91 160.38 323.91V324.41C162.866 324.41 164.872 323.617 166.25 321.953C167.622 320.297 168.34 317.816 168.34 314.5H167.84ZM160.38 323.91H157.5V324.41H160.38V323.91ZM157.75 324.16V304.9H157.25V324.16H157.75ZM157.5 305.15H160.38V304.65H157.5V305.15ZM187.517 326C190.883 326 193.666 324.736 195.606 322.646C197.543 320.559 198.627 317.66 198.627 314.41H198.127C198.127 317.55 197.081 320.321 195.239 322.306C193.399 324.289 190.751 325.5 187.517 325.5V326ZM198.627 314.41C198.627 308.095 193.659 303 187.337 303V303.5C193.376 303.5 198.127 308.365 198.127 314.41H198.627ZM187.337 303C184.063 303 181.281 304.218 179.319 306.284C177.357 308.349 176.227 311.248 176.227 314.59H176.727C176.727 311.362 177.817 308.591 179.681 306.628C181.544 304.667 184.192 303.5 187.337 303.5V303ZM176.227 314.59C176.227 320.935 181.166 326 187.517 326V325.5C181.449 325.5 176.727 320.665 176.727 314.59H176.227ZM179.847 310.84C179.847 309.04 180.359 307.462 181.352 306.337C182.341 305.216 183.829 304.52 185.837 304.52V304.02C183.705 304.02 182.073 304.764 180.977 306.006C179.885 307.243 179.347 308.95 179.347 310.84H179.847ZM185.837 304.52C188.519 304.52 190.754 306.305 192.333 308.896C193.909 311.484 194.797 314.828 194.797 317.83H195.297C195.297 314.742 194.386 311.306 192.76 308.636C191.135 305.97 188.765 304.02 185.837 304.02V304.52ZM194.797 317.83C194.797 319.71 194.312 321.36 193.378 322.534C192.449 323.701 191.061 324.42 189.197 324.42V324.92C191.204 324.92 192.74 324.139 193.769 322.846C194.792 321.56 195.297 319.79 195.297 317.83H194.797ZM189.197 324.42C186.486 324.42 184.153 322.56 182.483 319.895C180.816 317.234 179.847 313.822 179.847 310.84H179.347C179.347 313.918 180.343 317.421 182.059 320.16C183.772 322.895 186.239 324.92 189.197 324.92V324.42ZM214.203 326C217.569 326 220.352 324.736 222.292 322.646C224.229 320.559 225.313 317.66 225.313 314.41H224.813C224.813 317.55 223.767 320.321 221.925 322.306C220.085 324.289 217.437 325.5 214.203 325.5V326ZM225.313 314.41C225.313 308.095 220.345 303 214.023 303V303.5C220.062 303.5 224.813 308.365 224.813 314.41H225.313ZM214.023 303C210.749 303 207.967 304.218 206.005 306.284C204.043 308.349 202.913 311.248 202.913 314.59H203.413C203.413 311.362 204.503 308.591 206.367 306.628C208.23 304.667 210.878 303.5 214.023 303.5V303ZM202.913 314.59C202.913 320.935 207.852 326 214.203 326V325.5C208.135 325.5 203.413 320.665 203.413 314.59H202.913ZM206.533 310.84C206.533 309.04 207.045 307.462 208.038 306.337C209.027 305.216 210.515 304.52 212.523 304.52V304.02C210.391 304.02 208.759 304.764 207.663 306.006C206.571 307.243 206.033 308.95 206.033 310.84H206.533ZM212.523 304.52C215.205 304.52 217.44 306.305 219.019 308.896C220.595 311.484 221.483 314.828 221.483 317.83H221.983C221.983 314.742 221.072 311.306 219.446 308.636C217.821 305.97 215.451 304.02 212.523 304.02V304.52ZM221.483 317.83C221.483 319.71 220.998 321.36 220.064 322.534C219.135 323.701 217.747 324.42 215.883 324.42V324.92C217.89 324.92 219.426 324.139 220.455 322.846C221.478 321.56 221.983 319.79 221.983 317.83H221.483ZM215.883 324.42C213.172 324.42 210.839 322.56 209.169 319.895C207.502 317.234 206.533 313.822 206.533 310.84H206.033C206.033 313.918 207.029 317.421 208.745 320.16C210.458 322.895 212.925 324.92 215.883 324.92V324.42ZM230.149 325H229.899V325.25H230.149V325ZM233.749 325V325.25H233.999V325H233.749ZM233.749 315.97V315.72H233.499V315.97H233.749ZM234.889 315.97L235.086 315.815L235.011 315.72H234.889V315.97ZM241.999 325L241.803 325.155L241.878 325.25H241.999V325ZM245.599 325V325.25H246.113L245.796 324.846L245.599 325ZM238.459 315.91L238.432 315.661L237.984 315.71L238.263 316.064L238.459 315.91ZM230.149 304V303.75H229.899V304H230.149ZM233.749 315.07H233.499V315.32H233.749V315.07ZM233.749 304.9V304.65H233.499V304.9H233.749ZM230.149 325.25H233.749V324.75H230.149V325.25ZM233.999 325V315.97H233.499V325H233.999ZM233.749 316.22H234.889V315.72H233.749V316.22ZM234.693 316.125L241.803 325.155L242.196 324.845L235.086 315.815L234.693 316.125ZM241.999 325.25H245.599V324.75H241.999V325.25ZM245.796 324.846L238.656 315.756L238.263 316.064L245.403 325.154L245.796 324.846ZM238.486 316.159C242.743 315.696 244.859 312.867 244.859 309.94H244.359C244.359 312.593 242.455 315.224 238.432 315.661L238.486 316.159ZM244.859 309.94C244.859 308.351 244.298 306.798 243.095 305.642C241.891 304.486 240.069 303.75 237.589 303.75V304.25C239.969 304.25 241.657 304.954 242.749 306.003C243.841 307.052 244.359 308.469 244.359 309.94H244.859ZM237.589 303.75H230.149V304.25H237.589V303.75ZM229.899 304V325H230.399V304H229.899ZM236.539 305.15C238.933 305.15 240.759 307.09 240.759 309.73H241.259C241.259 306.85 239.245 304.65 236.539 304.65V305.15ZM240.759 309.73C240.759 312.41 238.96 314.82 236.599 314.82V315.32C239.339 315.32 241.259 312.57 241.259 309.73H240.759ZM236.599 314.82H233.749V315.32H236.599V314.82ZM233.999 315.07V304.9H233.499V315.07H233.999ZM233.749 305.15H236.539V304.65H233.749V305.15ZM248.823 321.52L248.617 321.378L248.495 321.555L248.652 321.702L248.823 321.52ZM263.883 310.42L263.651 310.513L263.789 310.857L264.056 310.6L263.883 310.42ZM266.943 307.48L267.116 307.66L267.276 307.507L267.143 307.33L266.943 307.48ZM250.893 318.52L251.095 318.372L250.887 318.088L250.687 318.378L250.893 318.52ZM248.823 321.52C248.652 321.702 248.652 321.702 248.652 321.702C248.652 321.702 248.652 321.702 248.652 321.703C248.652 321.703 248.653 321.703 248.653 321.703C248.654 321.704 248.655 321.705 248.656 321.706C248.659 321.708 248.662 321.712 248.667 321.716C248.676 321.725 248.69 321.737 248.708 321.753C248.743 321.785 248.796 321.832 248.865 321.891C249.002 322.01 249.205 322.178 249.465 322.379C249.986 322.781 250.742 323.317 251.684 323.852C253.566 324.922 256.204 326 259.203 326V325.5C256.322 325.5 253.77 324.463 251.932 323.418C251.014 322.896 250.277 322.374 249.771 321.983C249.518 321.788 249.322 321.625 249.191 321.512C249.125 321.456 249.075 321.412 249.042 321.382C249.026 321.367 249.014 321.356 249.005 321.348C249.001 321.345 248.998 321.342 248.997 321.34C248.996 321.339 248.995 321.339 248.995 321.338C248.994 321.338 248.994 321.338 248.994 321.338C248.994 321.338 248.994 321.338 248.994 321.338C248.994 321.338 248.994 321.338 248.823 321.52ZM259.203 326C261.674 326 263.82 325.352 265.354 324.275C266.89 323.196 267.823 321.679 267.823 319.96H267.323C267.323 321.481 266.501 322.859 265.067 323.865C263.631 324.873 261.592 325.5 259.203 325.5V326ZM267.823 319.96C267.823 318.214 266.876 316.851 265.516 315.719C264.159 314.591 262.359 313.665 260.588 312.794C258.804 311.917 257.054 311.098 255.744 310.175C254.431 309.249 253.633 308.268 253.633 307.09H253.133C253.133 308.522 254.109 309.634 255.456 310.584C256.807 311.536 258.604 312.376 260.368 313.243C262.144 314.116 263.892 315.019 265.196 316.104C266.496 317.185 267.323 318.421 267.323 319.96H267.823ZM253.633 307.09C253.633 305.573 254.995 304.25 256.893 304.25V303.75C254.771 303.75 253.133 305.247 253.133 307.09H253.633ZM256.893 304.25C259.294 304.25 261.958 306.295 263.651 310.513L264.115 310.327C262.388 306.025 259.592 303.75 256.893 303.75V304.25ZM264.056 310.6L267.116 307.66L266.77 307.3L263.71 310.24L264.056 310.6ZM267.143 307.33C266.255 306.145 264.752 305.065 263.018 304.282C261.282 303.498 259.289 303 257.403 303V303.5C259.207 303.5 261.129 303.977 262.813 304.738C264.499 305.5 265.921 306.535 266.743 307.63L267.143 307.33ZM257.403 303C255.086 303 253.12 303.556 251.725 304.534C250.324 305.516 249.503 306.923 249.503 308.59H250.003C250.003 307.107 250.727 305.844 252.012 304.943C253.302 304.039 255.16 303.5 257.403 303.5V303ZM249.503 308.59C249.503 310.394 250.45 311.774 251.815 312.906C253.176 314.032 254.981 314.937 256.755 315.79C258.542 316.65 260.295 317.457 261.606 318.395C262.916 319.333 263.723 320.359 263.723 321.64H264.223C264.223 320.116 263.252 318.959 261.897 317.989C260.541 317.018 258.739 316.19 256.971 315.34C255.19 314.483 253.44 313.603 252.134 312.521C250.834 311.443 250.003 310.191 250.003 308.59H249.503ZM263.723 321.64C263.723 323.356 262.104 324.75 260.073 324.75V325.25C262.302 325.25 264.223 323.704 264.223 321.64H263.723ZM260.073 324.75C259.022 324.75 257.937 324.366 256.889 323.77C255.843 323.175 254.85 322.379 253.988 321.577C253.128 320.776 252.403 319.973 251.894 319.371C251.639 319.07 251.439 318.82 251.302 318.645C251.234 318.557 251.182 318.489 251.147 318.442C251.129 318.419 251.116 318.401 251.107 318.39C251.103 318.384 251.1 318.379 251.098 318.376C251.097 318.375 251.096 318.374 251.095 318.373C251.095 318.373 251.095 318.373 251.095 318.373C251.095 318.372 251.095 318.372 251.095 318.372C251.095 318.372 251.095 318.372 250.893 318.52C250.691 318.668 250.691 318.668 250.691 318.668C250.691 318.668 250.692 318.668 250.692 318.668C250.692 318.668 250.692 318.669 250.692 318.669C250.693 318.67 250.694 318.671 250.695 318.673C250.698 318.676 250.701 318.681 250.706 318.688C250.716 318.7 250.729 318.719 250.748 318.743C250.784 318.792 250.838 318.863 250.908 318.952C251.048 319.132 251.253 319.387 251.512 319.694C252.03 320.307 252.768 321.124 253.648 321.943C254.526 322.761 255.551 323.585 256.642 324.205C257.732 324.824 258.904 325.25 260.073 325.25V324.75ZM250.687 318.378L248.617 321.378L249.029 321.662L251.099 318.662L250.687 318.378ZM283.481 304V303.75H283.231V304H283.481ZM283.481 309.4H283.231L283.711 309.499L283.481 309.4ZM294.941 306.43L295.158 306.554L295.372 306.18H294.941V306.43ZM284.351 325L284.134 324.876L283.921 325.25H284.351V325ZM288.101 325V325.25H288.265L288.331 325.1L288.101 325ZM297.221 304L297.451 304.1L297.602 303.75H297.221V304ZM283.231 304V309.4H283.731V304H283.231ZM283.711 309.499C283.967 308.906 284.467 308.427 285.176 308.042C285.886 307.656 286.792 307.374 287.831 307.17C289.909 306.763 292.467 306.68 294.941 306.68V306.18C292.465 306.18 289.864 306.262 287.734 306.68C286.669 306.889 285.709 307.184 284.937 307.602C284.165 308.022 283.566 308.574 283.252 309.301L283.711 309.499ZM294.724 306.306L284.134 324.876L284.568 325.124L295.158 306.554L294.724 306.306ZM284.351 325.25H288.101V324.75H284.351V325.25ZM288.331 325.1L297.451 304.1L296.992 303.9L287.872 324.9L288.331 325.1ZM297.221 303.75H283.481V304.25H297.221V303.75ZM301.75 321.46C301.75 322.621 302.674 323.54 303.86 323.54V323.04C302.945 323.04 302.25 322.339 302.25 321.46H301.75ZM303.86 323.54C305.018 323.54 305.94 322.618 305.94 321.46H305.44C305.44 322.342 304.742 323.04 303.86 323.04V323.54ZM305.94 321.46C305.94 320.28 305.026 319.32 303.86 319.32V319.82C304.734 319.82 305.44 320.54 305.44 321.46H305.94ZM303.86 319.32C302.666 319.32 301.75 320.277 301.75 321.46H302.25C302.25 320.543 302.953 319.82 303.86 319.82V319.32ZM301.75 312.43C301.75 313.618 302.672 314.54 303.86 314.54V314.04C302.948 314.04 302.25 313.342 302.25 312.43H301.75ZM303.86 314.54C305.02 314.54 305.94 313.615 305.94 312.43H305.44C305.44 313.345 304.739 314.04 303.86 314.04V314.54ZM305.94 312.43C305.94 311.277 305.023 310.32 303.86 310.32V310.82C304.736 310.82 305.44 311.543 305.44 312.43H305.94ZM303.86 310.32C302.669 310.32 301.75 311.275 301.75 312.43H302.25C302.25 311.545 302.95 310.82 303.86 310.82V310.32ZM321.008 326C323.888 326 326.32 324.796 328.029 322.741C329.734 320.689 330.708 317.802 330.708 314.44H330.208C330.208 317.708 329.261 320.476 327.644 322.421C326.03 324.364 323.737 325.5 321.008 325.5V326ZM330.708 314.44C330.708 311.094 329.749 308.235 328.035 306.209C326.317 304.178 323.854 303 320.888 303V303.5C323.711 303.5 326.033 304.617 327.653 306.531C329.276 308.45 330.208 311.186 330.208 314.44H330.708ZM320.888 303C317.92 303 315.485 304.195 313.798 306.249C312.115 308.298 311.188 311.186 311.188 314.56H311.688C311.688 311.274 312.59 308.507 314.184 306.566C315.775 304.63 318.065 303.5 320.888 303.5V303ZM311.188 314.56C311.188 317.924 312.192 320.782 313.929 322.804C315.668 324.829 318.13 326 321.008 326V325.5C318.275 325.5 315.952 324.391 314.308 322.478C312.663 320.563 311.688 317.826 311.688 314.56H311.188ZM315.288 314.44C315.288 311.393 315.875 308.829 316.89 307.037C317.903 305.248 319.324 304.25 321.008 304.25V303.75C319.091 303.75 317.527 304.897 316.455 306.791C315.385 308.681 314.788 311.337 314.788 314.44H315.288ZM321.008 304.25C322.673 304.25 324.064 305.259 325.052 307.071C326.042 308.886 326.608 311.481 326.608 314.56H327.108C327.108 311.429 326.533 308.744 325.491 306.832C324.446 304.916 322.912 303.75 321.008 303.75V304.25ZM326.608 314.56C326.608 317.622 326.02 320.186 325.005 321.974C323.993 323.758 322.572 324.75 320.888 324.75V325.25C322.803 325.25 324.367 324.112 325.44 322.221C326.51 320.334 327.108 317.678 327.108 314.56H326.608ZM320.888 324.75C319.223 324.75 317.832 323.734 316.843 321.918C315.853 320.099 315.288 317.504 315.288 314.44H314.788C314.788 317.556 315.362 320.241 316.404 322.157C317.448 324.076 318.982 325.25 320.888 325.25V324.75ZM346.024 326C348.904 326 351.336 324.796 353.045 322.741C354.75 320.689 355.724 317.802 355.724 314.44H355.224C355.224 317.708 354.277 320.476 352.66 322.421C351.046 324.364 348.753 325.5 346.024 325.5V326ZM355.724 314.44C355.724 311.094 354.765 308.235 353.051 306.209C351.333 304.178 348.87 303 345.904 303V303.5C348.727 303.5 351.049 304.617 352.669 306.531C354.292 308.45 355.224 311.186 355.224 314.44H355.724ZM345.904 303C342.936 303 340.501 304.195 338.814 306.249C337.131 308.298 336.204 311.186 336.204 314.56H336.704C336.704 311.274 337.606 308.507 339.2 306.566C340.791 304.63 343.081 303.5 345.904 303.5V303ZM336.204 314.56C336.204 317.924 337.208 320.782 338.945 322.804C340.684 324.829 343.146 326 346.024 326V325.5C343.291 325.5 340.968 324.391 339.324 322.478C337.679 320.563 336.704 317.826 336.704 314.56H336.204ZM340.304 314.44C340.304 311.393 340.891 308.829 341.906 307.037C342.919 305.248 344.34 304.25 346.024 304.25V303.75C344.107 303.75 342.543 304.897 341.471 306.791C340.401 308.681 339.804 311.337 339.804 314.44H340.304ZM346.024 304.25C347.689 304.25 349.08 305.259 350.068 307.071C351.058 308.886 351.624 311.481 351.624 314.56H352.124C352.124 311.429 351.549 308.744 350.507 306.832C349.462 304.916 347.928 303.75 346.024 303.75V304.25ZM351.624 314.56C351.624 317.622 351.036 320.186 350.021 321.974C349.009 323.758 347.588 324.75 345.904 324.75V325.25C347.819 325.25 349.383 324.112 350.456 322.221C351.526 320.334 352.124 317.678 352.124 314.56H351.624ZM345.904 324.75C344.239 324.75 342.848 323.734 341.859 321.918C340.869 320.099 340.304 317.504 340.304 314.44H339.804C339.804 317.556 340.378 320.241 341.42 322.157C342.464 324.076 343.998 325.25 345.904 325.25V324.75ZM361.17 325H360.92V325.25H361.17V325ZM364.77 325V325.25H365.02V325H364.77ZM364.77 316.48V316.23H364.52V316.48H364.77ZM361.17 304V303.75H360.92V304H361.17ZM364.77 315.58H364.52V315.83H364.77V315.58ZM364.77 304.9V304.65H364.52V304.9H364.77ZM361.17 325.25H364.77V324.75H361.17V325.25ZM365.02 325V316.48H364.52V325H365.02ZM364.77 316.73H368.22V316.23H364.77V316.73ZM368.22 316.73C370.488 316.73 372.401 316.063 373.752 314.903C375.106 313.741 375.88 312.097 375.88 310.18H375.38C375.38 311.953 374.668 313.459 373.427 314.524C372.183 315.592 370.391 316.23 368.22 316.23V316.73ZM375.88 310.18C375.88 308.272 375.188 306.658 373.962 305.523C372.738 304.389 371.001 303.75 368.94 303.75V304.25C370.898 304.25 372.506 304.856 373.622 305.89C374.737 306.922 375.38 308.398 375.38 310.18H375.88ZM368.94 303.75H361.17V304.25H368.94V303.75ZM360.92 304V325H361.42V304H360.92ZM367.32 305.15C368.7 305.15 369.805 305.615 370.567 306.476C371.333 307.34 371.78 308.632 371.78 310.33H372.28C372.28 308.548 371.811 307.125 370.942 306.144C370.069 305.16 368.819 304.65 367.32 304.65V305.15ZM371.78 310.33C371.78 312.028 371.333 313.272 370.572 314.09C369.812 314.905 368.708 315.33 367.32 315.33V315.83C368.812 315.83 370.062 315.37 370.937 314.43C371.811 313.493 372.28 312.112 372.28 310.33H371.78ZM367.32 315.33H364.77V315.83H367.32V315.33ZM365.02 315.58V304.9H364.52V315.58H365.02ZM364.77 305.15H367.32V304.65H364.77V305.15ZM378.382 325L378.136 324.954L378.08 325.25H378.382V325ZM383.782 325V325.25H384.224L383.996 324.871L383.782 325ZM382.042 310.39L382.288 310.434L382.289 310.431L382.042 310.39ZM382.852 305.89L383.093 305.824L382.607 305.842L382.852 305.89ZM388.072 325L387.831 325.066L387.881 325.25H388.072V325ZM391.672 325V325.25H392L391.913 324.934L391.672 325ZM390.562 320.95L390.321 320.884L390.303 320.95L390.321 321.016L390.562 320.95ZM394.672 305.98L394.918 305.934L394.431 305.914L394.672 305.98ZM398.212 325L397.966 325.046L398.004 325.25H398.212V325ZM401.812 325V325.25H402.113L402.058 324.954L401.812 325ZM397.912 304L398.158 303.954L398.12 303.75H397.912V304ZM394.312 304V303.75H394.121L394.071 303.934L394.312 304ZM390.112 319.3L389.871 319.366L390.111 320.248L390.353 319.366L390.112 319.3ZM385.942 304L386.183 303.934L386.133 303.75H385.942V304ZM382.342 304V303.75H382.135L382.096 303.954L382.342 304ZM378.382 325.25H383.782V324.75H378.382V325.25ZM383.996 324.871C381.789 321.193 381.304 315.892 382.288 310.434L381.796 310.346C380.8 315.868 381.275 321.307 383.568 325.129L383.996 324.871ZM382.289 310.431C382.498 309.173 382.828 307.315 383.097 305.938L382.607 305.842C382.336 307.225 382.006 309.087 381.795 310.349L382.289 310.431ZM382.611 305.956L387.831 325.066L388.313 324.934L383.093 305.824L382.611 305.956ZM388.072 325.25H391.672V324.75H388.072V325.25ZM391.913 324.934L390.803 320.884L390.321 321.016L391.431 325.066L391.913 324.934ZM390.803 321.016L394.913 306.046L394.431 305.914L390.321 320.884L390.803 321.016ZM394.426 306.026L397.966 325.046L398.458 324.954L394.918 305.934L394.426 306.026ZM398.212 325.25H401.812V324.75H398.212V325.25ZM402.058 324.954L398.158 303.954L397.666 304.046L401.566 325.046L402.058 324.954ZM397.912 303.75H394.312V304.25H397.912V303.75ZM394.071 303.934L389.871 319.234L390.353 319.366L394.553 304.066L394.071 303.934ZM390.353 319.234L386.183 303.934L385.701 304.066L389.871 319.366L390.353 319.234ZM385.942 303.75H382.342V304.25H385.942V303.75ZM382.096 303.954L378.136 324.954L378.628 325.046L382.588 304.046L382.096 303.954ZM428.948 300.1V299.85H428.698V300.1H428.948ZM428.948 328.9H428.698V329.15H428.948V328.9ZM430.148 328.9V329.15H430.398V328.9H430.148ZM430.148 300.1H430.398V299.85H430.148V300.1ZM428.698 300.1V328.9H429.198V300.1H428.698ZM428.948 329.15H430.148V328.65H428.948V329.15ZM430.398 328.9V300.1H429.898V328.9H430.398ZM430.148 299.85H428.948V300.35H430.148V299.85ZM457.137 321.52L456.931 321.378L456.809 321.555L456.966 321.702L457.137 321.52ZM472.197 310.42L471.965 310.513L472.103 310.857L472.37 310.6L472.197 310.42ZM475.257 307.48L475.43 307.66L475.589 307.507L475.457 307.33L475.257 307.48ZM459.207 318.52L459.409 318.372L459.201 318.088L459.001 318.378L459.207 318.52ZM457.137 321.52C456.966 321.702 456.966 321.702 456.966 321.702C456.966 321.702 456.966 321.702 456.966 321.703C456.966 321.703 456.966 321.703 456.967 321.703C456.967 321.704 456.968 321.705 456.97 321.706C456.972 321.708 456.976 321.712 456.98 321.716C456.99 321.725 457.004 321.737 457.021 321.753C457.057 321.785 457.11 321.832 457.179 321.891C457.316 322.01 457.518 322.178 457.779 322.379C458.3 322.781 459.056 323.317 459.998 323.852C461.88 324.922 464.518 326 467.517 326V325.5C464.635 325.5 462.084 324.463 460.245 323.418C459.327 322.896 458.591 322.374 458.084 321.983C457.831 321.788 457.636 321.625 457.505 321.512C457.439 321.456 457.389 321.412 457.356 321.382C457.34 321.367 457.327 321.356 457.319 321.348C457.315 321.345 457.312 321.342 457.31 321.34C457.309 321.339 457.309 321.339 457.308 321.338C457.308 321.338 457.308 321.338 457.308 321.338C457.308 321.338 457.308 321.338 457.308 321.338C457.308 321.338 457.308 321.338 457.137 321.52ZM467.517 326C469.988 326 472.133 325.352 473.668 324.275C475.204 323.196 476.137 321.679 476.137 319.96H475.637C475.637 321.481 474.815 322.859 473.381 323.865C471.945 324.873 469.905 325.5 467.517 325.5V326ZM476.137 319.96C476.137 318.214 475.19 316.851 473.829 315.719C472.473 314.591 470.673 313.665 468.902 312.794C467.118 311.917 465.368 311.098 464.058 310.175C462.744 309.249 461.947 308.268 461.947 307.09H461.447C461.447 308.522 462.423 309.634 463.77 310.584C465.121 311.536 466.918 312.376 468.681 313.243C470.458 314.116 472.206 315.019 473.51 316.104C474.81 317.185 475.637 318.421 475.637 319.96H476.137ZM461.947 307.09C461.947 305.573 463.309 304.25 465.207 304.25V303.75C463.085 303.75 461.447 305.247 461.447 307.09H461.947ZM465.207 304.25C467.608 304.25 470.272 306.295 471.965 310.513L472.429 310.327C470.702 306.025 467.906 303.75 465.207 303.75V304.25ZM472.37 310.6L475.43 307.66L475.084 307.3L472.024 310.24L472.37 310.6ZM475.457 307.33C474.568 306.145 473.066 305.065 471.332 304.282C469.596 303.498 467.603 303 465.717 303V303.5C467.52 303.5 469.443 303.977 471.126 304.738C472.812 305.5 474.235 306.535 475.057 307.63L475.457 307.33ZM465.717 303C463.4 303 461.433 303.556 460.038 304.534C458.638 305.516 457.817 306.923 457.817 308.59H458.317C458.317 307.107 459.041 305.844 460.325 304.943C461.615 304.039 463.474 303.5 465.717 303.5V303ZM457.817 308.59C457.817 310.394 458.763 311.774 460.129 312.906C461.489 314.032 463.294 314.937 465.068 315.79C466.856 316.65 468.608 317.457 469.919 318.395C471.23 319.333 472.037 320.359 472.037 321.64H472.537C472.537 320.116 471.566 318.959 470.21 317.989C468.855 317.018 467.052 316.19 465.285 315.34C463.504 314.483 461.754 313.603 460.448 312.521C459.148 311.443 458.317 310.191 458.317 308.59H457.817ZM472.037 321.64C472.037 323.356 470.418 324.75 468.387 324.75V325.25C470.616 325.25 472.537 323.704 472.537 321.64H472.037ZM468.387 324.75C467.336 324.75 466.251 324.366 465.203 323.77C464.157 323.175 463.164 322.379 462.302 321.577C461.441 320.776 460.717 319.973 460.208 319.371C459.953 319.07 459.753 318.82 459.616 318.645C459.548 318.557 459.496 318.489 459.461 318.442C459.443 318.419 459.43 318.401 459.421 318.39C459.417 318.384 459.414 318.379 459.411 318.376C459.41 318.375 459.41 318.374 459.409 318.373C459.409 318.373 459.409 318.373 459.409 318.373C459.409 318.372 459.409 318.372 459.409 318.372C459.408 318.372 459.409 318.372 459.207 318.52C459.005 318.668 459.005 318.668 459.005 318.668C459.005 318.668 459.005 318.668 459.005 318.668C459.005 318.668 459.006 318.669 459.006 318.669C459.007 318.67 459.008 318.671 459.009 318.673C459.011 318.676 459.015 318.681 459.02 318.688C459.029 318.7 459.043 318.719 459.061 318.743C459.098 318.792 459.152 318.863 459.222 318.952C459.362 319.132 459.567 319.387 459.826 319.694C460.344 320.307 461.082 321.124 461.961 321.943C462.84 322.761 463.864 323.585 464.956 324.205C466.045 324.824 467.218 325.25 468.387 325.25V324.75ZM459.001 318.378L456.931 321.378L457.343 321.662L459.413 318.662L459.001 318.378ZM480.995 325H480.745V325.25H480.995V325ZM484.595 325V325.25H484.845V325H484.595ZM484.595 314.89V314.64H484.345V314.89H484.595ZM494.345 314.89H494.595V314.64H494.345V314.89ZM494.345 325H494.095V325.25H494.345V325ZM497.945 325V325.25H498.195V325H497.945ZM497.945 304H498.195V303.75H497.945V304ZM494.345 304V303.75H494.095V304H494.345ZM494.345 314.08V314.33H494.595V314.08H494.345ZM484.595 314.08H484.345V314.33H484.595V314.08ZM484.595 304H484.845V303.75H484.595V304ZM480.995 304V303.75H480.745V304H480.995ZM480.995 325.25H484.595V324.75H480.995V325.25ZM484.845 325V314.89H484.345V325H484.845ZM484.595 315.14H494.345V314.64H484.595V315.14ZM494.095 314.89V325H494.595V314.89H494.095ZM494.345 325.25H497.945V324.75H494.345V325.25ZM498.195 325V304H497.695V325H498.195ZM497.945 303.75H494.345V304.25H497.945V303.75ZM494.095 304V314.08H494.595V304H494.095ZM494.345 313.83H484.595V314.33H494.345V313.83ZM484.845 314.08V304H484.345V314.08H484.845ZM484.595 303.75H480.995V304.25H484.595V303.75ZM480.745 304V325H481.245V304H480.745ZM514.085 326C517.451 326 520.233 324.736 522.173 322.646C524.111 320.559 525.195 317.66 525.195 314.41H524.695C524.695 317.55 523.649 320.321 521.807 322.306C519.966 324.289 517.319 325.5 514.085 325.5V326ZM525.195 314.41C525.195 308.095 520.227 303 513.905 303V303.5C519.943 303.5 524.695 308.365 524.695 314.41H525.195ZM513.905 303C510.63 303 507.848 304.218 505.886 306.284C503.925 308.349 502.795 311.248 502.795 314.59H503.295C503.295 311.362 504.385 308.591 506.249 306.628C508.111 304.667 510.76 303.5 513.905 303.5V303ZM502.795 314.59C502.795 320.935 507.733 326 514.085 326V325.5C508.017 325.5 503.295 320.665 503.295 314.59H502.795ZM506.415 310.84C506.415 309.04 506.927 307.462 507.92 306.337C508.909 305.216 510.397 304.52 512.405 304.52V304.02C510.273 304.02 508.641 304.764 507.545 306.006C506.453 307.243 505.915 308.95 505.915 310.84H506.415ZM512.405 304.52C515.087 304.52 517.322 306.305 518.9 308.896C520.476 311.484 521.365 314.828 521.365 317.83H521.865C521.865 314.742 520.954 311.306 519.327 308.636C517.703 305.97 515.333 304.02 512.405 304.02V304.52ZM521.365 317.83C521.365 319.71 520.88 321.36 519.946 322.534C519.017 323.701 517.628 324.42 515.765 324.42V324.92C517.772 324.92 519.308 324.139 520.337 322.846C521.36 321.56 521.865 319.79 521.865 317.83H521.365ZM515.765 324.42C513.053 324.42 510.72 322.56 509.051 319.895C507.384 317.234 506.415 313.822 506.415 310.84H505.915C505.915 313.918 506.911 317.421 508.627 320.16C510.34 322.895 512.806 324.92 515.765 324.92V324.42ZM535.364 325L535.127 325.08L535.184 325.25H535.364V325ZM538.964 325V325.25H539.144L539.201 325.08L538.964 325ZM542.864 313.39L543.101 313.31L542.864 312.605L542.627 313.31L542.864 313.39ZM546.764 325L546.527 325.08L546.584 325.25H546.764V325ZM550.364 325V325.25H550.544L550.601 325.08L550.364 325ZM557.414 304L557.651 304.08L557.762 303.75H557.414V304ZM552.014 304V303.75H551.672L551.776 304.076L552.014 304ZM549.884 323.56L549.647 323.639L549.9 324.395L550.124 323.63L549.884 323.56ZM544.904 308.68L544.667 308.601L544.64 308.68L544.667 308.759L544.904 308.68ZM546.464 304L546.701 304.079L546.811 303.75H546.464V304ZM545.564 304V303.75H545.383L545.327 303.922L545.564 304ZM544.454 307.36L544.217 307.44L544.457 308.147L544.691 307.438L544.454 307.36ZM543.314 304L543.551 303.92L543.493 303.75H543.314V304ZM539.714 304V303.75H539.367L539.477 304.079L539.714 304ZM542.414 312.07L542.651 312.15L542.678 312.07L542.651 311.991L542.414 312.07ZM538.514 323.68L538.277 323.759L538.514 324.466L538.751 323.76L538.514 323.68ZM531.914 304L532.151 303.921L532.094 303.75H531.914V304ZM528.314 304V303.75H527.966L528.077 304.08L528.314 304ZM535.364 325.25H538.964V324.75H535.364V325.25ZM539.201 325.08L543.101 313.47L542.627 313.31L538.727 324.92L539.201 325.08ZM542.627 313.47L546.527 325.08L547.001 324.92L543.101 313.31L542.627 313.47ZM546.764 325.25H550.364V324.75H546.764V325.25ZM550.601 325.08L557.651 304.08L557.177 303.92L550.127 324.92L550.601 325.08ZM557.414 303.75H552.014V304.25H557.414V303.75ZM551.776 304.076C553.937 310.826 551.484 317.216 549.644 323.49L550.124 323.63C551.944 317.424 554.471 310.854 552.252 303.924L551.776 304.076ZM550.121 323.481L545.141 308.601L544.667 308.759L549.647 323.639L550.121 323.481ZM545.141 308.759L546.701 304.079L546.227 303.921L544.667 308.601L545.141 308.759ZM546.464 303.75H545.564V304.25H546.464V303.75ZM545.327 303.922L544.217 307.282L544.691 307.438L545.801 304.078L545.327 303.922ZM544.691 307.28L543.551 303.92L543.077 304.08L544.217 307.44L544.691 307.28ZM543.314 303.75H539.714V304.25H543.314V303.75ZM539.477 304.079L542.177 312.149L542.651 311.991L539.951 303.921L539.477 304.079ZM542.177 311.99L538.277 323.6L538.751 323.76L542.651 312.15L542.177 311.99ZM538.751 323.601L532.151 303.921L531.677 304.079L538.277 323.759L538.751 323.601ZM531.914 303.75H528.314V304.25H531.914V303.75ZM528.077 304.08L535.127 325.08L535.601 324.92L528.551 303.92L528.077 304.08ZM582.898 312.94L582.819 312.703L582.038 312.963L582.832 313.181L582.898 312.94ZM577.378 312.97L577.448 313.21L578.23 312.983L577.455 312.732L577.378 312.97ZM572.328 319.09C572.328 321.05 573.1 322.747 574.484 323.951C575.866 325.153 577.84 325.85 580.228 325.85V325.35C577.936 325.35 576.086 324.682 574.812 323.574C573.541 322.468 572.828 320.91 572.828 319.09H572.328ZM580.228 325.85C582.587 325.85 584.546 325.153 585.92 323.951C587.296 322.746 588.068 321.049 588.068 319.09H587.568C587.568 320.911 586.855 322.469 585.591 323.574C584.325 324.682 582.49 325.35 580.228 325.35V325.85ZM588.068 319.09C588.068 315.998 586.124 313.566 582.964 312.699L582.832 313.181C585.793 313.994 587.568 316.242 587.568 319.09H588.068ZM582.977 313.177C585.216 312.431 586.688 310.76 586.688 308.47H586.188C586.188 310.5 584.9 312.009 582.819 312.703L582.977 313.177ZM586.688 308.47C586.688 305.256 583.735 303 580.108 303V303.5C583.561 303.5 586.188 305.624 586.188 308.47H586.688ZM580.108 303C576.454 303 573.468 305.254 573.468 308.47H573.968C573.968 305.626 576.623 303.5 580.108 303.5V303ZM573.468 308.47C573.468 310.795 575.006 312.463 577.301 313.208L577.455 312.732C575.31 312.037 573.968 310.525 573.968 308.47H573.468ZM577.309 312.73C574.21 313.629 572.328 316.031 572.328 319.09H572.828C572.828 316.269 574.547 314.051 577.448 313.21L577.309 312.73ZM576.158 319.03C576.158 315.682 577.964 313.61 580.108 313.61V313.11C577.572 313.11 575.658 315.538 575.658 319.03H576.158ZM580.108 313.61C582.377 313.61 584.268 315.748 584.268 319.15H584.768C584.768 315.592 582.759 313.11 580.108 313.11V313.61ZM584.268 319.15C584.268 322.472 582.459 324.63 580.288 324.63V325.13C582.857 325.13 584.768 322.608 584.768 319.15H584.268ZM580.288 324.63C578.054 324.63 576.158 322.408 576.158 319.03H575.658C575.658 322.552 577.663 325.13 580.288 325.13V324.63ZM580.078 304.31C581.558 304.31 582.918 305.807 582.918 308.38H583.418C583.418 305.673 581.958 303.81 580.078 303.81V304.31ZM582.918 308.38C582.918 309.663 582.612 310.656 582.116 311.321C581.626 311.979 580.942 312.33 580.138 312.33V312.83C581.105 312.83 581.936 312.401 582.517 311.619C583.095 310.844 583.418 309.737 583.418 308.38H582.918ZM580.138 312.33C579.336 312.33 578.645 311.973 578.146 311.296C577.642 310.612 577.328 309.589 577.328 308.26H576.828C576.828 309.661 577.159 310.798 577.743 311.592C578.332 312.392 579.17 312.83 580.138 312.83V312.33ZM577.328 308.26C577.328 306.995 577.648 306.001 578.149 305.331C578.646 304.664 579.324 304.31 580.078 304.31V303.81C579.152 303.81 578.33 304.251 577.748 305.032C577.168 305.809 576.828 306.915 576.828 308.26H577.328ZM592.348 321.46C592.348 322.621 593.272 323.54 594.458 323.54V323.04C593.543 323.04 592.848 322.339 592.848 321.46H592.348ZM594.458 323.54C595.616 323.54 596.538 322.618 596.538 321.46H596.038C596.038 322.342 595.34 323.04 594.458 323.04V323.54ZM596.538 321.46C596.538 320.28 595.624 319.32 594.458 319.32V319.82C595.332 319.82 596.038 320.54 596.038 321.46H596.538ZM594.458 319.32C593.264 319.32 592.348 320.277 592.348 321.46H592.848C592.848 320.543 593.551 319.82 594.458 319.82V319.32ZM592.348 312.43C592.348 313.618 593.27 314.54 594.458 314.54V314.04C593.546 314.04 592.848 313.342 592.848 312.43H592.348ZM594.458 314.54C595.618 314.54 596.538 313.615 596.538 312.43H596.038C596.038 313.345 595.337 314.04 594.458 314.04V314.54ZM596.538 312.43C596.538 311.277 595.621 310.32 594.458 310.32V310.82C595.334 310.82 596.038 311.543 596.038 312.43H596.538ZM594.458 310.32C593.267 310.32 592.348 311.275 592.348 312.43H592.848C592.848 311.545 593.548 310.82 594.458 310.82V310.32ZM611.606 326C614.486 326 616.918 324.796 618.627 322.741C620.332 320.689 621.306 317.802 621.306 314.44H620.806C620.806 317.708 619.859 320.476 618.242 322.421C616.628 324.364 614.335 325.5 611.606 325.5V326ZM621.306 314.44C621.306 311.094 620.347 308.235 618.633 306.209C616.915 304.178 614.452 303 611.486 303V303.5C614.309 303.5 616.631 304.617 618.251 306.531C619.874 308.45 620.806 311.186 620.806 314.44H621.306ZM611.486 303C608.518 303 606.084 304.195 604.396 306.249C602.713 308.298 601.786 311.186 601.786 314.56H602.286C602.286 311.274 603.189 308.507 604.782 306.566C606.373 304.63 608.664 303.5 611.486 303.5V303ZM601.786 314.56C601.786 317.924 602.79 320.782 604.527 322.804C606.266 324.829 608.728 326 611.606 326V325.5C608.873 325.5 606.55 324.391 604.906 322.478C603.261 320.563 602.286 317.826 602.286 314.56H601.786ZM605.886 314.44C605.886 311.393 606.473 308.829 607.488 307.037C608.501 305.248 609.922 304.25 611.606 304.25V303.75C609.689 303.75 608.125 304.897 607.053 306.791C605.983 308.681 605.386 311.337 605.386 314.44H605.886ZM611.606 304.25C613.271 304.25 614.662 305.259 615.65 307.071C616.64 308.886 617.206 311.481 617.206 314.56H617.706C617.706 311.429 617.131 308.744 616.089 306.832C615.044 304.916 613.51 303.75 611.606 303.75V304.25ZM617.206 314.56C617.206 317.622 616.618 320.186 615.603 321.974C614.591 323.758 613.17 324.75 611.486 324.75V325.25C613.401 325.25 614.965 324.112 616.038 322.221C617.108 320.334 617.706 317.678 617.706 314.56H617.206ZM611.486 324.75C609.821 324.75 608.43 323.734 607.441 321.918C606.451 320.099 605.886 317.504 605.886 314.44H605.386C605.386 317.556 605.96 320.241 607.002 322.157C608.046 324.076 609.58 325.25 611.486 325.25V324.75ZM636.622 326C639.502 326 641.934 324.796 643.643 322.741C645.348 320.689 646.322 317.802 646.322 314.44H645.822C645.822 317.708 644.875 320.476 643.258 322.421C641.644 324.364 639.351 325.5 636.622 325.5V326ZM646.322 314.44C646.322 311.094 645.363 308.235 643.649 306.209C641.931 304.178 639.468 303 636.502 303V303.5C639.325 303.5 641.647 304.617 643.267 306.531C644.89 308.45 645.822 311.186 645.822 314.44H646.322ZM636.502 303C633.534 303 631.1 304.195 629.412 306.249C627.729 308.298 626.802 311.186 626.802 314.56H627.302C627.302 311.274 628.205 308.507 629.798 306.566C631.389 304.63 633.68 303.5 636.502 303.5V303ZM626.802 314.56C626.802 317.924 627.806 320.782 629.543 322.804C631.282 324.829 633.744 326 636.622 326V325.5C633.889 325.5 631.566 324.391 629.922 322.478C628.277 320.563 627.302 317.826 627.302 314.56H626.802ZM630.902 314.44C630.902 311.393 631.489 308.829 632.504 307.037C633.517 305.248 634.938 304.25 636.622 304.25V303.75C634.705 303.75 633.141 304.897 632.069 306.791C630.999 308.681 630.402 311.337 630.402 314.44H630.902ZM636.622 304.25C638.287 304.25 639.678 305.259 640.666 307.071C641.656 308.886 642.222 311.481 642.222 314.56H642.722C642.722 311.429 642.147 308.744 641.105 306.832C640.06 304.916 638.526 303.75 636.622 303.75V304.25ZM642.222 314.56C642.222 317.622 641.634 320.186 640.619 321.974C639.607 323.758 638.186 324.75 636.502 324.75V325.25C638.417 325.25 639.981 324.112 641.054 322.221C642.124 320.334 642.722 317.678 642.722 314.56H642.222ZM636.502 324.75C634.837 324.75 633.446 323.734 632.457 321.918C631.467 320.099 630.902 317.504 630.902 314.44H630.402C630.402 317.556 630.976 320.241 632.018 322.157C633.062 324.076 634.596 325.25 636.502 325.25V324.75ZM651.768 325H651.518V325.25H651.768V325ZM655.368 325V325.25H655.618V325H655.368ZM655.368 316.48V316.23H655.118V316.48H655.368ZM651.768 304V303.75H651.518V304H651.768ZM655.368 315.58H655.118V315.83H655.368V315.58ZM655.368 304.9V304.65H655.118V304.9H655.368ZM651.768 325.25H655.368V324.75H651.768V325.25ZM655.618 325V316.48H655.118V325H655.618ZM655.368 316.73H658.818V316.23H655.368V316.73ZM658.818 316.73C661.086 316.73 662.999 316.063 664.35 314.903C665.704 313.741 666.478 312.097 666.478 310.18H665.978C665.978 311.953 665.266 313.459 664.025 314.524C662.781 315.592 660.99 316.23 658.818 316.23V316.73ZM666.478 310.18C666.478 308.272 665.786 306.658 664.56 305.523C663.336 304.389 661.599 303.75 659.538 303.75V304.25C661.496 304.25 663.104 304.856 664.22 305.89C665.335 306.922 665.978 308.398 665.978 310.18H666.478ZM659.538 303.75H651.768V304.25H659.538V303.75ZM651.518 304V325H652.018V304H651.518ZM657.918 305.15C659.298 305.15 660.403 305.615 661.165 306.476C661.931 307.34 662.378 308.632 662.378 310.33H662.878C662.878 308.548 662.409 307.125 661.54 306.144C660.667 305.16 659.417 304.65 657.918 304.65V305.15ZM662.378 310.33C662.378 312.028 661.931 313.272 661.17 314.09C660.41 314.905 659.306 315.33 657.918 315.33V315.83C659.41 315.83 660.66 315.37 661.536 314.43C662.409 313.493 662.878 312.112 662.878 310.33H662.378ZM657.918 315.33H655.368V315.83H657.918V315.33ZM655.618 315.58V304.9H655.118V315.58H655.618ZM655.368 305.15H657.918V304.65H655.368V305.15ZM668.98 325L668.734 324.954L668.679 325.25H668.98V325ZM674.38 325V325.25H674.822L674.594 324.871L674.38 325ZM672.64 310.39L672.886 310.434L672.887 310.431L672.64 310.39ZM673.45 305.89L673.691 305.824L673.205 305.842L673.45 305.89ZM678.67 325L678.429 325.066L678.479 325.25H678.67V325ZM682.27 325V325.25H682.598L682.511 324.934L682.27 325ZM681.16 320.95L680.919 320.884L680.901 320.95L680.919 321.016L681.16 320.95ZM685.27 305.98L685.516 305.934L685.029 305.914L685.27 305.98ZM688.81 325L688.564 325.046L688.602 325.25H688.81V325ZM692.41 325V325.25H692.711L692.656 324.954L692.41 325ZM688.51 304L688.756 303.954L688.718 303.75H688.51V304ZM684.91 304V303.75H684.719L684.669 303.934L684.91 304ZM680.71 319.3L680.469 319.366L680.709 320.248L680.951 319.366L680.71 319.3ZM676.54 304L676.781 303.934L676.731 303.75H676.54V304ZM672.94 304V303.75H672.733L672.694 303.954L672.94 304ZM668.98 325.25H674.38V324.75H668.98V325.25ZM674.594 324.871C672.387 321.193 671.902 315.892 672.886 310.434L672.394 310.346C671.398 315.868 671.873 321.307 674.166 325.129L674.594 324.871ZM672.887 310.431C673.096 309.173 673.426 307.315 673.695 305.938L673.205 305.842C672.934 307.225 672.604 309.087 672.393 310.349L672.887 310.431ZM673.209 305.956L678.429 325.066L678.911 324.934L673.691 305.824L673.209 305.956ZM678.67 325.25H682.27V324.75H678.67V325.25ZM682.511 324.934L681.401 320.884L680.919 321.016L682.029 325.066L682.511 324.934ZM681.401 321.016L685.511 306.046L685.029 305.914L680.919 320.884L681.401 321.016ZM685.024 306.026L688.564 325.046L689.056 324.954L685.516 305.934L685.024 306.026ZM688.81 325.25H692.41V324.75H688.81V325.25ZM692.656 324.954L688.756 303.954L688.264 304.046L692.164 325.046L692.656 324.954ZM688.51 303.75H684.91V304.25H688.51V303.75ZM684.669 303.934L680.469 319.234L680.951 319.366L685.151 304.066L684.669 303.934ZM680.951 319.234L676.781 303.934L676.299 304.066L680.469 319.366L680.951 319.234ZM676.54 303.75H672.94V304.25H676.54V303.75ZM672.694 303.954L668.734 324.954L669.226 325.046L673.186 304.046L672.694 303.954Z" fill="#C6905E"/>
</svg>
