<svg id="clover" xmlns="http://www.w3.org/2000/svg" viewBox="0 0 370.5 400.8"><defs><style>.cls-1{fill:#fff;}</style></defs><path class="cls-1" d="M341.2,383.5c.6,34.2-4.5,36.5-3.2,67.5.5,26.1-.1,20.7,9,49.4,3.2,11,5,13,11.8,22.2,7.5,10.8,7.8,16.9,22.3,22.1,5.9,2.4,17.1-3.3,12.9-12-4.5-13.3-12.6-36-16.7-44.9s-3.6-12.3-4.8-21.6c-1.4-5.7-3.8-18.8-3.7-23-2.8-24.2-7-39.3-2.5-61.3,3.1,11.8-.1.8,5.4,24.9,7.5,29.1,16.8,38.8,27,59,3.7,11,12.8,22.1,19.9,26.3C445.1,508,435.2,521.6,440,544c2.2,12.5,16.1,11.9,15-1.6-.4-6.8-2.1-11.3-3.2-15.2,0,4.7-4.9-41.9-2.4-38.4,1.9-4.6,4.9-5.6,12.3-11.1,10.4-7.9,16.4-14.6,25.4-25s8.8-11.7,9-14.1c1.2-10,0-11.8.3-17.2,14.3-3.3,27.5-6.7,35-25.7,2.6-7.1-2.1-13.2-2.9-20.2-11.8-21.5-44.3-46.5-64.9-50.2-26.1-3.5-21,0-30.3-1.9,3.1-5.1,14.4-4.4,19.8-6.5l24.4-7.2a82.2,82.2,0,0,0,22.2-10.5c1.9-1.2,5.2-3.6,7.4-2.4s1.1,5.1,2.8,9.6c.4,1.1,3.5,8.1,9,8.6,15.8-3.4,10.4-17.6,11.1-30,.6-3.5,1.4-3.6,2.5-8.4s.5-5.8,1.5-8.7,4-5.1,6.4-8.8,5.4-11.4,4.7-17.2c-3.9-21.6-35.5-27.6-53-26.3-15.8-.6-21,4.3-29.8,10.7l-3.7,2.2c-1.8,1-4.7,5.2-5.6,5s-.1-15.7.5-31.5c2.4-30.9-18.4-46.1-41.3-49.8-33.5,4.3-47.6,52.2-54.7,76.6-1.8,3.1-3.4,54.5-9.5,23-3-14.9-7.3-18-9.8-28.8-1.8-8.7-2-11.5-6.6-23.3-3.2-8-7.9-14.2-13.2-22.9s-22.4-16.7-30-16.8c-3.8-.6-3.5-3.1-6.8-4.6-7.3-3-19.2,5-25.4,12.3-2.8,4.9-5.6,26.2-4.8,27.5.9,8.8,2.6,13.3,1.7,21.7A3.4,3.4,0,0,1,250,220c-3,.9-5.5-3.8-10.9-4.7-12.9-2-8.5-1.3-17.3.1s-20.5,12.9-25.2,17.6c-8,9-12.2,10-20.5,23-1.8,2.7-1.9,9-.2,16,5.4,20.9,8,31,31.5,39.8,17.5,8.6,13.1,4.3,26.7,8.1,1.4.5,7.6,2.7,7.4,4.7s-6.2,2.6-9.5,3.1c-18.8,3.2-32,17.3-34.2,19.7-20.4,24.4-23.4,67.4,12.3,77.2,2.3.4,5,.6,27.4-3,11-1.8,15.6-2.7,17.3-.3s.5,4.2-2,11.6c-5.1,19.4-6.7,23.8-1.9,37.1,2.9,5.3,4.5,4.4,8.4,10.3,6.5,9.9,6.4,20.4,16.7,17.9,6.2-.2,16.5-10.2,20.8-13.3a22.8,22.8,0,0,0,6.6-6.7c2.9-4,2.2-7.1,4.5-12.5s4.3-7,6.2-9.5c4.3-.7,13.1-49,17-61.4C333.3,387.2,340.6,364.7,341.2,383.5Z" transform="translate(-174.7 -152.2)"/></svg>