<svg width="685" height="392" viewBox="0 0 685 392" fill="none" xmlns="http://www.w3.org/2000/svg">
<path d="M136.538 212.898C131.777 226.32 125.924 235.982 123.855 239.511C118.688 248.336 115.998 255.007 110.741 268.001C106.505 278.494 104.356 283.899 102.971 291.848C102.84 292.592 102.306 299.14 101.226 312.219C100.749 317.991 100.522 321.072 101.258 325.318C101.789 328.361 102.38 329.481 103.47 334.691C104.734 340.733 104.298 340.914 105.105 344.303C106.041 348.253 107.938 356.308 114.464 360.769C115.932 361.773 118.719 363.623 122.263 363.184C122.891 363.102 126.186 362.63 128.057 359.983C129.352 358.141 129.361 356.109 129.363 355.253C129.425 348.171 130.601 341.129 130.586 334.044C130.56 318.61 131.169 320.088 130.83 312.111C130.73 309.869 130.61 308.008 130.923 305.284C131.495 300.301 132.809 298.768 134.285 292.464C135.233 288.414 134.817 288.525 135.827 283.684C136.983 278.133 138.325 274.168 139.015 272.067C144.082 256.599 143.579 250.462 148.631 237.871C152.022 229.405 153.672 228.643 157.159 221.434C157.31 221.117 157.798 220.12 157.997 220.183C158.394 220.307 157.377 224.503 156.832 226.888C156.832 226.888 156.753 227.245 153.958 242.783C151.299 257.587 153.171 275.213 153.768 280.863C154.814 290.651 155.811 292.016 156.255 301.206C156.574 307.909 156.202 310.443 157.428 315.418C159.119 322.268 162.319 327.491 163.785 329.848C171.203 341.775 171.148 342.288 171.798 346.08C172.847 352.218 171.184 357.483 169.346 363.268C166.891 371.049 164.346 373.32 163.853 380.478C163.63 383.716 163.37 388.322 166.227 390.239C168.097 391.497 170.773 391.226 172.592 390.311C174.724 389.232 175.8 387.212 176.847 384.245C178.894 378.449 179.051 374.093 179.477 370.481C179.817 367.622 181.368 362.604 184.455 352.581C188.154 340.6 189.242 339.024 190.584 337.707C193.788 334.568 196.556 334.735 204.659 332.651C216.022 329.728 223.31 326.12 234.383 320.635C244.167 315.796 245.777 313.899 246.737 311.996C250.016 305.481 251.655 302.213 251.987 299.633C252.027 299.299 252.152 298.192 252.91 297.773C253.954 297.201 258.827 298.956 259.295 299.051C262.976 299.818 270.103 299.298 277.146 297.537C278.951 297.083 285.572 294.359 290.852 288.336C293 285.891 293.665 283.829 293.917 281.255C294.154 278.879 294.019 277.48 294.777 274.151C295.141 272.558 295.317 271.043 295.361 270.604C295.827 266.044 290.615 251.248 289.07 248.207C282.63 235.514 279.296 229.457 276.371 225.555C271.308 218.795 267.171 211.423 258.531 206.529C242.986 197.718 237.996 196.626 237.996 196.626C237.016 196.329 233.861 195.399 233.93 194.473C234.005 193.511 236.886 193.403 237.745 193.377C241.023 193.277 249.05 195.563 252.66 195.96C255.129 196.237 268.287 197.618 275.487 198.268C283.261 198.969 289.877 198.716 297.537 197.209C299.553 196.812 303.125 195.976 304.532 197.696C305.815 199.266 303.689 202.343 303.558 206.612C303.523 207.737 303.696 214.605 308.124 216.897C310.463 218.104 317.402 216.524 320.255 213.434C321.502 212.088 322.505 209.347 324.522 203.859C326.368 198.836 326.307 198.013 327.706 195.755C329.362 193.059 330.062 193.231 332.623 189.642C335.327 185.849 335.022 185.003 336.837 182.917C339.516 179.824 341.908 180.051 345.198 177.745C347.281 176.286 353.62 170.155 355.063 165.043C357.243 157.364 352.95 149.801 350.76 147.166C349.396 145.532 343.962 137.568 335.988 132.598C329.09 128.304 321.367 125.541 319.903 124.976C311.302 121.646 304.994 120.06 300.869 121.388C297.336 122.532 293.342 123.281 291.401 123.64C290.368 123.828 288.769 124.065 287.571 124.204C285.696 124.425 281.879 126.922 281.144 126.434C279.794 125.546 286.432 113.316 292.35 100.4C297.913 88.2719 297.21 86.4049 297.366 84.9602C298.659 73.3999 293.773 64.2492 292.131 61.5377C289.813 57.7003 281.578 47.4232 275.011 44.717C265.844 40.9394 256.559 45.2534 251.289 47.0642C242.354 50.1297 237.181 54.4246 228.634 61.8467C224.14 65.7493 221.089 68.9419 217.69 72.5069C210.433 80.1101 203.943 88.6914 203.179 89.7885C200.504 93.6522 199.271 96.6203 194.424 104.905C190.58 111.49 188.04 115.808 187.157 115.561C186.249 115.304 186.085 112.627 187.424 105.594C189.973 92.2141 187.458 88.1204 189.087 78.276C189.653 74.8677 190.047 74.1245 190.652 69.817C190.863 68.3361 191.562 63.1133 191.608 56.6378C191.668 48.9217 189.897 42.077 188.428 33.0786C187.372 26.6263 175.534 12.839 172.943 10.8948C172.31 10.4197 170.58 9.6486 169.148 8.74691C166.254 6.92149 167.313 4.94312 165.101 2.55153C162.947 0.232457 160.861 -0.266612 155.624 0.116577C151.288 0.442614 145.579 0.573241 139.722 4.11836C138.487 4.86584 136.33 8.4459 134.422 10.7562C129.877 16.2735 126.405 24.8423 126.268 25.2923C123.992 32.9912 123.854 37.3255 120.253 43.9817C119.068 46.171 117.079 45.5559 116.583 45.5071C113.789 45.2127 113.281 40.4367 109.079 37.8581C99.0929 31.7374 102.458 33.8638 94.6885 32.0158C92.9286 31.6022 90.6423 31.6143 87.8547 32.2279C79.5956 34.0533 72.4115 35.6595 67.6134 38.0054C57.923 42.7365 54.0866 42.1098 42.6757 50.0461C40.2186 51.7502 37.9583 56.9042 37.0109 63.3199C35.3463 74.5518 33.6195 86.1476 39.5454 95.97C40.2088 97.0808 43.3399 100.484 49.5819 107.292C56.728 115.075 58.2601 116.184 59.3641 116.911C63.0921 119.363 65.3725 119.767 69.0928 123.16C70.0714 124.05 74.48 128.067 73.6142 129.648C72.7875 131.157 67.6092 129.647 64.6184 128.979C47.916 125.222 32.1064 132.358 29.4463 133.609C16.2684 139.824 9.62723 150.641 7.79591 153.713C4.32048 159.544 -2.83277 171.533 1.19676 185.247C1.94968 187.797 4.93224 196.718 13.1568 202.074C14.9394 203.237 17.1377 204.338 37.0392 209.014C46.8255 211.313 50.9879 212.143 51.5517 214.702C52.0065 216.769 50.5077 218.371 45.8993 223.687C38.8699 231.803 35.5049 238.644 34.7827 240.254C32.6429 245.069 31.0955 248.871 31.6347 253.903C32.2038 259.289 33.8258 259.09 35.0422 265.366C36.4862 272.815 35.637 277.1 36.1371 280.334C36.8277 284.786 42.4005 285.836 42.8157 285.988C48.1303 287.925 60.1202 283.197 64.7657 282.073C68.8155 281.094 70.3546 280.15 72.5289 278.778C76.303 276.409 76.8412 273.612 80.5484 269.892C83.7586 266.668 86.5834 265.514 89.0376 264.101C92.6362 262.04 95.5515 259.366 110.046 238.504C117.327 228.028 119.205 224.937 124.26 218.822C127.177 215.291 135.782 204.865 137.66 206.058C138.602 206.728 137.602 209.889 136.538 212.898Z" fill="#FFF0C8" fill-opacity="0.2"/>
<path d="M147.72 219.169H193.62V201.169C189.12 211.469 180.72 215.469 159.72 215.969V149.169H147.72V219.169Z" fill="#FFD057"/>
<path d="M196.451 189.469C196.451 208.769 208.251 221.669 225.951 221.669C241.951 221.669 250.751 210.369 250.751 189.169V149.169H232.751C240.851 157.269 247.751 173.069 247.751 190.169C247.751 207.469 240.751 219.169 227.451 219.169C215.451 219.169 208.451 209.669 208.451 193.269V149.169H196.451V189.469Z" fill="#FFD057"/>
<path d="M292.005 221.669C312.705 221.669 324.105 203.969 324.105 203.969L321.605 202.069C321.605 202.069 312.605 213.069 299.305 213.069C281.805 213.069 266.105 194.769 266.105 172.069C266.105 158.569 275.005 150.069 285.505 150.069C300.605 150.069 314.505 166.269 314.505 166.369L321.705 156.869C321.705 156.669 309.305 146.669 292.605 146.669C271.605 146.669 255.705 162.669 255.705 184.469C255.705 205.969 272.005 221.669 292.005 221.669Z" fill="#FFD057"/>
<path d="M340.58 219.169V184.169L367.18 219.169H379.18L348.38 178.769L373.78 149.169H355.78C359.18 163.069 349.08 174.169 340.58 184.169V149.169H328.58V219.169H340.58Z" fill="#FFD057"/>
<path d="M400.387 191.269V219.169H412.387V191.269L436.487 149.169H418.987C425.787 160.569 415.687 179.869 410.887 188.669L388.287 149.169H376.287L400.387 191.269Z" fill="#FFD057"/>
<path d="M465.494 149.169V219.169H490.094C506.094 219.169 524.794 210.469 524.794 184.169C524.794 157.869 506.294 149.169 490.294 149.169H465.494ZM487.094 152.169C503.294 152.169 512.794 162.269 512.794 184.169C512.794 206.069 503.294 216.369 487.094 216.369H477.494V152.169H487.094Z" fill="#FFD057"/>
<path d="M542.029 219.169C538.729 213.669 537.229 206.569 537.429 198.369L564.129 198.469L571.129 219.169H583.129L559.629 149.169H547.629L524.029 219.169H542.029ZM537.629 195.669C538.029 189.169 539.529 182.069 542.029 174.669C544.229 168.269 547.329 158.969 549.129 153.569L563.229 195.669H537.629Z" fill="#FFD057"/>
<path d="M594.625 191.269V219.169H606.625V191.269L630.725 149.169H613.225C620.025 160.569 609.925 179.869 605.125 188.669L582.525 149.169H570.525L594.625 191.269Z" fill="#FFD057"/>
<path d="M634.732 219.169H684.632V201.169C679.732 212.469 668.132 215.669 646.732 216.069V183.669L669.632 186.669V180.669H646.732V152.269C668.132 152.669 679.732 155.869 684.632 167.169V149.169H634.732V219.169Z" fill="#FFD057"/>
<path d="M151.08 280H155.4V254.8H151.08V280ZM163.849 254.8V280H172.705C178.465 280 185.197 276.868 185.197 267.4C185.197 257.932 178.537 254.8 172.777 254.8H163.849ZM171.625 255.88C177.457 255.88 180.877 259.516 180.877 267.4C180.877 275.284 177.457 278.992 171.625 278.992H168.169V255.88H171.625ZM191.722 280H198.202C195.502 275.5 194.926 269.056 196.114 262.468C196.366 260.956 196.762 258.724 197.086 257.068L203.35 280H207.67L206.338 275.14L211.27 257.176L215.518 280H219.838L215.158 254.8H210.838L205.798 273.16L200.794 254.8H196.474L191.722 280ZM242.502 280H263.202V273.52C261.834 276.688 249.558 277.084 244.554 277.12C247.758 269.74 262.878 267.94 262.878 260.308C262.878 256.852 259.782 253.9 253.734 253.9C247.362 253.9 243.978 257.644 243.978 257.644L244.77 258.508C244.77 258.508 248.334 254.8 253.122 254.8C256.614 254.8 258.558 256.6 258.558 258.94C258.558 265.528 242.502 271.468 242.502 280ZM288.414 270.712V254.8H285.75L270.954 270.712L272.394 273.772H284.094V280H288.414V273.772H291.006V270.712H288.414ZM272.394 270.712L284.094 258.184V270.712H272.394ZM310.939 280.9C317.671 280.9 322.279 275.284 322.279 267.328C322.279 259.408 317.743 253.9 310.795 253.9C303.847 253.9 299.455 259.48 299.455 267.472C299.455 275.428 304.207 280.9 310.939 280.9ZM303.775 267.328C303.775 259.948 306.619 254.8 310.939 254.8C315.223 254.8 317.959 260.02 317.959 267.472C317.959 274.888 315.115 280 310.795 280C306.511 280 303.775 274.744 303.775 267.328ZM346.394 250.12V284.68H347.834V250.12H346.394ZM371.58 280H375.9V267.868H387.6V280H391.92V254.8H387.6V266.896H375.9V254.8H371.58V280ZM407.94 280H412.26L416.94 266.068L421.62 280H425.94L434.4 254.8H427.92C430.548 263.008 427.56 270.784 425.364 278.272L419.388 260.416L421.26 254.8H420.18L418.848 258.832L417.48 254.8H413.16L416.4 264.484L411.72 278.416L403.8 254.8H399.48L407.94 280ZM446.297 280V267.4L455.873 280H460.193L449.105 265.456L458.249 254.8H451.769C452.993 259.804 449.357 263.8 446.297 267.4V254.8H441.977V280H446.297ZM495.073 280.9C501.805 280.9 506.413 275.284 506.413 267.328C506.413 259.408 501.877 253.9 494.929 253.9C487.981 253.9 483.589 259.48 483.589 267.472C483.589 275.428 488.341 280.9 495.073 280.9ZM487.909 267.328C487.909 259.948 490.753 254.8 495.073 254.8C499.357 254.8 502.093 260.02 502.093 267.472C502.093 274.888 499.249 280 494.929 280C490.645 280 487.909 274.744 487.909 267.328ZM515.948 278.524C515.948 278.524 520.052 280.9 525.74 280.9C532.292 280.9 536.9 277.516 536.9 273.196C536.9 269.452 533.48 266.608 527.936 265.528C532.436 264.592 535.1 262.324 535.1 259.552C535.1 256.204 531.968 253.9 526.856 253.9C520.412 253.9 517.028 257.5 517.028 257.5L517.856 258.364C517.856 258.364 521.384 254.8 525.848 254.8C528.692 254.8 530.78 256.276 530.78 258.724C530.78 262.36 526.208 265.06 522.68 265.06L523.112 265.996C528.152 265.996 532.58 269.056 532.58 272.872C532.58 277.192 529.52 280 526.424 280C521.744 280 518.252 275.716 518.252 275.716L515.948 278.524Z" fill="#C6905E"/>
<path d="M151.08 280H150.83V280.25H151.08V280ZM155.4 280V280.25H155.65V280H155.4ZM155.4 254.8H155.65V254.55H155.4V254.8ZM151.08 254.8V254.55H150.83V254.8H151.08ZM151.08 280.25H155.4V279.75H151.08V280.25ZM155.65 280V254.8H155.15V280H155.65ZM155.4 254.55H151.08V255.05H155.4V254.55ZM150.83 254.8V280H151.33V254.8H150.83ZM163.849 254.8V254.55H163.599V254.8H163.849ZM163.849 280H163.599V280.25H163.849V280ZM168.169 278.992H167.919V279.242H168.169V278.992ZM168.169 255.88V255.63H167.919V255.88H168.169ZM163.599 254.8V280H164.099V254.8H163.599ZM163.849 280.25H172.705V279.75H163.849V280.25ZM172.705 280.25C175.625 280.25 178.81 279.457 181.269 277.444C183.737 275.424 185.447 272.2 185.447 267.4H184.947C184.947 272.068 183.29 275.144 180.952 277.057C178.606 278.977 175.544 279.75 172.705 279.75V280.25ZM185.447 267.4C185.447 262.601 183.756 259.377 181.306 257.357C178.864 255.343 175.697 254.55 172.777 254.55V255.05C175.616 255.05 178.659 255.823 180.988 257.742C183.308 259.655 184.947 262.731 184.947 267.4H185.447ZM172.777 254.55H163.849V255.05H172.777V254.55ZM171.625 256.13C174.486 256.13 176.721 257.02 178.246 258.844C179.778 260.676 180.627 263.489 180.627 267.4H181.127C181.127 263.427 180.266 260.48 178.63 258.523C176.987 256.558 174.595 255.63 171.625 255.63V256.13ZM180.627 267.4C180.627 271.311 179.778 274.143 178.245 275.993C176.719 277.835 174.485 278.742 171.625 278.742V279.242C174.597 279.242 176.988 278.295 178.63 276.312C180.266 274.337 181.127 271.373 181.127 267.4H180.627ZM171.625 278.742H168.169V279.242H171.625V278.742ZM168.419 278.992V255.88H167.919V278.992H168.419ZM168.169 256.13H171.625V255.63H168.169V256.13ZM191.722 280L191.476 279.954L191.42 280.25H191.722V280ZM198.202 280V280.25H198.644L198.416 279.871L198.202 280ZM196.114 262.468L196.36 262.512L196.361 262.509L196.114 262.468ZM197.086 257.068L197.327 257.002L196.841 257.02L197.086 257.068ZM203.35 280L203.109 280.066L203.159 280.25H203.35V280ZM207.67 280V280.25H207.998L207.911 279.934L207.67 280ZM206.338 275.14L206.097 275.074L206.079 275.14L206.097 275.206L206.338 275.14ZM211.27 257.176L211.516 257.13L211.029 257.11L211.27 257.176ZM215.518 280L215.272 280.046L215.31 280.25H215.518V280ZM219.838 280V280.25H220.139L220.084 279.954L219.838 280ZM215.158 254.8L215.404 254.754L215.366 254.55H215.158V254.8ZM210.838 254.8V254.55H210.647L210.597 254.734L210.838 254.8ZM205.798 273.16L205.557 273.226L205.797 274.108L206.039 273.226L205.798 273.16ZM200.794 254.8L201.035 254.734L200.985 254.55H200.794V254.8ZM196.474 254.8V254.55H196.267L196.228 254.754L196.474 254.8ZM191.722 280.25H198.202V279.75H191.722V280.25ZM198.416 279.871C195.759 275.443 195.178 269.068 196.36 262.512L195.868 262.424C194.674 269.044 195.245 275.557 197.988 280.129L198.416 279.871ZM196.361 262.509C196.612 260.999 197.008 258.769 197.331 257.116L196.841 257.02C196.516 258.679 196.12 260.913 195.867 262.427L196.361 262.509ZM196.845 257.134L203.109 280.066L203.591 279.934L197.327 257.002L196.845 257.134ZM203.35 280.25H207.67V279.75H203.35V280.25ZM207.911 279.934L206.579 275.074L206.097 275.206L207.429 280.066L207.911 279.934ZM206.579 275.206L211.511 257.242L211.029 257.11L206.097 275.074L206.579 275.206ZM211.024 257.222L215.272 280.046L215.764 279.954L211.516 257.13L211.024 257.222ZM215.518 280.25H219.838V279.75H215.518V280.25ZM220.084 279.954L215.404 254.754L214.912 254.846L219.592 280.046L220.084 279.954ZM215.158 254.55H210.838V255.05H215.158V254.55ZM210.597 254.734L205.557 273.094L206.039 273.226L211.079 254.866L210.597 254.734ZM206.039 273.094L201.035 254.734L200.553 254.866L205.557 273.226L206.039 273.094ZM200.794 254.55H196.474V255.05H200.794V254.55ZM196.228 254.754L191.476 279.954L191.968 280.046L196.72 254.846L196.228 254.754ZM242.502 280H242.252V280.25H242.502V280ZM263.202 280V280.25H263.452V280H263.202ZM263.202 273.52H263.452L262.972 273.421L263.202 273.52ZM244.554 277.12L244.324 277.02L244.171 277.373L244.556 277.37L244.554 277.12ZM243.978 257.644L243.792 257.476L243.64 257.645L243.793 257.813L243.978 257.644ZM244.77 258.508L244.585 258.677L244.765 258.873L244.95 258.681L244.77 258.508ZM242.502 280.25H263.202V279.75H242.502V280.25ZM263.452 280V273.52H262.952V280H263.452ZM262.972 273.421C262.828 273.756 262.529 274.075 262.075 274.374C261.623 274.672 261.033 274.94 260.334 275.177C258.936 275.653 257.135 275.998 255.209 276.247C251.359 276.744 247.051 276.852 244.552 276.87L244.556 277.37C247.06 277.352 251.392 277.244 255.273 276.742C257.212 276.492 259.051 276.142 260.495 275.651C261.217 275.405 261.85 275.121 262.351 274.791C262.85 274.462 263.234 274.076 263.431 273.619L262.972 273.421ZM244.783 277.22C245.557 275.436 247.06 273.972 248.913 272.657C250.767 271.341 252.94 270.195 255.039 269.027C257.127 267.865 259.142 266.681 260.635 265.3C262.132 263.916 263.128 262.31 263.128 260.308H262.628C262.628 262.122 261.733 263.603 260.295 264.933C258.853 266.268 256.888 267.426 254.796 268.59C252.713 269.749 250.506 270.913 248.624 272.249C246.741 273.585 245.152 275.114 244.324 277.02L244.783 277.22ZM263.128 260.308C263.128 258.499 262.315 256.825 260.726 255.609C259.14 254.397 256.796 253.65 253.734 253.65V254.15C256.719 254.15 258.947 254.879 260.422 256.007C261.892 257.131 262.628 258.661 262.628 260.308H263.128ZM253.734 253.65C250.497 253.65 248.016 254.601 246.342 255.555C245.506 256.031 244.872 256.508 244.445 256.868C244.232 257.047 244.07 257.198 243.961 257.304C243.907 257.357 243.865 257.399 243.837 257.429C243.823 257.443 243.812 257.455 243.805 257.463C243.801 257.467 243.798 257.47 243.796 257.472C243.795 257.473 243.794 257.474 243.793 257.475C243.793 257.475 243.793 257.476 243.793 257.476C243.793 257.476 243.792 257.476 243.792 257.476C243.792 257.476 243.792 257.476 243.978 257.644C244.163 257.812 244.163 257.812 244.163 257.812C244.163 257.812 244.163 257.812 244.163 257.812C244.163 257.812 244.163 257.812 244.163 257.812C244.163 257.811 244.164 257.811 244.164 257.81C244.166 257.809 244.168 257.807 244.171 257.804C244.176 257.797 244.185 257.788 244.198 257.775C244.222 257.75 244.26 257.711 244.31 257.662C244.411 257.564 244.564 257.422 244.767 257.25C245.174 256.908 245.784 256.449 246.59 255.989C248.202 255.071 250.599 254.15 253.734 254.15V253.65ZM243.793 257.813L244.585 258.677L244.954 258.339L244.162 257.475L243.793 257.813ZM244.77 258.508C244.95 258.681 244.95 258.681 244.95 258.681C244.95 258.681 244.95 258.681 244.95 258.681C244.95 258.681 244.95 258.681 244.95 258.681C244.95 258.681 244.951 258.68 244.952 258.68C244.953 258.678 244.955 258.676 244.958 258.673C244.965 258.666 244.974 258.656 244.987 258.644C245.013 258.618 245.052 258.579 245.104 258.53C245.208 258.431 245.363 258.29 245.563 258.119C245.965 257.778 246.55 257.322 247.282 256.866C248.75 255.953 250.791 255.05 253.122 255.05V254.55C250.664 254.55 248.53 255.501 247.018 256.442C246.261 256.913 245.656 257.384 245.239 257.738C245.031 257.915 244.87 258.063 244.76 258.167C244.705 258.219 244.663 258.261 244.635 258.289C244.62 258.303 244.609 258.315 244.602 258.322C244.598 258.326 244.595 258.329 244.593 258.331C244.592 258.332 244.591 258.333 244.591 258.334C244.59 258.334 244.59 258.334 244.59 258.334C244.59 258.334 244.59 258.335 244.59 258.335C244.59 258.335 244.589 258.335 244.77 258.508ZM253.122 255.05C254.827 255.05 256.125 255.489 256.992 256.187C257.855 256.882 258.308 257.845 258.308 258.94H258.808C258.808 257.695 258.288 256.588 257.306 255.798C256.328 255.011 254.909 254.55 253.122 254.55V255.05ZM258.308 258.94C258.308 260.487 257.362 262.033 255.866 263.64C254.374 265.242 252.383 266.856 250.369 268.55C248.363 270.236 246.338 271.998 244.816 273.879C243.294 275.76 242.252 277.786 242.252 280H242.752C242.752 277.948 243.717 276.032 245.205 274.194C246.693 272.355 248.683 270.621 250.691 268.932C252.69 267.251 254.713 265.611 256.232 263.98C257.746 262.354 258.808 260.687 258.808 258.94H258.308ZM288.414 270.712H288.164V270.962H288.414V270.712ZM288.414 254.8H288.664V254.55H288.414V254.8ZM285.75 254.8V254.55H285.641L285.567 254.63L285.75 254.8ZM270.954 270.712L270.771 270.542L270.656 270.666L270.728 270.818L270.954 270.712ZM272.394 273.772L272.168 273.878L272.236 274.022H272.394V273.772ZM284.094 273.772H284.344V273.522H284.094V273.772ZM284.094 280H283.844V280.25H284.094V280ZM288.414 280V280.25H288.664V280H288.414ZM288.414 273.772V273.522H288.164V273.772H288.414ZM291.006 273.772V274.022H291.256V273.772H291.006ZM291.006 270.712H291.256V270.462H291.006V270.712ZM272.394 270.712L272.212 270.541L271.819 270.962H272.394V270.712ZM284.094 258.184H284.344V257.55L283.912 258.013L284.094 258.184ZM284.094 270.712V270.962H284.344V270.712H284.094ZM288.664 270.712V254.8H288.164V270.712H288.664ZM288.414 254.55H285.75V255.05H288.414V254.55ZM285.567 254.63L270.771 270.542L271.137 270.882L285.933 254.97L285.567 254.63ZM270.728 270.818L272.168 273.878L272.621 273.666L271.181 270.606L270.728 270.818ZM272.394 274.022H284.094V273.522H272.394V274.022ZM283.844 273.772V280H284.344V273.772H283.844ZM284.094 280.25H288.414V279.75H284.094V280.25ZM288.664 280V273.772H288.164V280H288.664ZM288.414 274.022H291.006V273.522H288.414V274.022ZM291.256 273.772V270.712H290.756V273.772H291.256ZM291.006 270.462H288.414V270.962H291.006V270.462ZM272.577 270.883L284.277 258.355L283.912 258.013L272.212 270.541L272.577 270.883ZM283.844 258.184V270.712H284.344V258.184H283.844ZM284.094 270.462H272.394V270.962H284.094V270.462ZM310.939 281.15C314.38 281.15 317.285 279.712 319.326 277.257C321.363 274.806 322.529 271.353 322.529 267.328H322.029C322.029 271.259 320.891 274.592 318.941 276.938C316.995 279.28 314.23 280.65 310.939 280.65V281.15ZM322.529 267.328C322.529 263.322 321.381 259.904 319.333 257.483C317.282 255.058 314.34 253.65 310.795 253.65V254.15C314.198 254.15 316.998 255.496 318.951 257.805C320.908 260.118 322.029 263.414 322.029 267.328H322.529ZM310.795 253.65C307.248 253.65 304.341 255.077 302.326 257.53C300.315 259.979 299.205 263.432 299.205 267.472H299.705C299.705 263.52 300.791 260.187 302.713 257.848C304.63 255.513 307.394 254.15 310.795 254.15V253.65ZM299.205 267.472C299.205 271.499 300.408 274.917 302.483 277.332C304.56 279.751 307.5 281.15 310.939 281.15V280.65C307.645 280.65 304.844 279.313 302.862 277.007C300.878 274.697 299.705 271.401 299.705 267.472H299.205ZM304.025 267.328C304.025 263.666 304.731 260.58 305.954 258.42C307.176 256.263 308.895 255.05 310.939 255.05V254.55C308.663 254.55 306.8 255.911 305.519 258.173C304.241 260.432 303.525 263.61 303.525 267.328H304.025ZM310.939 255.05C312.961 255.05 314.645 256.277 315.836 258.461C317.029 260.649 317.709 263.772 317.709 267.472H318.209C318.209 263.72 317.521 260.507 316.275 258.222C315.027 255.933 313.201 254.55 310.939 254.55V255.05ZM317.709 267.472C317.709 271.152 317.002 274.238 315.779 276.394C314.559 278.545 312.839 279.75 310.795 279.75V280.25C313.07 280.25 314.933 278.899 316.214 276.64C317.493 274.386 318.209 271.208 318.209 267.472H317.709ZM310.795 279.75C308.773 279.75 307.09 278.515 305.898 276.326C304.705 274.133 304.025 271.01 304.025 267.328H303.525C303.525 271.062 304.213 274.275 305.459 276.564C306.706 278.857 308.532 280.25 310.795 280.25V279.75ZM346.394 250.12V249.87H346.144V250.12H346.394ZM346.394 284.68H346.144V284.93H346.394V284.68ZM347.834 284.68V284.93H348.084V284.68H347.834ZM347.834 250.12H348.084V249.87H347.834V250.12ZM346.144 250.12V284.68H346.644V250.12H346.144ZM346.394 284.93H347.834V284.43H346.394V284.93ZM348.084 284.68V250.12H347.584V284.68H348.084ZM347.834 249.87H346.394V250.37H347.834V249.87ZM371.58 280H371.33V280.25H371.58V280ZM375.9 280V280.25H376.15V280H375.9ZM375.9 267.868V267.618H375.65V267.868H375.9ZM387.6 267.868H387.85V267.618H387.6V267.868ZM387.6 280H387.35V280.25H387.6V280ZM391.92 280V280.25H392.17V280H391.92ZM391.92 254.8H392.17V254.55H391.92V254.8ZM387.6 254.8V254.55H387.35V254.8H387.6ZM387.6 266.896V267.146H387.85V266.896H387.6ZM375.9 266.896H375.65V267.146H375.9V266.896ZM375.9 254.8H376.15V254.55H375.9V254.8ZM371.58 254.8V254.55H371.33V254.8H371.58ZM371.58 280.25H375.9V279.75H371.58V280.25ZM376.15 280V267.868H375.65V280H376.15ZM375.9 268.118H387.6V267.618H375.9V268.118ZM387.35 267.868V280H387.85V267.868H387.35ZM387.6 280.25H391.92V279.75H387.6V280.25ZM392.17 280V254.8H391.67V280H392.17ZM391.92 254.55H387.6V255.05H391.92V254.55ZM387.35 254.8V266.896H387.85V254.8H387.35ZM387.6 266.646H375.9V267.146H387.6V266.646ZM376.15 266.896V254.8H375.65V266.896H376.15ZM375.9 254.55H371.58V255.05H375.9V254.55ZM371.33 254.8V280H371.83V254.8H371.33ZM407.94 280L407.703 280.08L407.76 280.25H407.94V280ZM412.26 280V280.25H412.44L412.497 280.08L412.26 280ZM416.94 266.068L417.177 265.988L416.94 265.283L416.703 265.988L416.94 266.068ZM421.62 280L421.383 280.08L421.44 280.25H421.62V280ZM425.94 280V280.25H426.12L426.177 280.08L425.94 280ZM434.4 254.8L434.637 254.88L434.748 254.55H434.4V254.8ZM427.92 254.8V254.55H427.577L427.682 254.876L427.92 254.8ZM425.364 278.272L425.127 278.351L425.38 279.107L425.604 278.342L425.364 278.272ZM419.388 260.416L419.151 260.337L419.124 260.416L419.151 260.495L419.388 260.416ZM421.26 254.8L421.497 254.879L421.607 254.55H421.26V254.8ZM420.18 254.8V254.55H419.999L419.943 254.722L420.18 254.8ZM418.848 258.832L418.611 258.912L418.851 259.619L419.085 258.91L418.848 258.832ZM417.48 254.8L417.717 254.72L417.659 254.55H417.48V254.8ZM413.16 254.8V254.55H412.813L412.923 254.879L413.16 254.8ZM416.4 264.484L416.637 264.564L416.664 264.484L416.637 264.405L416.4 264.484ZM411.72 278.416L411.483 278.495L411.72 279.202L411.957 278.496L411.72 278.416ZM403.8 254.8L404.037 254.721L403.98 254.55H403.8V254.8ZM399.48 254.8V254.55H399.132L399.243 254.88L399.48 254.8ZM407.94 280.25H412.26V279.75H407.94V280.25ZM412.497 280.08L417.177 266.148L416.703 265.988L412.023 279.92L412.497 280.08ZM416.703 266.148L421.383 280.08L421.857 279.92L417.177 265.988L416.703 266.148ZM421.62 280.25H425.94V279.75H421.62V280.25ZM426.177 280.08L434.637 254.88L434.163 254.72L425.703 279.92L426.177 280.08ZM434.4 254.55H427.92V255.05H434.4V254.55ZM427.682 254.876C430.281 262.994 427.33 270.68 425.124 278.202L425.604 278.342C427.79 270.888 430.815 263.022 428.158 254.724L427.682 254.876ZM425.601 278.193L419.625 260.337L419.151 260.495L425.127 278.351L425.601 278.193ZM419.625 260.495L421.497 254.879L421.023 254.721L419.151 260.337L419.625 260.495ZM421.26 254.55H420.18V255.05H421.26V254.55ZM419.943 254.722L418.611 258.754L419.085 258.91L420.417 254.878L419.943 254.722ZM419.085 258.752L417.717 254.72L417.243 254.88L418.611 258.912L419.085 258.752ZM417.48 254.55H413.16V255.05H417.48V254.55ZM412.923 254.879L416.163 264.563L416.637 264.405L413.397 254.721L412.923 254.879ZM416.163 264.404L411.483 278.336L411.957 278.496L416.637 264.564L416.163 264.404ZM411.957 278.337L404.037 254.721L403.563 254.879L411.483 278.495L411.957 278.337ZM403.8 254.55H399.48V255.05H403.8V254.55ZM399.243 254.88L407.703 280.08L408.177 279.92L399.717 254.72L399.243 254.88ZM446.297 280V280.25H446.547V280H446.297ZM446.297 267.4L446.496 267.249L446.047 266.658V267.4H446.297ZM455.873 280L455.674 280.151L455.749 280.25H455.873V280ZM460.193 280V280.25H460.698L460.392 279.848L460.193 280ZM449.105 265.456L448.915 265.293L448.783 265.447L448.906 265.608L449.105 265.456ZM458.249 254.8L458.439 254.963L458.793 254.55H458.249V254.8ZM451.769 254.8V254.55H451.45L451.526 254.859L451.769 254.8ZM446.297 267.4H446.047V268.08L446.487 267.562L446.297 267.4ZM446.297 254.8H446.547V254.55H446.297V254.8ZM441.977 254.8V254.55H441.727V254.8H441.977ZM441.977 280H441.727V280.25H441.977V280ZM446.547 280V267.4H446.047V280H446.547ZM446.098 267.551L455.674 280.151L456.072 279.849L446.496 267.249L446.098 267.551ZM455.873 280.25H460.193V279.75H455.873V280.25ZM460.392 279.848L449.304 265.304L448.906 265.608L459.994 280.152L460.392 279.848ZM449.295 265.619L458.439 254.963L458.059 254.637L448.915 265.293L449.295 265.619ZM458.249 254.55H451.769V255.05H458.249V254.55ZM451.526 254.859C452.119 257.282 451.539 259.467 450.42 261.506C449.297 263.553 447.643 265.43 446.106 267.238L446.487 267.562C448.011 265.77 449.705 263.849 450.859 261.747C452.016 259.637 452.643 257.322 452.012 254.741L451.526 254.859ZM446.547 267.4V254.8H446.047V267.4H446.547ZM446.297 254.55H441.977V255.05H446.297V254.55ZM441.727 254.8V280H442.227V254.8H441.727ZM441.977 280.25H446.297V279.75H441.977V280.25ZM495.073 281.15C498.514 281.15 501.42 279.712 503.46 277.257C505.498 274.806 506.663 271.353 506.663 267.328H506.163C506.163 271.259 505.025 274.592 503.075 276.938C501.129 279.28 498.364 280.65 495.073 280.65V281.15ZM506.663 267.328C506.663 263.322 505.516 259.904 503.468 257.483C501.416 255.058 498.475 253.65 494.929 253.65V254.15C498.332 254.15 501.132 255.496 503.086 257.805C505.043 260.118 506.163 263.414 506.163 267.328H506.663ZM494.929 253.65C491.382 253.65 488.476 255.077 486.461 257.53C484.449 259.979 483.339 263.432 483.339 267.472H483.839C483.839 263.52 484.925 260.187 486.847 257.848C488.765 255.513 491.528 254.15 494.929 254.15V253.65ZM483.339 267.472C483.339 271.499 484.542 274.917 486.617 277.332C488.694 279.751 491.635 281.15 495.073 281.15V280.65C491.78 280.65 488.978 279.313 486.996 277.007C485.012 274.697 483.839 271.401 483.839 267.472H483.339ZM488.159 267.328C488.159 263.666 488.866 260.58 490.089 258.42C491.31 256.263 493.029 255.05 495.073 255.05V254.55C492.797 254.55 490.935 255.911 489.654 258.173C488.375 260.432 487.659 263.61 487.659 267.328H488.159ZM495.073 255.05C497.095 255.05 498.779 256.277 499.97 258.461C501.163 260.649 501.843 263.772 501.843 267.472H502.343C502.343 263.72 501.655 260.507 500.409 258.222C499.161 255.933 497.335 254.55 495.073 254.55V255.05ZM501.843 267.472C501.843 271.152 501.137 274.238 499.914 276.394C498.693 278.545 496.974 279.75 494.929 279.75V280.25C497.205 280.25 499.067 278.899 500.349 276.64C501.628 274.386 502.343 271.208 502.343 267.472H501.843ZM494.929 279.75C492.908 279.75 491.224 278.515 490.032 276.326C488.839 274.133 488.159 271.01 488.159 267.328H487.659C487.659 271.062 488.347 274.275 489.593 276.564C490.841 278.857 492.667 280.25 494.929 280.25V279.75ZM515.948 278.524L515.755 278.365L515.569 278.593L515.823 278.74L515.948 278.524ZM527.936 265.528L527.886 265.283L527.889 265.773L527.936 265.528ZM517.028 257.5L516.846 257.329L516.684 257.502L516.848 257.673L517.028 257.5ZM517.856 258.364L517.676 258.537L517.854 258.722L518.034 258.54L517.856 258.364ZM522.68 265.06V264.81H522.29L522.453 265.165L522.68 265.06ZM523.112 265.996L522.885 266.101L522.952 266.246H523.112V265.996ZM518.252 275.716L518.446 275.558L518.253 275.321L518.059 275.557L518.252 275.716ZM515.948 278.524C515.823 278.74 515.823 278.74 515.823 278.74C515.823 278.74 515.824 278.741 515.824 278.741C515.824 278.741 515.824 278.741 515.824 278.741C515.825 278.741 515.826 278.742 515.827 278.743C515.83 278.744 515.833 278.746 515.837 278.748C515.846 278.753 515.858 278.76 515.875 278.769C515.908 278.788 515.956 278.814 516.019 278.847C516.146 278.914 516.332 279.008 516.572 279.121C517.053 279.348 517.752 279.648 518.631 279.949C520.386 280.549 522.862 281.15 525.74 281.15V280.65C522.931 280.65 520.51 280.063 518.792 279.475C517.934 279.182 517.251 278.888 516.785 278.669C516.552 278.559 516.373 278.468 516.252 278.405C516.192 278.373 516.147 278.349 516.117 278.332C516.102 278.324 516.091 278.317 516.084 278.313C516.08 278.311 516.077 278.31 516.076 278.309C516.075 278.308 516.074 278.308 516.074 278.308C516.074 278.308 516.074 278.308 516.074 278.308C516.074 278.308 516.074 278.308 516.074 278.308C516.074 278.308 516.074 278.308 515.948 278.524ZM525.74 281.15C529.057 281.15 531.9 280.294 533.921 278.873C535.944 277.45 537.15 275.454 537.15 273.196H536.65C536.65 275.258 535.552 277.114 533.634 278.463C531.713 279.814 528.976 280.65 525.74 280.65V281.15ZM537.15 273.196C537.15 269.264 533.563 266.369 527.984 265.283L527.889 265.773C533.398 266.847 536.65 269.64 536.65 273.196H537.15ZM527.987 265.773C532.515 264.831 535.35 262.514 535.35 259.552H534.85C534.85 262.134 532.358 264.353 527.886 265.283L527.987 265.773ZM535.35 259.552C535.35 257.79 534.522 256.303 533.039 255.266C531.562 254.233 529.446 253.65 526.856 253.65V254.15C529.378 254.15 531.384 254.719 532.752 255.675C534.113 256.627 534.85 257.966 534.85 259.552H535.35ZM526.856 253.65C523.586 253.65 521.088 254.564 519.406 255.48C518.566 255.939 517.929 256.397 517.501 256.743C517.287 256.916 517.125 257.061 517.016 257.163C516.961 257.214 516.919 257.255 516.891 257.283C516.877 257.297 516.866 257.308 516.859 257.316C516.855 257.32 516.852 257.323 516.85 257.325C516.849 257.326 516.848 257.327 516.848 257.327C516.847 257.328 516.847 257.328 516.847 257.328C516.847 257.328 516.847 257.329 516.846 257.329C516.846 257.329 516.846 257.329 517.028 257.5C517.211 257.671 517.211 257.671 517.21 257.671C517.21 257.671 517.21 257.671 517.21 257.671C517.21 257.671 517.21 257.671 517.211 257.671C517.211 257.671 517.211 257.671 517.212 257.67C517.213 257.669 517.215 257.667 517.218 257.664C517.224 257.658 517.233 257.649 517.245 257.636C517.269 257.612 517.307 257.575 517.357 257.528C517.458 257.433 517.611 257.297 517.815 257.132C518.223 256.803 518.835 256.361 519.646 255.92C521.267 255.036 523.683 254.15 526.856 254.15V253.65ZM516.848 257.673L517.676 258.537L518.037 258.191L517.209 257.327L516.848 257.673ZM517.856 258.364C518.034 258.54 518.034 258.54 518.034 258.54C518.034 258.54 518.034 258.54 518.034 258.54C518.034 258.54 518.034 258.54 518.034 258.54C518.035 258.539 518.035 258.539 518.036 258.538C518.037 258.537 518.039 258.535 518.043 258.531C518.049 258.525 518.058 258.516 518.071 258.503C518.097 258.479 518.136 258.442 518.187 258.394C518.289 258.299 518.441 258.163 518.638 257.999C519.031 257.671 519.602 257.233 520.31 256.795C521.729 255.916 523.681 255.05 525.848 255.05V254.55C523.552 254.55 521.507 255.466 520.047 256.369C519.315 256.822 518.725 257.275 518.317 257.615C518.113 257.785 517.955 257.927 517.847 258.027C517.793 258.078 517.751 258.117 517.723 258.144C517.709 258.158 517.698 258.169 517.691 258.176C517.687 258.18 517.684 258.183 517.682 258.185C517.681 258.186 517.68 258.186 517.68 258.187C517.68 258.187 517.679 258.188 517.679 258.188C517.679 258.188 517.679 258.188 517.679 258.188C517.679 258.188 517.679 258.188 517.856 258.364ZM525.848 255.05C527.23 255.05 528.405 255.409 529.229 256.042C530.046 256.671 530.53 257.579 530.53 258.724H531.03C531.03 257.421 530.471 256.367 529.533 255.646C528.602 254.929 527.311 254.55 525.848 254.55V255.05ZM530.53 258.724C530.53 260.431 529.456 261.948 527.908 263.052C526.363 264.154 524.388 264.81 522.68 264.81V265.31C524.501 265.31 526.576 264.616 528.199 263.459C529.819 262.304 531.03 260.653 531.03 258.724H530.53ZM522.453 265.165L522.885 266.101L523.339 265.891L522.907 264.955L522.453 265.165ZM523.112 266.246C525.584 266.246 527.9 266.997 529.591 268.206C531.284 269.417 532.33 271.068 532.33 272.872H532.83C532.83 270.86 531.663 269.073 529.882 267.8C528.099 266.525 525.681 265.746 523.112 265.746V266.246ZM532.33 272.872C532.33 277.072 529.365 279.75 526.424 279.75V280.25C529.676 280.25 532.83 277.312 532.83 272.872H532.33ZM526.424 279.75C524.16 279.75 522.168 278.712 520.731 277.657C520.015 277.13 519.442 276.604 519.048 276.209C518.852 276.012 518.7 275.848 518.598 275.734C518.547 275.677 518.509 275.632 518.483 275.602C518.47 275.587 518.461 275.576 518.455 275.568C518.452 275.565 518.449 275.562 518.448 275.56C518.447 275.559 518.447 275.559 518.446 275.558C518.446 275.558 518.446 275.558 518.446 275.558C518.446 275.558 518.446 275.558 518.446 275.558C518.446 275.558 518.446 275.558 518.252 275.716C518.059 275.874 518.059 275.874 518.059 275.874C518.059 275.874 518.059 275.874 518.059 275.874C518.059 275.875 518.059 275.875 518.06 275.875C518.06 275.876 518.061 275.877 518.062 275.878C518.064 275.88 518.067 275.884 518.07 275.888C518.078 275.897 518.088 275.91 518.102 275.926C518.13 275.959 518.171 276.007 518.225 276.067C518.333 276.187 518.49 276.358 518.694 276.562C519.102 276.97 519.694 277.515 520.435 278.059C521.914 279.146 524.009 280.25 526.424 280.25V279.75ZM518.059 275.557L515.755 278.365L516.142 278.683L518.446 275.875L518.059 275.557Z" fill="#C6905E"/>
</svg>
