<svg width="300" height="300" viewBox="0 0 300 300" fill="none" xmlns="http://www.w3.org/2000/svg">
<rect x="0.5" y="0.5" width="299" height="299" fill="#D9D9D9" stroke="#9BCFFF"/>
<path d="M92.616 162.416C96.776 162.416 99.784 159.664 99.784 155.856C99.784 152.816 97.928 150.8 95.56 149.968C97.512 149.04 98.856 147.28 98.856 144.912C98.856 141.648 96.264 139.344 92.808 139.344C90.12 139.344 88.104 140.752 87.016 142.48C86.856 142.704 86.888 142.896 87.048 143.056L88.264 144.208C88.488 144.4 88.712 144.432 88.904 144.144C89.64 142.928 90.856 142 92.552 142C94.664 142 96.072 143.44 96.072 145.36C96.072 147.312 94.664 148.944 92.296 148.944H91.656C91.336 148.944 91.208 149.072 91.208 149.36V150.928C91.208 151.216 91.336 151.344 91.656 151.344H92.296C94.888 151.344 96.872 153.008 96.872 155.568C96.872 157.968 95.144 159.728 92.52 159.728C90.376 159.728 89.064 158.544 88.264 157.52C88.104 157.296 87.88 157.264 87.688 157.456L86.44 158.608C86.216 158.8 86.184 158.992 86.344 159.248C87.624 161.104 89.736 162.416 92.616 162.416ZM111.298 162.416C116.258 162.416 119.778 158.384 119.778 150.896C119.778 143.376 116.258 139.344 111.298 139.344C106.338 139.344 102.818 143.376 102.818 150.896C102.818 158.384 106.338 162.416 111.298 162.416ZM105.634 150.896C105.634 145.392 107.65 142.032 111.298 142.032C114.914 142.032 116.962 145.392 116.962 150.896C116.962 156.368 114.914 159.696 111.298 159.696C107.65 159.696 105.634 156.368 105.634 150.896ZM131.392 162.416C136.352 162.416 139.872 158.384 139.872 150.896C139.872 143.376 136.352 139.344 131.392 139.344C126.432 139.344 122.912 143.376 122.912 150.896C122.912 158.384 126.432 162.416 131.392 162.416ZM125.728 150.896C125.728 145.392 127.744 142.032 131.392 142.032C135.008 142.032 137.056 145.392 137.056 150.896C137.056 156.368 135.008 159.696 131.392 159.696C127.744 159.696 125.728 156.368 125.728 150.896ZM143.134 162H145.342C145.598 162 145.758 161.904 145.886 161.68L149.438 156.016L152.99 161.68C153.118 161.904 153.278 162 153.534 162H155.742C156.126 162 156.254 161.776 156.03 161.456L151.166 154L155.806 146.864C155.998 146.544 155.902 146.32 155.55 146.32H153.31C153.054 146.32 152.894 146.416 152.766 146.64L149.438 151.952L146.11 146.64C145.982 146.416 145.822 146.32 145.566 146.32H143.358C142.974 146.32 142.878 146.544 143.07 146.864L147.71 154L142.846 161.456C142.654 161.776 142.782 162 143.134 162ZM165.054 162.416C169.214 162.416 172.222 159.664 172.222 155.856C172.222 152.816 170.366 150.8 167.998 149.968C169.95 149.04 171.294 147.28 171.294 144.912C171.294 141.648 168.702 139.344 165.246 139.344C162.558 139.344 160.542 140.752 159.454 142.48C159.294 142.704 159.326 142.896 159.486 143.056L160.702 144.208C160.926 144.4 161.15 144.432 161.342 144.144C162.078 142.928 163.294 142 164.99 142C167.102 142 168.51 143.44 168.51 145.36C168.51 147.312 167.102 148.944 164.734 148.944H164.094C163.774 148.944 163.646 149.072 163.646 149.36V150.928C163.646 151.216 163.774 151.344 164.094 151.344H164.734C167.326 151.344 169.31 153.008 169.31 155.568C169.31 157.968 167.582 159.728 164.958 159.728C162.814 159.728 161.502 158.544 160.702 157.52C160.542 157.296 160.318 157.264 160.126 157.456L158.878 158.608C158.654 158.8 158.622 158.992 158.782 159.248C160.062 161.104 162.174 162.416 165.054 162.416ZM183.736 162.416C188.696 162.416 192.216 158.384 192.216 150.896C192.216 143.376 188.696 139.344 183.736 139.344C178.776 139.344 175.256 143.376 175.256 150.896C175.256 158.384 178.776 162.416 183.736 162.416ZM178.072 150.896C178.072 145.392 180.088 142.032 183.736 142.032C187.352 142.032 189.4 145.392 189.4 150.896C189.4 156.368 187.352 159.696 183.736 159.696C180.088 159.696 178.072 156.368 178.072 150.896ZM203.829 162.416C208.789 162.416 212.309 158.384 212.309 150.896C212.309 143.376 208.789 139.344 203.829 139.344C198.869 139.344 195.349 143.376 195.349 150.896C195.349 158.384 198.869 162.416 203.829 162.416ZM198.165 150.896C198.165 145.392 200.181 142.032 203.829 142.032C207.445 142.032 209.493 145.392 209.493 150.896C209.493 156.368 207.445 159.696 203.829 159.696C200.181 159.696 198.165 156.368 198.165 150.896Z" fill="#7A7A7A"/>
</svg>
