<svg id="Layer_1" data-name="Layer 1" xmlns="http://www.w3.org/2000/svg" viewBox="0 0 296.1 296.1"><defs><style>.cls-1{fill:#514e4c;}.cls-2{fill:#f49000;}.cls-3{fill:#ffe0bb;}</style></defs><g id="g13"><path id="bg" class="cls-1" d="M298,150A148,148,0,1,1,150,2,147.9,147.9,0,0,1,298,150Z" transform="translate(-2 -2)"/><path id="main" d="M292.6,150A142.6,142.6,0,1,1,150,7.4,142.5,142.5,0,0,1,292.6,150Z" transform="translate(-2 -2)"/><path id="middle" class="cls-2" d="M199.2,150A49.2,49.2,0,1,1,150,100.8,49.2,49.2,0,0,1,199.2,150Z" transform="translate(-2 -2)"/><path id="center" d="M155.1,150a5.1,5.1,0,1,1-5.1-5.1A5.1,5.1,0,0,1,155.1,150Z" transform="translate(-2 -2)"/><g id="yellow2"><g id="path23"><path class="cls-3" d="M32.8,91.1c.8-1.8,1.5-3.5,2.3-5.2l2.6-5.1L40.8,76l3.3-4.6A135.9,135.9,0,0,1,59.2,54.3,144,144,0,0,1,77,40.1l4.8-3,4.9-2.9,5.2-2.3,5.4-2-5,2.7-4.8,3-4.9,2.8-4.8,3a148.1,148.1,0,0,0-17.6,14A133.4,133.4,0,0,0,45.3,72.3L42,76.9l-3,4.7-3.2,4.7Z" transform="translate(-2 -2)"/></g><g id="path31"><path class="cls-3" d="M41.5,89.9c.6-1.5,1.2-2.9,1.9-4.4l2.2-4.3,2.7-3.9,2.9-3.9A132.4,132.4,0,0,1,64,59.2,131.3,131.3,0,0,1,78.9,47.1l4-2.7c1.4-.8,2.8-1.6,4.1-2.5L91.5,40,96,38.3,92,41l-3.9,2.7L84,46.1l-3.9,2.6A129.6,129.6,0,0,0,65.4,60.6a139.5,139.5,0,0,0-12.7,14l-2.8,3.8-2.7,3.9-2.9,3.8Z" transform="translate(-2 -2)"/></g><g id="path41"><path class="cls-3" d="M46.9,93.4l1.8-4.3,2-4.3,2.7-3.9,2.8-3.8A119,119,0,0,1,83.6,51.5L87.5,49c1.4-.8,2.7-1.7,4.1-2.4L96,44.8l4.4-1.4L96.6,46l-3.8,2.7-4,2.4L85,53.6A106.8,106.8,0,0,0,70.6,65.1,115.2,115.2,0,0,0,58.1,78.7l-2.7,3.7-2.6,3.8-3,3.6Z" transform="translate(-2 -2)"/></g><g id="path53"><path class="cls-3" d="M51.4,98.9,53.2,95l2-3.8,2.3-3.6L60,84.1A112.1,112.1,0,0,1,84.2,60l3.5-2.5,3.6-2.3,3.8-2,3.8-1.8-3.6,2.3L91.8,56l-3.6,2.4-3.4,2.4a104.1,104.1,0,0,0-12.9,11A135,135,0,0,0,60.8,84.7l-2.4,3.5-2.3,3.6-2.4,3.5Z" transform="translate(-2 -2)"/></g><g id="path61"><path class="cls-3" d="M58.2,99.5c.6-1.2,1.2-2.5,1.7-3.7l1.9-3.6,2.3-3.4,2.5-3.3A101.4,101.4,0,0,1,90.2,63.2l3.4-2.3,3.5-2.1,3.7-1.7,3.8-1.5-3.5,2.2L97.8,60l-3.5,2.1L91,64.3A111.2,111.2,0,0,0,78.5,74.5,94.3,94.3,0,0,0,67.7,86.4l-2.4,3.2L63,92.9l-2.4,3.3Z" transform="translate(-2 -2)"/></g><g id="path65"><path class="cls-3" d="M61.6,107.8c.3-1.2.6-2.4,1-3.6s.9-2.4,1.3-3.5l1.9-3.2,2.1-3.2a103.8,103.8,0,0,1,9.3-11.7,96.3,96.3,0,0,1,11-10.2l2.9-2.3L94.2,68l3.4-1.6,3.5-1.3-2.8,2.5L95.6,70l-3,2.2-2.9,2.2A91,91,0,0,0,79,84.3a110.9,110.9,0,0,0-9.1,11.4L68,98.8l-1.9,3.1-2.3,2.9Z" transform="translate(-2 -2)"/></g><g id="path73"><path class="cls-3" d="M71.5,104.9c.4-1,.9-1.9,1.4-2.9l1.6-2.8,1.8-2.7,2-2.6A99.1,99.1,0,0,1,87,84.3,88.1,88.1,0,0,1,97,76l2.6-1.9,2.8-1.7,2.9-1.4,3-1.4-2.8,1.8-2.6,1.8L100.2,75l-2.6,1.8A86.2,86.2,0,0,0,87.7,85a95.8,95.8,0,0,0-8.6,9.5l-2,2.6-1.8,2.6-1.9,2.6Z" transform="translate(-2 -2)"/></g><g id="path81"><path class="cls-3" d="M79.9,105.3c.3-.9.7-1.9,1.1-2.8l1.2-2.6L84,97.6l1.9-2.3A90.5,90.5,0,0,1,94,87a107.1,107.1,0,0,1,9.2-7.1l2.4-1.5,2.5-1.5,2.8-1,2.9-.8L111.5,77l-2.3,1.8-2.4,1.4-2.4,1.6a84.7,84.7,0,0,0-8.9,6.9,76.5,76.5,0,0,0-8,8.1L85.7,99,84,101.2l-2,2Z" transform="translate(-2 -2)"/></g><g id="path89"><path class="cls-3" d="M85.8,109.2l1-2.2,1.2-2.2,1.4-1.9L91,101a74,74,0,0,1,6.6-7.1,76,76,0,0,1,7.6-6.2l2-1.4,2-1.3,4.5-1.9-1.9,1.5L110,86.2l-2.1,1.3L106,88.8a72.7,72.7,0,0,0-7.4,6.1,87.9,87.9,0,0,0-6.6,7l-1.5,1.8-1.4,1.9Z" transform="translate(-2 -2)"/></g><g id="path97"><path class="cls-3" d="M88.6,116.8a24.4,24.4,0,0,1,1-2.4l1-2.3L92,110l1.5-2.1a73.7,73.7,0,0,1,14.4-14.4l2-1.5,2.2-1.4,2.3-1,2.4-.9-2,1.5-2,1.6-2.1,1.4-2,1.5a51.4,51.4,0,0,0-7.5,6.5,66.8,66.8,0,0,0-6.6,7.5l-1.4,2.1-1.4,2-1.6,2Z" transform="translate(-2 -2)"/></g><g id="path105"><path class="cls-3" d="M95.8,118.5c.4-.7.7-1.5,1.1-2.2l1.2-2.2,1.4-2,1.5-2a66,66,0,0,1,6.9-7.1,57.7,57.7,0,0,1,7.8-6l2.1-1.3,2.2-1.2,2.3-1,2.3-.8L122.5,94l-2.1,1.3-2.1,1.2-2.1,1.3a74.7,74.7,0,0,0-7.7,5.9,75,75,0,0,0-6.7,7.1l-1.5,1.9-1.4,2-1.6,1.9Z" transform="translate(-2 -2)"/></g><g id="path113"><path class="cls-3" d="M100,124.1a8.3,8.3,0,0,1,.6-2.1l.7-2.1,1.2-1.9,1.3-1.8a72.1,72.1,0,0,1,5.7-6.7,61.1,61.1,0,0,1,6.7-5.7l1.8-1.3,1.9-1.2,2.1-.7,2.1-.6-1.6,1.4-1.7,1.5L119,104l-1.7,1.3a51.3,51.3,0,0,0-12,12L104,119l-1.1,1.8-1.5,1.7Z" transform="translate(-2 -2)"/></g></g><g id="yellow1"><g id="path27"><path class="cls-3" d="M270.1,202.7c-.6,2-1.3,3.9-2,5.9l-2.3,5.7-3.1,5.3-3.4,5.1a133.4,133.4,0,0,1-34.6,34.6l-5.2,3.4-5.3,3.1-5.7,2.3-5.8,2,5.2-3.2,5.1-3.3,5.2-3,5.1-3.3a136.2,136.2,0,0,0,18.5-15.4,124.7,124.7,0,0,0,15.4-18.6l3.3-5,3.1-5.3,3.3-5C267.9,206.2,269,204.5,270.1,202.7Z" transform="translate(-2 -2)"/></g><g id="path35"><path class="cls-3" d="M261.7,204l-2.1,4.7-2.4,4.7-2.7,4.4-3,4.3a127.6,127.6,0,0,1-13.4,16,120.8,120.8,0,0,1-16,13.4l-4.3,3-4.4,2.7-4.7,2.4-4.7,2.1,4.5-2.6,4.4-2.7,4.4-2.8,4.3-2.9a125.8,125.8,0,0,0,15.8-13.4,119.5,119.5,0,0,0,13.3-15.8l2.9-4.2,2.8-4.4,2.7-4.4Z" transform="translate(-2 -2)"/></g><g id="path45"><path class="cls-3" d="M256.7,199.3c-.5,1.6-1.1,3.3-1.7,4.9l-2.1,4.7-2.7,4.4-2.8,4.3a126.6,126.6,0,0,1-13.2,15.9,125,125,0,0,1-15.8,13.3l-4.3,2.9-4.4,2.7-4.7,2.1-4.8,1.8,4.3-2.7,4.2-2.9,4.4-2.7,4.2-2.8a118.5,118.5,0,0,0,28.4-28.7l2.8-4.2,2.6-4.4,2.9-4.2Z" transform="translate(-2 -2)"/></g><g id="path49"><path class="cls-3" d="M253.3,190.7c-.5,1.5-1.1,3-1.6,4.6l-1.9,4.5-2.3,4.3-2.4,4.2a116.8,116.8,0,0,1-11.6,15.6,119.3,119.3,0,0,1-14.1,13.4l-3.8,2.9-4,2.8-4.2,2.4-4.4,2.2,4.1-2.7,3.9-2.8,4-2.7,3.8-2.9a117.2,117.2,0,0,0,14-13.3,108.5,108.5,0,0,0,11.4-15.5l2.5-4.1,2.2-4.3,2.3-4.3Z" transform="translate(-2 -2)"/></g><g id="path57"><path class="cls-3" d="M246.1,191.8c-.5,1.4-.9,2.9-1.4,4.3l-1.7,4.2-2.3,4-2.4,3.8a106.3,106.3,0,0,1-24.8,26.4l-3.7,2.7-3.8,2.5-4.1,1.9-4.2,1.7c1.2-.9,2.4-1.8,3.7-2.6L205,238l3.7-2.5,3.6-2.6A102,102,0,0,0,236.6,207l2.4-3.7,2.2-3.9,2.5-3.8Z" transform="translate(-2 -2)"/></g><g id="path69"><path class="cls-3" d="M230.4,191.7c-.5,1-.9,2-1.3,2.9l-1.5,2.9-1.7,2.6-1.7,2.6a86.1,86.1,0,0,1-8.1,9.8,83.9,83.9,0,0,1-9.3,8.6l-2.5,1.9-2.6,1.9-2.7,1.6-2.8,1.4,2.5-1.8,2.5-2,2.6-1.8,2.4-1.9a93.7,93.7,0,0,0,9.3-8.5,92.8,92.8,0,0,0,7.9-9.7l1.8-2.6,1.7-2.6,1.8-2.6C229.2,193.5,229.8,192.6,230.4,191.7Z" transform="translate(-2 -2)"/></g><g id="path77"><path class="cls-3" d="M221.1,193.1l-.9,2.8c-.4.9-.8,1.8-1.1,2.7l-1.7,2.3-1.8,2.2a77.6,77.6,0,0,1-7.8,8.4,87.4,87.4,0,0,1-8.8,7.3l-2.4,1.6-2.4,1.5-2.8,1-2.8.8,2.2-2,2.1-1.9,2.3-1.5,2.3-1.6a82.1,82.1,0,0,0,8.6-7,97.1,97.1,0,0,0,7.6-8.1l1.7-2.2,1.6-2.3,2-2Z" transform="translate(-2 -2)"/></g><g id="path85"><path class="cls-3" d="M217.1,185.9l-.8,2.4-.9,2.3-1.4,2.1-1.4,2.1a95.8,95.8,0,0,1-6.3,7.7c-2.3,2.4-4.8,4.7-7.3,6.9l-2,1.5-2,1.5-2.3,1.1-2.3,1L194,211l1.9-1.5,1.9-1.5a75,75,0,0,0,7.1-6.7,64.3,64.3,0,0,0,6.2-7.6l1.4-2,1.3-2,1.6-1.9Z" transform="translate(-2 -2)"/></g><g id="path93"><path class="cls-3" d="M213,180l-.9,2.4-1.1,2.4-1.3,2.2-1.4,2.2a80.1,80.1,0,0,1-6.3,8.1,100.1,100.1,0,0,1-7.5,7.1l-2,1.6-2.1,1.5-2.3,1.2-2.3,1.2,2-1.6,2-1.6,2.1-1.5,2-1.6a80.5,80.5,0,0,0,7.3-7,69.2,69.2,0,0,0,6.3-8l1.4-2.1,1.3-2.2,1.4-2.1A16.4,16.4,0,0,1,213,180Z" transform="translate(-2 -2)"/></g><g id="path101"><path class="cls-3" d="M205.7,178.7l-.6,2.2c-.2.8-.5,1.5-.7,2.2l-1.3,1.9-1.2,1.9a76.9,76.9,0,0,1-5.8,7,63.7,63.7,0,0,1-6.7,6l-1.8,1.4-1.8,1.3-2.1.9-2.2.7,1.6-1.6,1.6-1.6,1.8-1.3,1.7-1.3a57.1,57.1,0,0,0,12-12.7l1.3-1.8,1.1-1.8,1.5-1.7Z" transform="translate(-2 -2)"/></g><g id="path109"><path class="cls-3" d="M202.1,171.4l-.8,2.4-1,2.4-1.2,2.2-1.3,2.2a59.9,59.9,0,0,1-6.3,8,53.6,53.6,0,0,1-7.5,6.8l-2.1,1.5-2.1,1.4-2.3,1.1-2.3,1,2.1-1.4,2.1-1.4,2.1-1.4,2-1.4a59.8,59.8,0,0,0,7.5-6.7,66.5,66.5,0,0,0,6.1-7.9l1.3-2.2,1.2-2.2,1.3-2.1Z" transform="translate(-2 -2)"/></g><g id="path117"><path class="cls-3" d="M241.5,185.1l-.9,4c-.4,1.3-.7,2.6-1.1,3.9l-1.9,3.5-1.9,3.5a94.2,94.2,0,0,1-9.2,13.2,101.4,101.4,0,0,1-11.2,11.5l-3.1,2.6-3.1,2.4-3.6,1.9-3.7,1.6,2.9-2.7,2.9-2.8,3.1-2.4,3-2.5a105,105,0,0,0,10.9-11.2,94.3,94.3,0,0,0,8.9-12.8l1.9-3.4,1.8-3.5,2.1-3.4Z" transform="translate(-2 -2)"/></g></g><path d="M147.6,105.7l2.3.3-3,12.6c4.1.5,6.9,0,8.1-1.8l-.5,3.4-9-1.3Z" transform="translate(-2 -2)"/><path d="M160.2,107.9l2.1,1-3.7,7.6c-1.4,2.8-1,5,1.2,6s4.6-.5,6.1-3.4a10.9,10.9,0,0,0,.8-8.3l3.2,1.4-3.4,6.9c-1.8,3.7-4.3,4.9-7.2,3.7-5.4-2.4-4.7-3.6-2.6-7.9Z" transform="translate(-2 -2)"/><path d="M169,119.4a7.7,7.7,0,0,1,10.6-.2,9.6,9.6,0,0,1,2.6,5.3l-2.4.3c.1,0,.4-4-1.7-6s-3.9-1.5-5.9.3c-4.6,4.3-5,6.4-1.2,10a6.7,6.7,0,0,0,4.7,1.4v.6s-4.2.9-7-1.9A6.5,6.5,0,0,1,169,119.4Z" transform="translate(-2 -2)"/><path d="M173.3,133.3l12.7-5.8,1.1,2-6.4,2.9c2.5.6,5.4,1.4,7.7-.4l1.5,3.1-8.6-1.9-3.7,8.6-1-2,4.1-7.4-6.4,2.9Z" transform="translate(-2 -2)"/><path d="M190.3,138.3l1.3,2.2-7.1,5.4c1.9.6,6.1,1.9,8.1.3l.6,3.2-9.2-3.2-5.5.9-.4-2.2,4.5-.9Z" transform="translate(-2 -2)"/><path d="M190.9,164.1c-1,2.9-3.8,5.7-8.9,4.1s-5.6-5.3-4.6-8.2l1.5-4.4,13.5,4.1Zm.2-2.4-12.4-3.8-.6,1.7c-1,2.9.4,5.2,4.7,6.5s5.7.2,6.7-2.7Z" transform="translate(-2 -2)"/><path d="M175.8,165.2l8.6,11.5-2.4,1.8-14.2-4.4,2.4-1.8,4.2,1.3,3.2-4a8.1,8.1,0,0,0-3.9-1.6Zm-.8,8.6,7.5,2.7c-.7-.9-.8-2.5-1.6-3.5a13.9,13.9,0,0,0-2.9-3Z" transform="translate(-2 -2)"/><path d="M178.9,182.4l-.9,1.4-8.4-3.3c.3,1.9,1.2,6,3.7,6.9l-2.8,2-1.5-9.1-3.5-4.2,1.9-1.4,2.5,4.2Z" transform="translate(-2 -2)"/><path d="M165.8,191.2l-8.3,3.3-1.3-3.3c1.7,1.7,4.1,1.6,8.1.3l-2-5.1-4.3,1.5-.4-1.1,4.5-1-2.3-5.8c-3.9,1.5-5.9,2.8-6,5.2l-1.2-3.3,8.3-3.2Z" transform="translate(-2 -2)"/></g></svg>