<svg id="Layer_1" data-name="Layer 1" xmlns="http://www.w3.org/2000/svg" viewBox="0 0 297.5 265"><defs><style>.cls-1{fill:#aa7b35;}.cls-2{fill:#dda43e;}.cls-3{fill:#ffcb64;}</style></defs><g id="bg"><path class="cls-1" d="M195.5,234.1a3.8,3.8,0,0,0-2.1,1.8c1.8-.1,4.9-1.3,7.4-1.3C198.6,234.2,196.4,233.8,195.5,234.1Z" transform="translate(-1.2 -17.5)"/><path class="cls-1" d="M59.1,47.3C39.4,59.8,17.8,214,29.2,251.6c35.2,7.9,177.6,25.3,206.3,7.2C254.8,246.5,277,86.4,264.6,53.9,229.7,44.7,89.9,27.7,59.1,47.3Z" transform="translate(-1.2 -17.5)"/><path class="cls-1" d="M77.1,228.7a38.8,38.8,0,0,0-3.4,10.9c2.4,1.4,8.3,1,10.2.3s3.8-6,3.4-9.4C85.1,227.5,78.7,225.4,77.1,228.7Z" transform="translate(-1.2 -17.5)"/></g><g id="lucky"><g id="daye_shadow"><path class="cls-2" d="M65.5,65.2a4.9,4.9,0,0,0,.6,2.2c6.4,7.9,21.6,3.7,21.8,2.8s2.1-2-.5-3.3l-.5.7C86.7,68.5,72,72.6,65.5,65.2Z" transform="translate(-1.2 -17.5)"/><path class="cls-2" d="M71.5,58.5c-.5,2.2-.2,3.6.7,4.5a13.7,13.7,0,0,1,.2-1.9c.8-3.2,1.8-5.5,2.8-10.6a3.8,3.8,0,0,0-.9-2.9.8.8,0,0,1-.1.4C73.2,53,72.3,55.3,71.5,58.5Z" transform="translate(-1.2 -17.5)"/><path class="cls-2" d="M110.4,59c-.6-3.6.4-8.5-1-11.8a.8.8,0,0,0-.4-.4C109.7,50.9,108.5,56.2,110.4,59Z" transform="translate(-1.2 -17.5)"/><path class="cls-2" d="M111.7,68.4c-4.2-.7-6.9-3.6-8.5-7.1,1.3,4.6,4.3,8.8,9.5,9.6C131,74,133.8,50.3,131.1,47.6h-.2C131.6,54.3,127.3,71,111.7,68.4Z" transform="translate(-1.2 -17.5)"/><path class="cls-2" d="M148.3,69.8a10.3,10.3,0,0,1-4.4-4.8c.9,3.3,2.7,6,5.4,7.4,5.8,3,15.1-1,15.4-4.4.1-.6-.5-1.3-1.2-1.7C161.9,69.5,153.7,72.6,148.3,69.8Z" transform="translate(-1.2 -17.5)"/><path class="cls-2" d="M165.4,52c-3.5,1.4-2.7.9-5.7.2s-8.4-1.6-9.4-1.1c-2.6,1.2-3.5,7.5-1.5,10.1-.5-2.9.5-6.6,2.5-7.5s6.3.4,9.3,1.1,2.3,1.1,5.8-.2,1.7-1.4,1.4-2.8a3.7,3.7,0,0,0-.7-1.2C167,51.1,166.7,51.5,165.4,52Z" transform="translate(-1.2 -17.5)"/><path class="cls-2" d="M186.2,58a.7.7,0,0,0,.6-.1c0-2,.1-4.5-1.1-5.9C186.1,54.6,185.4,57.7,186.2,58Z" transform="translate(-1.2 -17.5)"/><path class="cls-2" d="M191.5,60.5a3.7,3.7,0,0,0,.9,2.4c.1-3.6,7.7-6.4,7.1-8s-1.5-.6-2.7-.5C194.7,56,191.4,58.1,191.5,60.5Z" transform="translate(-1.2 -17.5)"/><path class="cls-2" d="M196.7,73.9c-4.3-.2-9.5-13.7-11.3-10.3-4.6,8.6-2.4,10.3-6.4,9.9h-.3c.2,1.6.6,2.6,1.3,2.7,3.9.4,1.8-1.3,6.3-9.9,1.8-3.5,7.1,10.1,11.4,10.3,2.1.1,2.9-3.6,2-5.4a2.1,2.1,0,0,0-.6-1C199.2,71.9,198.3,74,196.7,73.9Z" transform="translate(-1.2 -17.5)"/><path class="cls-2" d="M227.5,64.2c-.6-.8-6.1-5.6-8.4-8.8v.2c-.8,1.8,7.1,8.8,9.1,10.8A3.2,3.2,0,0,0,227.5,64.2Z" transform="translate(-1.2 -17.5)"/><path class="cls-2" d="M237.2,67.5c-1.9,3.9-.3,6.3-3,9.1s-4.8,3.2-6.4,2.4c0,1.2.2,2.1.8,2.5s4.8-.5,6.6-2.4,1.1-5.1,3-9c3.3-6.7,11.8-6.9,11.7-11.2a3.4,3.4,0,0,0-1-2.3C248.6,60.6,240.5,61,237.2,67.5Z" transform="translate(-1.2 -17.5)"/></g><g id="lucky_main"><path class="cls-3" d="M65.5,65.2c6.5,7.4,21.2,3.3,21.4,2.4l.5-.7c.5-.8.9-1.9-1.6-2.9S75,65.7,72.2,63c-.9-.9-1.2-2.3-.7-4.5S73.2,53,74.2,48a.8.8,0,0,0,.1-.4c0-1.3-.8-2.9-1.7-2.9-5.4-.1-9.7,17.3-7.4,20.2Z" transform="translate(-1.2 -17.5)"/><path class="cls-3" d="M114.7,61c-2.2-.1-3.5-.8-4.3-2-1.9-2.8-.7-8.1-1.4-12.2a6.5,6.5,0,0,0-.6-2.1c-.6-1.5-3.4-.8-4.6.1s-3.4,10.4-.6,16.5c1.6,3.5,4.3,6.4,8.5,7.1,15.6,2.6,19.9-14.1,19.2-20.9a4.3,4.3,0,0,0-.8-2.5c-.8-.8-3.3,0-4,.6C120.9,49.9,127,61.4,114.7,61Z" transform="translate(-1.2 -17.5)"/><path class="cls-3" d="M148.3,69.8c5.4,2.8,13.6-.3,15.2-3.5l.3-.9c.1-1.4-3-2.8-4.3-2.3-6.3,2-7.3.9-10.1-1.2l-.6-.7c-2-2.6-1.1-8.9,1.5-10.1,1-.5,6.4.5,9.4,1.1s2.2,1.2,5.7-.2c1.3-.5,1.6-.9,1.7-1.4a12.1,12.1,0,0,0-.3-1.4c-.7-3.3-15.3-9.6-22,0a16.7,16.7,0,0,0-.9,15.8A10.3,10.3,0,0,0,148.3,69.8Z" transform="translate(-1.2 -17.5)"/><path class="cls-3" d="M178.7,73.4h.3c4,.4,1.8-1.3,6.4-9.9,1.8-3.4,7,10.1,11.3,10.3,1.6.1,2.5-2,2.4-3.8a4.1,4.1,0,0,0-.3-1.6c-1.2-2.6-4.7-3.5-6.4-5.6a3.7,3.7,0,0,1-.9-2.4c-.1-2.4,3.2-4.5,5.3-6.1s1.9-1.5,1.7-2.1-2.1-.6-3.6-.3c-4,1.1-6.6,5.1-8.1,5.9a.7.7,0,0,1-.6.1c-.8-.3-.1-3.4-.5-6a4.6,4.6,0,0,0-1-2.7c-1-1.1-4.9,1.6-5.3,2.9C178.2,56.2,176.3,71.7,178.7,73.4Z" transform="translate(-1.2 -17.5)"/><path class="cls-3" d="M227.5,64.2a3.2,3.2,0,0,1,.6,2.2c0,3.9-2.5,11.1-.5,12.5h.2c1.6.8,4.7-.6,6.4-2.4s1.1-5.2,3-9.1c3.3-6.5,11.4-6.9,11.7-10.9v-.2a3.2,3.2,0,0,0-1.3-2.6c-2.6-1.4-8.3,3.6-10.4,5.4s-3.6,3.8-4.8,3.6-2.4-3.7-5.8-7.4c-6.1-6.8-8-3.8-8.6-2.4s.3,1.4,1.1,2.4C221.4,58.6,226.9,63.4,227.5,64.2Z" transform="translate(-1.2 -17.5)"/></g></g><g id="daye"><path class="cls-2" d="M147.9,228.4h-.1c-.8,3.3,7.1,5.1,10.4,11.6a9.8,9.8,0,0,0-.5-1.6C155.5,233,150.2,230.7,147.9,228.4Z" transform="translate(-1.2 -17.5)"/><path class="cls-2" d="M182.1,228.5a6.8,6.8,0,0,1-2.9,3.2c-4.9,3.2-12.2,3.6-13.9,7.8s.6,6.2-.9,9.4-3.6,3.1-5.3,2.3c-.1,1.2,0,2.1.8,2.5s4.2.5,5.5-2.2-.3-6.7.9-9.4,9-4.6,13.9-7.8c2.2-1.4,4-3.8,2.3-5.6Z" transform="translate(-1.2 -17.5)"/><path class="cls-2" d="M194.5,231.5c-1.9.7-2.9,3.2-2.5,4s.7.5,1.4.4a3.8,3.8,0,0,1,2.1-1.8c.9-.3,3.1.1,5.3.5l1.8.2c2.4.4,4.6.5,5.5-.5s1.2-4-.2-4.5a3.7,3.7,0,0,1-.8,1.9C205.1,233.9,196.7,230.8,194.5,231.5Z" transform="translate(-1.2 -17.5)"/><path class="cls-2" d="M208.1,251.2c-1.1,3.6-17.5,7.2-21.6,3.3.1.9.2,1.4.2,1.6,2.2,5.4,21.2,1.5,22.4-2.3a3.5,3.5,0,0,0-1-2.9Z" transform="translate(-1.2 -17.5)"/><path class="cls-2" d="M203.9,240.9c-2.4,0-8.6-1.8-11.1.7s-2.3,8.5-.6,8.8c0-2.2.7-5.3,1.6-6.2,2.5-2.5,8.6-.8,11-.7s1.2-3.6.1-5.1C205.1,239.7,204.9,240.9,203.9,240.9Z" transform="translate(-1.2 -17.5)"/><path class="cls-2" d="M77.1,228.7c1.6-3.3,8-1.2,10.2,1.8a5.8,5.8,0,0,0-.6-2.1c-1.9-3.2-8.9-5.8-10.6-2.3s-3.4,8.6-3.4,11.9a1.9,1.9,0,0,0,1,1.6A38.8,38.8,0,0,1,77.1,228.7Z" transform="translate(-1.2 -17.5)"/><path class="cls-2" d="M94.5,226.5a13,13,0,0,1,.5,3.3c.2.9,1.1,8.6-4,13.3-3,2.8-4,3.5-9.7,3.9s-13.2.9-15.4-1.7a4.8,4.8,0,0,0,.7,2.1c1.7,3.2,9.3,2.7,15.7,2.2s6.6-1.2,9.6-3.9c5.2-4.7,4.2-12.4,4.1-13.4A14.3,14.3,0,0,0,94.5,226.5Z" transform="translate(-1.2 -17.5)"/><path class="cls-2" d="M130.5,241.6c-3.2-1.1-6.2.9-7.8.1a2.8,2.8,0,0,0,.5,2.2c1.3,1.7,4.7-1,8.3.3a3.8,3.8,0,0,1,2.2,1.9C133.2,244.3,132.7,242.4,130.5,241.6Z" transform="translate(-1.2 -17.5)"/><path class="cls-2" d="M135.3,231.8a72.1,72.1,0,0,1,2.7,14c0,.2.3,3.6-.6,3.7a3,3,0,0,1-2.9-1.2c.6,2.1,1.1,4,3.9,3.8.8-.1.6-3.6.5-3.7S138.1,238.6,135.3,231.8Z" transform="translate(-1.2 -17.5)"/><path class="cls-2" d="M125.2,226.4c-5.5.3-12.5,21-14.7,21.1-.5,0-2.8.8-4.1.1a3.6,3.6,0,0,0,.6,2.2c1.1,1.3,3.9.3,4.5.3,2.1-.1,9.2-20.8,14.6-21.1,2-.2,4.1,2,5.3,4.4C130.8,230.3,127.8,226.2,125.2,226.4Z" transform="translate(-1.2 -17.5)"/><g id="daye_main"><path class="cls-3" d="M164.4,248.9c1.5-3.2-.2-6.7.9-9.4s9-4.6,13.9-7.8a6.8,6.8,0,0,0,2.9-3.2,2.4,2.4,0,0,0-.6-2.4c-.4-.4-1.3-.6-6.3,1.7-8.2,3.7-8,5.2-10.5,5.3-6.4.3-9.8-10.7-15-9.5a3.5,3.5,0,0,0-2.8,2.4,2.6,2.6,0,0,0,1,2.4c2.3,2.3,7.6,4.6,9.8,10.1a9.8,9.8,0,0,1,.5,1.6c1.3,5.4-1.3,9.9.8,11.1h.1C160.8,252,163.2,251.6,164.4,248.9Z" transform="translate(-1.2 -17.5)"/><path class="cls-3" d="M208.1,251.2v-.3c.2-1.3-1-3.1-2.5-3.9-4.2-2.4-9.6,2.7-13.1,3.4h-.3c-1.7-.3-.8-7.3.6-8.8s8.7-.7,11.1-.7,1.2-1.2,1-2.5a5.9,5.9,0,0,0-1.2-2.9,4.1,4.1,0,0,0-1.1-.7l-1.8-.2c-2.5,0-5.6,1.2-7.4,1.3s-1.2,0-1.4-.4.6-3.3,2.5-4,10.6,2.4,12.6.2a3.7,3.7,0,0,0,.8-1.9c.1-1.2-.2-2.4-1.1-2.7-2.7-.7-11.3-3.2-16.7.2s-4.7,25.3-4.3,26.2a2.3,2.3,0,0,0,.7,1C190.6,258.4,207,254.8,208.1,251.2Z" transform="translate(-1.2 -17.5)"/><path class="cls-3" d="M81.3,247c5.7-.4,6.7-1.1,9.7-3.9,5.1-4.7,4.2-12.4,4-13.3a13,13,0,0,0-.5-3.3,8.6,8.6,0,0,0-4-5.9c-6.6-3.9-16.9-5.5-19.4-.4-4.6,9.4-7.8,20.6-5.5,24.6l.3.5C68.1,247.9,75.3,247.5,81.3,247Zm-8.6-9c0-3.3,2.2-9.3,3.4-11.9s8.7-.9,10.6,2.3a5.8,5.8,0,0,1,.6,2.1c.4,3.4-.9,8.5-3.4,9.4s-7.8,1.1-10.2-.3A1.9,1.9,0,0,1,72.7,238Z" transform="translate(-1.2 -17.5)"/><path class="cls-3" d="M137.4,249.5c.9-.1.6-3.5.6-3.7a72.1,72.1,0,0,0-2.7-14c-1.7-5.1-4.4-9.8-8.6-10.6-10.5-2.1-24.1,22.1-20.7,26,.1.2.3.3.4.4s3.6-.1,4.1-.1c2.2-.1,9.2-20.8,14.7-21.1,2.6-.2,5.6,3.9,6.2,7a2.9,2.9,0,0,1-.2,2.3c-1.4,2.2-6.3,1.3-9,2.8-.8.5-.6,2.1,0,2.8l.5.4c1.6.8,4.6-1.2,7.8-.1s2.7,2.7,3.2,4.5a11.3,11.3,0,0,0,.8,2.2A3,3,0,0,0,137.4,249.5Z" transform="translate(-1.2 -17.5)"/></g></g><g id="outline"><g id="outline_shadow"><path class="cls-2" d="M290.8,47.6a33.4,33.4,0,0,0-7.1-4.5l-.9-.5c22.8,27.1-19.4,208.1-33.9,226.5-8.4,10.8-187.3,10.4-233.2-9.1l.5.6c21.6,25,232.9,26.6,242.1,14.8C273,256.6,316.6,69.1,290.8,47.6Z" transform="translate(-1.2 -17.5)"/><path class="cls-2" d="M58.9,47.7c30.8-19.6,170.7-2.6,205.5,6.6a19.1,19.1,0,0,0-1.6-3.2c-4.9-7.3-178.5-31.8-213.3-9.7-20.3,13-41,175.6-27,206,.4.7,3.3,1.7,8.1,2.8C19.3,212.5,39.2,60.2,58.9,47.7Z" transform="translate(-1.2 -17.5)"/></g><path id="outline_main" class="cls-3" d="M248.9,269.1c14.5-18.4,56.7-199.4,33.9-226.5a8.6,8.6,0,0,0-1.4-1.3l-.9-.7C245.9,14.2,64.7,11.1,43.2,27.9c-8.7,6.9-11.7,14.8-18.9,27.4S-9.2,228.8,6,253.2a11.9,11.9,0,0,0,4.1,3.9,36.3,36.3,0,0,0,5.6,2.9C61.6,279.5,240.5,279.9,248.9,269.1ZM22.5,247.4c-14-30.4,6.7-193,27-206,34.8-22.1,208.4,2.4,213.3,9.7a19.1,19.1,0,0,1,1.6,3.2c12.4,32.6-11.3,188.2-30.7,200.4-28.7,18.2-167.9,3.4-203.1-4.5C25.8,249.1,22.9,248.1,22.5,247.4Z" transform="translate(-1.2 -17.5)"/></g><g id="clover"><g id="clover_shadow"><path class="cls-2" d="M94.9,168.3l-1.4-.7a15.4,15.4,0,0,0,5.3,4.2c2.5,1.2,6.6.5,9.8.1C113.1,164.6,100.2,171,94.9,168.3Z" transform="translate(-1.2 -17.5)"/><path class="cls-2" d="M182.4,119.9l.2-.2a12.4,12.4,0,0,1,2-1c.8-3.8,2.1-8.2,2.1-9.7,0-6.1-2.3-9.5-5.6-10.8a15.1,15.1,0,0,1,1.6,7.4C182.7,108.9,176.8,126.1,182.4,119.9Z" transform="translate(-1.2 -17.5)"/><path class="cls-2" d="M105.8,137.1a38.5,38.5,0,0,1-5.4-3.2,29.7,29.7,0,0,0,5.9,4.7A1,1,0,0,0,105.8,137.1Z" transform="translate(-1.2 -17.5)"/><path class="cls-2" d="M208.7,128.7c-3.6,11.1-7.8,11.2-7.9,18.7a1.1,1.1,0,0,1-.3.7,4.2,4.2,0,0,1-2.1,1.6c.8,2.9,3.1,5.4,6.1,1.8a1.9,1.9,0,0,0,.2-.7c.1-7.5,4.3-7.6,7.9-18.6a2.2,2.2,0,0,0,.1-.8,11.1,11.1,0,0,0-5.8-7.7,10.5,10.5,0,0,1,1.9,4.3A1.7,1.7,0,0,1,208.7,128.7Z" transform="translate(-1.2 -17.5)"/><path class="cls-2" d="M148.8,121.6c.4-1,.7-2,1-3-1.1-9.2-2.1-19.2-10.1-24.2,5.7,7,5.4,18.2,7,27A1.1,1.1,0,0,0,148.8,121.6Z" transform="translate(-1.2 -17.5)"/><path class="cls-2" d="M124.3,185.7a31.1,31.1,0,0,0-2.3,2.8c-3.4,5.3-7.6,6.3-11.1,4.7,3.5,5,10.1,6.4,15-1.3a20.9,20.9,0,0,1,2.4-2.8c1.7-1.8,4.3-8,6.8-13.8s2.1-9.2,2.8-13.1C136.6,155.1,128.3,181.6,124.3,185.7Z" transform="translate(-1.2 -17.5)"/><path class="cls-2" d="M143.8,173.2c-.2,2.5-.2,5.1-.3,8.2a10.1,10.1,0,0,1-.3,1.7c-1.7,14.1,4.4,20.5,2.9,28.4a2.8,2.8,0,0,1-4.2,1.7l-.3-.2a14.8,14.8,0,0,0,4.2,3.6,2.7,2.7,0,0,0,4.2-1.7c1.6-7.9-4.6-14.3-2.8-28.4,0-.5.2-1.1.2-1.6.1-2.5.2-4.7.2-6.8s-.7-3.4-1-5.1A1.4,1.4,0,0,0,143.8,173.2Z" transform="translate(-1.2 -17.5)"/><path class="cls-2" d="M193.3,162.5c7.3,7.7,2.8,19.5-7.1,19.6a1.7,1.7,0,0,0-1.7,1.6c-.5,10.9-18.5,11-19.1,21.8a6.8,6.8,0,0,1-.2,1.4c-.6,2.8.1,5.8.4,8.2a2.3,2.3,0,0,1-.9,2,13.6,13.6,0,0,0,.2,2c.4,2.9,4.9,2.4,4.6-.5s-1-5.4-.4-8.3a5.9,5.9,0,0,0,.2-1.4c.6-10.8,18.7-10.9,19.1-21.8a1.8,1.8,0,0,1,1.8-1.6c9.8-.1,14.3-11.9,7-19.5a2.1,2.1,0,0,1-.6-1,16.1,16.1,0,0,0-5.9-6.3,10.4,10.4,0,0,1,1.9,2.9A3.1,3.1,0,0,0,193.3,162.5Z" transform="translate(-1.2 -17.5)"/><path class="cls-2" d="M192.9,143.9c-5,1.2-12.4,3.3-16.6,3.3-8.8-.1-4.8.8,1.6,3.4h2.3c3.7,0,10-1.6,14.8-2.8a10.2,10.2,0,0,1-.8-3A1.1,1.1,0,0,0,192.9,143.9Z" transform="translate(-1.2 -17.5)"/></g><path id="clover_main" class="cls-3" d="M118.2,105.3a1.1,1.1,0,0,1-1.5.7c-16.8-7.7-35.9,13.9-16.3,27.9a38.5,38.5,0,0,0,5.4,3.2,1,1,0,0,1,.5,1.5,1.3,1.3,0,0,1-.7.5c-14.5,2.8-25.6,20.3-12.1,28.5l1.4.7c5.3,2.7,18.2-3.7,13.7,3.6a8.3,8.3,0,0,1-.8,1.2c-5.9,8.1-2.5,17.5,3.1,20.1,3.5,1.6,7.7.6,11.1-4.7a31.1,31.1,0,0,1,2.3-2.8c4-4.1,12.3-30.6,13.6-23.5-.7,3.9-1.8,8.4-2.8,13.1-3,14.2-5.1,30.3,6.5,37.7l.3.2a2.8,2.8,0,0,0,4.2-1.7c1.5-7.9-4.6-14.3-2.9-28.4a10.1,10.1,0,0,0,.3-1.7c.1-3.1.1-5.7.3-8.2a1.4,1.4,0,0,1,2.8-.2c.3,1.7.6,3.4,1,5.1a139.1,139.1,0,0,0,4.3,14.1,17.7,17.7,0,0,0,3.5,5.5c6.5,6.7,4.7,11.5,5.6,17.9a2.2,2.2,0,0,0,3.7,1.5,2.3,2.3,0,0,0,.9-2c-.3-2.4-1-5.4-.4-8.2a6.8,6.8,0,0,0,.2-1.4c.6-10.8,18.6-10.9,19.1-21.8a1.7,1.7,0,0,1,1.7-1.6c9.9-.1,14.4-11.9,7.1-19.6a3.1,3.1,0,0,1-.7-.9,10.4,10.4,0,0,0-1.9-2.9c-3.2-3.7-8.5-6.3-12.8-8.1-6.4-2.6-10.4-3.5-1.6-3.4,4.2,0,11.6-2.1,16.6-3.3a1.1,1.1,0,0,1,1.3.9,10.2,10.2,0,0,0,.8,3c.8,1.4,1.9,2.4,3.4,1.9a4.2,4.2,0,0,0,2.1-1.6,1.1,1.1,0,0,0,.3-.7c.1-7.5,4.3-7.6,7.9-18.7a1.7,1.7,0,0,0,.1-.7,10.5,10.5,0,0,0-1.9-4.3c-4.5-6.1-15.7-7.8-22.3-5a12.4,12.4,0,0,0-2,1l-.2.2c-5.6,6.2.3-11,.3-14.3a15.1,15.1,0,0,0-1.6-7.4c-5.4-9.1-22.2-1.8-26.6,9.4v.2a36.7,36.7,0,0,0-4.6,10.8c-.3,1-.6,2-1,3a1.1,1.1,0,0,1-2.1-.2c-1.6-8.8-1.3-20-7-27a16.3,16.3,0,0,0-5.4-4.2C121.5,81.1,120.8,97.7,118.2,105.3Z" transform="translate(-1.2 -17.5)"/></g></svg>