<svg width="685" height="392" viewBox="0 0 685 392" fill="none" xmlns="http://www.w3.org/2000/svg">
<path d="M136.538 212.898C131.777 226.32 125.924 235.982 123.855 239.511C118.688 248.336 115.998 255.007 110.741 268.001C106.505 278.494 104.356 283.899 102.971 291.848C102.84 292.592 102.306 299.14 101.226 312.219C100.749 317.991 100.522 321.072 101.258 325.318C101.789 328.361 102.38 329.481 103.47 334.691C104.734 340.733 104.298 340.914 105.105 344.303C106.041 348.253 107.938 356.308 114.464 360.769C115.932 361.773 118.719 363.623 122.263 363.184C122.891 363.102 126.186 362.63 128.057 359.983C129.352 358.141 129.361 356.109 129.363 355.253C129.425 348.171 130.601 341.129 130.586 334.044C130.56 318.61 131.169 320.088 130.83 312.111C130.73 309.869 130.61 308.008 130.923 305.284C131.495 300.301 132.809 298.768 134.285 292.464C135.233 288.414 134.817 288.525 135.827 283.684C136.983 278.133 138.325 274.168 139.015 272.067C144.082 256.599 143.579 250.462 148.631 237.871C152.022 229.405 153.672 228.643 157.159 221.434C157.31 221.117 157.798 220.12 157.997 220.183C158.394 220.307 157.377 224.503 156.832 226.888C156.832 226.888 156.753 227.245 153.958 242.783C151.299 257.587 153.171 275.213 153.768 280.863C154.814 290.651 155.811 292.016 156.255 301.206C156.574 307.909 156.202 310.443 157.428 315.418C159.119 322.268 162.319 327.491 163.785 329.848C171.203 341.775 171.148 342.288 171.798 346.08C172.847 352.218 171.184 357.483 169.346 363.268C166.891 371.049 164.346 373.32 163.853 380.478C163.63 383.716 163.37 388.322 166.227 390.239C168.097 391.497 170.773 391.226 172.592 390.311C174.724 389.232 175.8 387.212 176.847 384.245C178.894 378.449 179.051 374.093 179.477 370.481C179.817 367.622 181.368 362.604 184.455 352.581C188.154 340.6 189.242 339.024 190.584 337.707C193.788 334.568 196.556 334.735 204.659 332.651C216.022 329.728 223.31 326.12 234.383 320.635C244.167 315.796 245.777 313.899 246.737 311.996C250.016 305.481 251.655 302.213 251.987 299.633C252.027 299.299 252.152 298.192 252.91 297.773C253.954 297.201 258.827 298.956 259.295 299.051C262.976 299.818 270.103 299.298 277.146 297.537C278.951 297.083 285.572 294.359 290.852 288.336C293 285.891 293.665 283.829 293.917 281.255C294.154 278.879 294.019 277.48 294.777 274.151C295.141 272.558 295.317 271.043 295.361 270.604C295.827 266.044 290.615 251.248 289.07 248.207C282.63 235.514 279.296 229.457 276.371 225.555C271.308 218.795 267.171 211.423 258.531 206.529C242.986 197.718 237.996 196.626 237.996 196.626C237.016 196.329 233.861 195.399 233.93 194.473C234.005 193.511 236.886 193.403 237.745 193.377C241.023 193.277 249.05 195.563 252.66 195.96C255.129 196.237 268.287 197.618 275.487 198.268C283.261 198.969 289.877 198.716 297.537 197.209C299.553 196.812 303.125 195.976 304.532 197.696C305.815 199.266 303.689 202.343 303.558 206.612C303.523 207.737 303.696 214.605 308.124 216.897C310.463 218.104 317.402 216.524 320.255 213.434C321.502 212.088 322.505 209.347 324.522 203.859C326.368 198.836 326.307 198.013 327.706 195.755C329.362 193.059 330.062 193.231 332.623 189.642C335.327 185.849 335.022 185.003 336.837 182.917C339.516 179.824 341.908 180.051 345.198 177.745C347.281 176.286 353.62 170.155 355.063 165.043C357.243 157.364 352.95 149.801 350.76 147.166C349.396 145.532 343.962 137.568 335.988 132.598C329.09 128.304 321.367 125.541 319.903 124.976C311.302 121.646 304.994 120.06 300.869 121.388C297.336 122.532 293.342 123.281 291.401 123.64C290.368 123.828 288.769 124.065 287.571 124.204C285.696 124.425 281.879 126.922 281.144 126.434C279.794 125.546 286.432 113.316 292.35 100.4C297.913 88.2719 297.21 86.4049 297.366 84.9602C298.659 73.3999 293.773 64.2492 292.131 61.5377C289.813 57.7003 281.578 47.4232 275.011 44.717C265.844 40.9394 256.559 45.2534 251.289 47.0642C242.354 50.1297 237.181 54.4246 228.634 61.8467C224.14 65.7493 221.089 68.9419 217.69 72.5069C210.433 80.1101 203.943 88.6914 203.179 89.7885C200.504 93.6522 199.271 96.6203 194.424 104.905C190.58 111.49 188.04 115.808 187.157 115.561C186.249 115.304 186.085 112.627 187.424 105.594C189.973 92.2141 187.458 88.1204 189.087 78.276C189.653 74.8677 190.047 74.1245 190.652 69.817C190.863 68.3361 191.562 63.1133 191.608 56.6378C191.668 48.9217 189.897 42.077 188.428 33.0786C187.372 26.6263 175.534 12.839 172.943 10.8948C172.31 10.4197 170.58 9.6486 169.148 8.74691C166.254 6.92149 167.313 4.94312 165.101 2.55153C162.947 0.232457 160.861 -0.266612 155.624 0.116577C151.288 0.442614 145.579 0.573241 139.722 4.11836C138.487 4.86584 136.33 8.4459 134.422 10.7562C129.877 16.2735 126.405 24.8423 126.268 25.2923C123.992 32.9912 123.854 37.3255 120.253 43.9817C119.068 46.171 117.079 45.5559 116.583 45.5071C113.789 45.2127 113.281 40.4367 109.079 37.8581C99.0929 31.7374 102.458 33.8638 94.6885 32.0158C92.9286 31.6022 90.6423 31.6143 87.8547 32.2279C79.5956 34.0533 72.4115 35.6595 67.6134 38.0054C57.923 42.7365 54.0866 42.1098 42.6757 50.0461C40.2186 51.7502 37.9583 56.9042 37.0109 63.3199C35.3463 74.5518 33.6195 86.1476 39.5454 95.97C40.2088 97.0808 43.3399 100.484 49.5819 107.292C56.728 115.075 58.2601 116.184 59.3641 116.911C63.0921 119.363 65.3725 119.767 69.0928 123.16C70.0714 124.05 74.48 128.067 73.6142 129.648C72.7875 131.157 67.6092 129.647 64.6184 128.979C47.916 125.222 32.1064 132.358 29.4463 133.609C16.2684 139.824 9.62723 150.641 7.79591 153.713C4.32048 159.544 -2.83277 171.533 1.19676 185.247C1.94968 187.797 4.93224 196.718 13.1568 202.074C14.9394 203.237 17.1377 204.338 37.0392 209.014C46.8255 211.313 50.9879 212.143 51.5517 214.702C52.0065 216.769 50.5077 218.371 45.8993 223.687C38.8699 231.803 35.5049 238.644 34.7827 240.254C32.6429 245.069 31.0955 248.871 31.6347 253.903C32.2038 259.289 33.8258 259.09 35.0422 265.366C36.4862 272.815 35.637 277.1 36.1371 280.334C36.8277 284.786 42.4005 285.836 42.8157 285.988C48.1303 287.925 60.1202 283.197 64.7657 282.073C68.8155 281.094 70.3546 280.15 72.5289 278.778C76.303 276.409 76.8412 273.612 80.5484 269.892C83.7586 266.668 86.5834 265.514 89.0376 264.101C92.6362 262.04 95.5515 259.366 110.046 238.504C117.327 228.028 119.205 224.937 124.26 218.822C127.177 215.291 135.782 204.865 137.66 206.058C138.602 206.728 137.602 209.889 136.538 212.898Z" fill="#FFF0C8" fill-opacity="0.2"/>
<path d="M147.72 219.169H193.62V201.169C189.12 211.469 180.72 215.469 159.72 215.969V149.169H147.72V219.169Z" fill="#FFD057"/>
<path d="M196.451 189.469C196.451 208.769 208.251 221.669 225.951 221.669C241.951 221.669 250.751 210.369 250.751 189.169V149.169H232.751C240.851 157.269 247.751 173.069 247.751 190.169C247.751 207.469 240.751 219.169 227.451 219.169C215.451 219.169 208.451 209.669 208.451 193.269V149.169H196.451V189.469Z" fill="#FFD057"/>
<path d="M292.005 221.669C312.705 221.669 324.105 203.969 324.105 203.969L321.605 202.069C321.605 202.069 312.605 213.069 299.305 213.069C281.805 213.069 266.105 194.769 266.105 172.069C266.105 158.569 275.005 150.069 285.505 150.069C300.605 150.069 314.505 166.269 314.505 166.369L321.705 156.869C321.705 156.669 309.305 146.669 292.605 146.669C271.605 146.669 255.705 162.669 255.705 184.469C255.705 205.969 272.005 221.669 292.005 221.669Z" fill="#FFD057"/>
<path d="M340.58 219.169V184.169L367.18 219.169H379.18L348.38 178.769L373.78 149.169H355.78C359.18 163.069 349.08 174.169 340.58 184.169V149.169H328.58V219.169H340.58Z" fill="#FFD057"/>
<path d="M400.387 191.269V219.169H412.387V191.269L436.487 149.169H418.987C425.787 160.569 415.687 179.869 410.887 188.669L388.287 149.169H376.287L400.387 191.269Z" fill="#FFD057"/>
<path d="M465.494 149.169V219.169H490.094C506.094 219.169 524.794 210.469 524.794 184.169C524.794 157.869 506.294 149.169 490.294 149.169H465.494ZM487.094 152.169C503.294 152.169 512.794 162.269 512.794 184.169C512.794 206.069 503.294 216.369 487.094 216.369H477.494V152.169H487.094Z" fill="#FFD057"/>
<path d="M542.029 219.169C538.729 213.669 537.229 206.569 537.429 198.369L564.129 198.469L571.129 219.169H583.129L559.629 149.169H547.629L524.029 219.169H542.029ZM537.629 195.669C538.029 189.169 539.529 182.069 542.029 174.669C544.229 168.269 547.329 158.969 549.129 153.569L563.229 195.669H537.629Z" fill="#FFD057"/>
<path d="M594.625 191.269V219.169H606.625V191.269L630.725 149.169H613.225C620.025 160.569 609.925 179.869 605.125 188.669L582.525 149.169H570.525L594.625 191.269Z" fill="#FFD057"/>
<path d="M634.732 219.169H684.632V201.169C679.732 212.469 668.132 215.669 646.732 216.069V183.669L669.632 186.669V180.669H646.732V152.269C668.132 152.669 679.732 155.869 684.632 167.169V149.169H634.732V219.169Z" fill="#FFD057"/>
<path d="M151.08 276H155.4V250.8H151.08V276ZM163.849 250.8V276H172.705C178.465 276 185.197 272.868 185.197 263.4C185.197 253.932 178.537 250.8 172.777 250.8H163.849ZM171.625 251.88C177.457 251.88 180.877 255.516 180.877 263.4C180.877 271.284 177.457 274.992 171.625 274.992H168.169V251.88H171.625ZM191.722 276H198.202C195.502 271.5 194.926 265.056 196.114 258.468C196.366 256.956 196.762 254.724 197.086 253.068L203.35 276H207.67L206.338 271.14L211.27 253.176L215.518 276H219.838L215.158 250.8H210.838L205.798 269.16L200.794 250.8H196.474L191.722 276ZM242.502 276H263.202V269.52C261.834 272.688 249.558 273.084 244.554 273.12C247.758 265.74 262.878 263.94 262.878 256.308C262.878 252.852 259.782 249.9 253.734 249.9C247.362 249.9 243.978 253.644 243.978 253.644L244.77 254.508C244.77 254.508 248.334 250.8 253.122 250.8C256.614 250.8 258.558 252.6 258.558 254.94C258.558 261.528 242.502 267.468 242.502 276ZM288.414 266.712V250.8H285.75L270.954 266.712L272.394 269.772H284.094V276H288.414V269.772H291.006V266.712H288.414ZM272.394 266.712L284.094 254.184V266.712H272.394ZM310.939 276.9C317.671 276.9 322.279 271.284 322.279 263.328C322.279 255.408 317.743 249.9 310.795 249.9C303.847 249.9 299.455 255.48 299.455 263.472C299.455 271.428 304.207 276.9 310.939 276.9ZM303.775 263.328C303.775 255.948 306.619 250.8 310.939 250.8C315.223 250.8 317.959 256.02 317.959 263.472C317.959 270.888 315.115 276 310.795 276C306.511 276 303.775 270.744 303.775 263.328ZM346.394 246.12V280.68H347.834V246.12H346.394ZM371.58 276H375.9V263.868H387.6V276H391.92V250.8H387.6V262.896H375.9V250.8H371.58V276ZM407.94 276H412.26L416.94 262.068L421.62 276H425.94L434.4 250.8H427.92C430.548 259.008 427.56 266.784 425.364 274.272L419.388 256.416L421.26 250.8H420.18L418.848 254.832L417.48 250.8H413.16L416.4 260.484L411.72 274.416L403.8 250.8H399.48L407.94 276ZM446.297 276V263.4L455.873 276H460.193L449.105 261.456L458.249 250.8H451.769C452.993 255.804 449.357 259.8 446.297 263.4V250.8H441.977V276H446.297ZM495.073 276.9C501.805 276.9 506.413 271.284 506.413 263.328C506.413 255.408 501.877 249.9 494.929 249.9C487.981 249.9 483.589 255.48 483.589 263.472C483.589 271.428 488.341 276.9 495.073 276.9ZM487.909 263.328C487.909 255.948 490.753 250.8 495.073 250.8C499.357 250.8 502.093 256.02 502.093 263.472C502.093 270.888 499.249 276 494.929 276C490.645 276 487.909 270.744 487.909 263.328ZM514.688 276H535.388V269.52C534.02 272.688 521.744 273.084 516.74 273.12C519.944 265.74 535.064 263.94 535.064 256.308C535.064 252.852 531.968 249.9 525.92 249.9C519.548 249.9 516.164 253.644 516.164 253.644L516.956 254.508C516.956 254.508 520.52 250.8 525.308 250.8C528.8 250.8 530.744 252.6 530.744 254.94C530.744 261.528 514.688 267.468 514.688 276Z" fill="#C6905E"/>
<path d="M151.08 276H150.83V276.25H151.08V276ZM155.4 276V276.25H155.65V276H155.4ZM155.4 250.8H155.65V250.55H155.4V250.8ZM151.08 250.8V250.55H150.83V250.8H151.08ZM151.08 276.25H155.4V275.75H151.08V276.25ZM155.65 276V250.8H155.15V276H155.65ZM155.4 250.55H151.08V251.05H155.4V250.55ZM150.83 250.8V276H151.33V250.8H150.83ZM163.849 250.8V250.55H163.599V250.8H163.849ZM163.849 276H163.599V276.25H163.849V276ZM168.169 274.992H167.919V275.242H168.169V274.992ZM168.169 251.88V251.63H167.919V251.88H168.169ZM163.599 250.8V276H164.099V250.8H163.599ZM163.849 276.25H172.705V275.75H163.849V276.25ZM172.705 276.25C175.625 276.25 178.81 275.457 181.269 273.444C183.737 271.424 185.447 268.2 185.447 263.4H184.947C184.947 268.068 183.29 271.144 180.952 273.057C178.606 274.977 175.544 275.75 172.705 275.75V276.25ZM185.447 263.4C185.447 258.601 183.756 255.377 181.306 253.357C178.864 251.343 175.697 250.55 172.777 250.55V251.05C175.616 251.05 178.659 251.823 180.988 253.742C183.308 255.655 184.947 258.731 184.947 263.4H185.447ZM172.777 250.55H163.849V251.05H172.777V250.55ZM171.625 252.13C174.486 252.13 176.721 253.02 178.246 254.844C179.778 256.676 180.627 259.489 180.627 263.4H181.127C181.127 259.427 180.266 256.48 178.63 254.523C176.987 252.558 174.595 251.63 171.625 251.63V252.13ZM180.627 263.4C180.627 267.311 179.778 270.143 178.245 271.993C176.719 273.835 174.485 274.742 171.625 274.742V275.242C174.597 275.242 176.988 274.295 178.63 272.312C180.266 270.337 181.127 267.373 181.127 263.4H180.627ZM171.625 274.742H168.169V275.242H171.625V274.742ZM168.419 274.992V251.88H167.919V274.992H168.419ZM168.169 252.13H171.625V251.63H168.169V252.13ZM191.722 276L191.476 275.954L191.42 276.25H191.722V276ZM198.202 276V276.25H198.644L198.416 275.871L198.202 276ZM196.114 258.468L196.36 258.512L196.361 258.509L196.114 258.468ZM197.086 253.068L197.327 253.002L196.841 253.02L197.086 253.068ZM203.35 276L203.109 276.066L203.159 276.25H203.35V276ZM207.67 276V276.25H207.998L207.911 275.934L207.67 276ZM206.338 271.14L206.097 271.074L206.079 271.14L206.097 271.206L206.338 271.14ZM211.27 253.176L211.516 253.13L211.029 253.11L211.27 253.176ZM215.518 276L215.272 276.046L215.31 276.25H215.518V276ZM219.838 276V276.25H220.139L220.084 275.954L219.838 276ZM215.158 250.8L215.404 250.754L215.366 250.55H215.158V250.8ZM210.838 250.8V250.55H210.647L210.597 250.734L210.838 250.8ZM205.798 269.16L205.557 269.226L205.797 270.108L206.039 269.226L205.798 269.16ZM200.794 250.8L201.035 250.734L200.985 250.55H200.794V250.8ZM196.474 250.8V250.55H196.267L196.228 250.754L196.474 250.8ZM191.722 276.25H198.202V275.75H191.722V276.25ZM198.416 275.871C195.759 271.443 195.178 265.068 196.36 258.512L195.868 258.424C194.674 265.044 195.245 271.557 197.988 276.129L198.416 275.871ZM196.361 258.509C196.612 256.999 197.008 254.769 197.331 253.116L196.841 253.02C196.516 254.679 196.12 256.913 195.867 258.427L196.361 258.509ZM196.845 253.134L203.109 276.066L203.591 275.934L197.327 253.002L196.845 253.134ZM203.35 276.25H207.67V275.75H203.35V276.25ZM207.911 275.934L206.579 271.074L206.097 271.206L207.429 276.066L207.911 275.934ZM206.579 271.206L211.511 253.242L211.029 253.11L206.097 271.074L206.579 271.206ZM211.024 253.222L215.272 276.046L215.764 275.954L211.516 253.13L211.024 253.222ZM215.518 276.25H219.838V275.75H215.518V276.25ZM220.084 275.954L215.404 250.754L214.912 250.846L219.592 276.046L220.084 275.954ZM215.158 250.55H210.838V251.05H215.158V250.55ZM210.597 250.734L205.557 269.094L206.039 269.226L211.079 250.866L210.597 250.734ZM206.039 269.094L201.035 250.734L200.553 250.866L205.557 269.226L206.039 269.094ZM200.794 250.55H196.474V251.05H200.794V250.55ZM196.228 250.754L191.476 275.954L191.968 276.046L196.72 250.846L196.228 250.754ZM242.502 276H242.252V276.25H242.502V276ZM263.202 276V276.25H263.452V276H263.202ZM263.202 269.52H263.452L262.972 269.421L263.202 269.52ZM244.554 273.12L244.324 273.02L244.171 273.373L244.556 273.37L244.554 273.12ZM243.978 253.644L243.792 253.476L243.64 253.645L243.793 253.813L243.978 253.644ZM244.77 254.508L244.585 254.677L244.765 254.873L244.95 254.681L244.77 254.508ZM242.502 276.25H263.202V275.75H242.502V276.25ZM263.452 276V269.52H262.952V276H263.452ZM262.972 269.421C262.828 269.756 262.529 270.075 262.075 270.374C261.623 270.672 261.033 270.94 260.334 271.177C258.936 271.653 257.135 271.998 255.209 272.247C251.359 272.744 247.051 272.852 244.552 272.87L244.556 273.37C247.06 273.352 251.392 273.244 255.273 272.742C257.212 272.492 259.051 272.142 260.495 271.651C261.217 271.405 261.85 271.121 262.351 270.791C262.85 270.462 263.234 270.076 263.431 269.619L262.972 269.421ZM244.783 273.22C245.557 271.436 247.06 269.972 248.913 268.657C250.767 267.341 252.94 266.195 255.039 265.027C257.127 263.865 259.142 262.681 260.635 261.3C262.132 259.916 263.128 258.31 263.128 256.308H262.628C262.628 258.122 261.733 259.603 260.295 260.933C258.853 262.268 256.888 263.426 254.796 264.59C252.713 265.749 250.506 266.913 248.624 268.249C246.741 269.585 245.152 271.114 244.324 273.02L244.783 273.22ZM263.128 256.308C263.128 254.499 262.315 252.825 260.726 251.609C259.14 250.397 256.796 249.65 253.734 249.65V250.15C256.719 250.15 258.947 250.879 260.422 252.007C261.892 253.131 262.628 254.661 262.628 256.308H263.128ZM253.734 249.65C250.497 249.65 248.016 250.601 246.342 251.555C245.506 252.031 244.872 252.508 244.445 252.868C244.232 253.047 244.07 253.198 243.961 253.304C243.907 253.357 243.865 253.399 243.837 253.429C243.823 253.443 243.812 253.455 243.805 253.463C243.801 253.467 243.798 253.47 243.796 253.472C243.795 253.473 243.794 253.474 243.793 253.475C243.793 253.475 243.793 253.476 243.793 253.476C243.793 253.476 243.792 253.476 243.792 253.476C243.792 253.476 243.792 253.476 243.978 253.644C244.163 253.812 244.163 253.812 244.163 253.812C244.163 253.812 244.163 253.812 244.163 253.812C244.163 253.812 244.163 253.812 244.163 253.812C244.163 253.811 244.164 253.811 244.164 253.81C244.166 253.809 244.168 253.807 244.171 253.804C244.176 253.797 244.185 253.788 244.198 253.775C244.222 253.75 244.26 253.711 244.31 253.662C244.411 253.564 244.564 253.422 244.767 253.25C245.174 252.908 245.784 252.449 246.59 251.989C248.202 251.071 250.599 250.15 253.734 250.15V249.65ZM243.793 253.813L244.585 254.677L244.954 254.339L244.162 253.475L243.793 253.813ZM244.77 254.508C244.95 254.681 244.95 254.681 244.95 254.681C244.95 254.681 244.95 254.681 244.95 254.681C244.95 254.681 244.95 254.681 244.95 254.681C244.95 254.681 244.951 254.68 244.952 254.68C244.953 254.678 244.955 254.676 244.958 254.673C244.965 254.666 244.974 254.656 244.987 254.644C245.013 254.618 245.052 254.579 245.104 254.53C245.208 254.431 245.363 254.29 245.563 254.119C245.965 253.778 246.55 253.322 247.282 252.866C248.75 251.953 250.791 251.05 253.122 251.05V250.55C250.664 250.55 248.53 251.501 247.018 252.442C246.261 252.913 245.656 253.384 245.239 253.738C245.031 253.915 244.87 254.063 244.76 254.167C244.705 254.219 244.663 254.261 244.635 254.289C244.62 254.303 244.609 254.315 244.602 254.322C244.598 254.326 244.595 254.329 244.593 254.331C244.592 254.332 244.591 254.333 244.591 254.334C244.59 254.334 244.59 254.334 244.59 254.334C244.59 254.334 244.59 254.335 244.59 254.335C244.59 254.335 244.589 254.335 244.77 254.508ZM253.122 251.05C254.827 251.05 256.125 251.489 256.992 252.187C257.855 252.882 258.308 253.845 258.308 254.94H258.808C258.808 253.695 258.288 252.588 257.306 251.798C256.328 251.011 254.909 250.55 253.122 250.55V251.05ZM258.308 254.94C258.308 256.487 257.362 258.033 255.866 259.64C254.374 261.242 252.383 262.856 250.369 264.55C248.363 266.236 246.338 267.998 244.816 269.879C243.294 271.76 242.252 273.786 242.252 276H242.752C242.752 273.948 243.717 272.032 245.205 270.194C246.693 268.355 248.683 266.621 250.691 264.932C252.69 263.251 254.713 261.611 256.232 259.98C257.746 258.354 258.808 256.687 258.808 254.94H258.308ZM288.414 266.712H288.164V266.962H288.414V266.712ZM288.414 250.8H288.664V250.55H288.414V250.8ZM285.75 250.8V250.55H285.641L285.567 250.63L285.75 250.8ZM270.954 266.712L270.771 266.542L270.656 266.666L270.728 266.818L270.954 266.712ZM272.394 269.772L272.168 269.878L272.236 270.022H272.394V269.772ZM284.094 269.772H284.344V269.522H284.094V269.772ZM284.094 276H283.844V276.25H284.094V276ZM288.414 276V276.25H288.664V276H288.414ZM288.414 269.772V269.522H288.164V269.772H288.414ZM291.006 269.772V270.022H291.256V269.772H291.006ZM291.006 266.712H291.256V266.462H291.006V266.712ZM272.394 266.712L272.212 266.541L271.819 266.962H272.394V266.712ZM284.094 254.184H284.344V253.55L283.912 254.013L284.094 254.184ZM284.094 266.712V266.962H284.344V266.712H284.094ZM288.664 266.712V250.8H288.164V266.712H288.664ZM288.414 250.55H285.75V251.05H288.414V250.55ZM285.567 250.63L270.771 266.542L271.137 266.882L285.933 250.97L285.567 250.63ZM270.728 266.818L272.168 269.878L272.621 269.666L271.181 266.606L270.728 266.818ZM272.394 270.022H284.094V269.522H272.394V270.022ZM283.844 269.772V276H284.344V269.772H283.844ZM284.094 276.25H288.414V275.75H284.094V276.25ZM288.664 276V269.772H288.164V276H288.664ZM288.414 270.022H291.006V269.522H288.414V270.022ZM291.256 269.772V266.712H290.756V269.772H291.256ZM291.006 266.462H288.414V266.962H291.006V266.462ZM272.577 266.883L284.277 254.355L283.912 254.013L272.212 266.541L272.577 266.883ZM283.844 254.184V266.712H284.344V254.184H283.844ZM284.094 266.462H272.394V266.962H284.094V266.462ZM310.939 277.15C314.38 277.15 317.285 275.712 319.326 273.257C321.363 270.806 322.529 267.353 322.529 263.328H322.029C322.029 267.259 320.891 270.592 318.941 272.938C316.995 275.28 314.23 276.65 310.939 276.65V277.15ZM322.529 263.328C322.529 259.322 321.381 255.904 319.333 253.483C317.282 251.058 314.34 249.65 310.795 249.65V250.15C314.198 250.15 316.998 251.496 318.951 253.805C320.908 256.118 322.029 259.414 322.029 263.328H322.529ZM310.795 249.65C307.248 249.65 304.341 251.077 302.326 253.53C300.315 255.979 299.205 259.432 299.205 263.472H299.705C299.705 259.52 300.791 256.187 302.713 253.848C304.63 251.513 307.394 250.15 310.795 250.15V249.65ZM299.205 263.472C299.205 267.499 300.408 270.917 302.483 273.332C304.56 275.751 307.5 277.15 310.939 277.15V276.65C307.645 276.65 304.844 275.313 302.862 273.007C300.878 270.697 299.705 267.401 299.705 263.472H299.205ZM304.025 263.328C304.025 259.666 304.731 256.58 305.954 254.42C307.176 252.263 308.895 251.05 310.939 251.05V250.55C308.663 250.55 306.8 251.911 305.519 254.173C304.241 256.432 303.525 259.61 303.525 263.328H304.025ZM310.939 251.05C312.961 251.05 314.645 252.277 315.836 254.461C317.029 256.649 317.709 259.772 317.709 263.472H318.209C318.209 259.72 317.521 256.507 316.275 254.222C315.027 251.933 313.201 250.55 310.939 250.55V251.05ZM317.709 263.472C317.709 267.152 317.002 270.238 315.779 272.394C314.559 274.545 312.839 275.75 310.795 275.75V276.25C313.07 276.25 314.933 274.899 316.214 272.64C317.493 270.386 318.209 267.208 318.209 263.472H317.709ZM310.795 275.75C308.773 275.75 307.09 274.515 305.898 272.326C304.705 270.133 304.025 267.01 304.025 263.328H303.525C303.525 267.062 304.213 270.275 305.459 272.564C306.706 274.857 308.532 276.25 310.795 276.25V275.75ZM346.394 246.12V245.87H346.144V246.12H346.394ZM346.394 280.68H346.144V280.93H346.394V280.68ZM347.834 280.68V280.93H348.084V280.68H347.834ZM347.834 246.12H348.084V245.87H347.834V246.12ZM346.144 246.12V280.68H346.644V246.12H346.144ZM346.394 280.93H347.834V280.43H346.394V280.93ZM348.084 280.68V246.12H347.584V280.68H348.084ZM347.834 245.87H346.394V246.37H347.834V245.87ZM371.58 276H371.33V276.25H371.58V276ZM375.9 276V276.25H376.15V276H375.9ZM375.9 263.868V263.618H375.65V263.868H375.9ZM387.6 263.868H387.85V263.618H387.6V263.868ZM387.6 276H387.35V276.25H387.6V276ZM391.92 276V276.25H392.17V276H391.92ZM391.92 250.8H392.17V250.55H391.92V250.8ZM387.6 250.8V250.55H387.35V250.8H387.6ZM387.6 262.896V263.146H387.85V262.896H387.6ZM375.9 262.896H375.65V263.146H375.9V262.896ZM375.9 250.8H376.15V250.55H375.9V250.8ZM371.58 250.8V250.55H371.33V250.8H371.58ZM371.58 276.25H375.9V275.75H371.58V276.25ZM376.15 276V263.868H375.65V276H376.15ZM375.9 264.118H387.6V263.618H375.9V264.118ZM387.35 263.868V276H387.85V263.868H387.35ZM387.6 276.25H391.92V275.75H387.6V276.25ZM392.17 276V250.8H391.67V276H392.17ZM391.92 250.55H387.6V251.05H391.92V250.55ZM387.35 250.8V262.896H387.85V250.8H387.35ZM387.6 262.646H375.9V263.146H387.6V262.646ZM376.15 262.896V250.8H375.65V262.896H376.15ZM375.9 250.55H371.58V251.05H375.9V250.55ZM371.33 250.8V276H371.83V250.8H371.33ZM407.94 276L407.703 276.08L407.76 276.25H407.94V276ZM412.26 276V276.25H412.44L412.497 276.08L412.26 276ZM416.94 262.068L417.177 261.988L416.94 261.283L416.703 261.988L416.94 262.068ZM421.62 276L421.383 276.08L421.44 276.25H421.62V276ZM425.94 276V276.25H426.12L426.177 276.08L425.94 276ZM434.4 250.8L434.637 250.88L434.748 250.55H434.4V250.8ZM427.92 250.8V250.55H427.577L427.682 250.876L427.92 250.8ZM425.364 274.272L425.127 274.351L425.38 275.107L425.604 274.342L425.364 274.272ZM419.388 256.416L419.151 256.337L419.124 256.416L419.151 256.495L419.388 256.416ZM421.26 250.8L421.497 250.879L421.607 250.55H421.26V250.8ZM420.18 250.8V250.55H419.999L419.943 250.722L420.18 250.8ZM418.848 254.832L418.611 254.912L418.851 255.619L419.085 254.91L418.848 254.832ZM417.48 250.8L417.717 250.72L417.659 250.55H417.48V250.8ZM413.16 250.8V250.55H412.813L412.923 250.879L413.16 250.8ZM416.4 260.484L416.637 260.564L416.664 260.484L416.637 260.405L416.4 260.484ZM411.72 274.416L411.483 274.495L411.72 275.202L411.957 274.496L411.72 274.416ZM403.8 250.8L404.037 250.721L403.98 250.55H403.8V250.8ZM399.48 250.8V250.55H399.132L399.243 250.88L399.48 250.8ZM407.94 276.25H412.26V275.75H407.94V276.25ZM412.497 276.08L417.177 262.148L416.703 261.988L412.023 275.92L412.497 276.08ZM416.703 262.148L421.383 276.08L421.857 275.92L417.177 261.988L416.703 262.148ZM421.62 276.25H425.94V275.75H421.62V276.25ZM426.177 276.08L434.637 250.88L434.163 250.72L425.703 275.92L426.177 276.08ZM434.4 250.55H427.92V251.05H434.4V250.55ZM427.682 250.876C430.281 258.994 427.33 266.68 425.124 274.202L425.604 274.342C427.79 266.888 430.815 259.022 428.158 250.724L427.682 250.876ZM425.601 274.193L419.625 256.337L419.151 256.495L425.127 274.351L425.601 274.193ZM419.625 256.495L421.497 250.879L421.023 250.721L419.151 256.337L419.625 256.495ZM421.26 250.55H420.18V251.05H421.26V250.55ZM419.943 250.722L418.611 254.754L419.085 254.91L420.417 250.878L419.943 250.722ZM419.085 254.752L417.717 250.72L417.243 250.88L418.611 254.912L419.085 254.752ZM417.48 250.55H413.16V251.05H417.48V250.55ZM412.923 250.879L416.163 260.563L416.637 260.405L413.397 250.721L412.923 250.879ZM416.163 260.404L411.483 274.336L411.957 274.496L416.637 260.564L416.163 260.404ZM411.957 274.337L404.037 250.721L403.563 250.879L411.483 274.495L411.957 274.337ZM403.8 250.55H399.48V251.05H403.8V250.55ZM399.243 250.88L407.703 276.08L408.177 275.92L399.717 250.72L399.243 250.88ZM446.297 276V276.25H446.547V276H446.297ZM446.297 263.4L446.496 263.249L446.047 262.658V263.4H446.297ZM455.873 276L455.674 276.151L455.749 276.25H455.873V276ZM460.193 276V276.25H460.698L460.392 275.848L460.193 276ZM449.105 261.456L448.915 261.293L448.783 261.447L448.906 261.608L449.105 261.456ZM458.249 250.8L458.439 250.963L458.793 250.55H458.249V250.8ZM451.769 250.8V250.55H451.45L451.526 250.859L451.769 250.8ZM446.297 263.4H446.047V264.08L446.487 263.562L446.297 263.4ZM446.297 250.8H446.547V250.55H446.297V250.8ZM441.977 250.8V250.55H441.727V250.8H441.977ZM441.977 276H441.727V276.25H441.977V276ZM446.547 276V263.4H446.047V276H446.547ZM446.098 263.551L455.674 276.151L456.072 275.849L446.496 263.249L446.098 263.551ZM455.873 276.25H460.193V275.75H455.873V276.25ZM460.392 275.848L449.304 261.304L448.906 261.608L459.994 276.152L460.392 275.848ZM449.295 261.619L458.439 250.963L458.059 250.637L448.915 261.293L449.295 261.619ZM458.249 250.55H451.769V251.05H458.249V250.55ZM451.526 250.859C452.119 253.282 451.539 255.467 450.42 257.506C449.297 259.553 447.643 261.43 446.106 263.238L446.487 263.562C448.011 261.77 449.705 259.849 450.859 257.747C452.016 255.637 452.643 253.322 452.012 250.741L451.526 250.859ZM446.547 263.4V250.8H446.047V263.4H446.547ZM446.297 250.55H441.977V251.05H446.297V250.55ZM441.727 250.8V276H442.227V250.8H441.727ZM441.977 276.25H446.297V275.75H441.977V276.25ZM495.073 277.15C498.514 277.15 501.42 275.712 503.46 273.257C505.498 270.806 506.663 267.353 506.663 263.328H506.163C506.163 267.259 505.025 270.592 503.075 272.938C501.129 275.28 498.364 276.65 495.073 276.65V277.15ZM506.663 263.328C506.663 259.322 505.516 255.904 503.468 253.483C501.416 251.058 498.475 249.65 494.929 249.65V250.15C498.332 250.15 501.132 251.496 503.086 253.805C505.043 256.118 506.163 259.414 506.163 263.328H506.663ZM494.929 249.65C491.382 249.65 488.476 251.077 486.461 253.53C484.449 255.979 483.339 259.432 483.339 263.472H483.839C483.839 259.52 484.925 256.187 486.847 253.848C488.765 251.513 491.528 250.15 494.929 250.15V249.65ZM483.339 263.472C483.339 267.499 484.542 270.917 486.617 273.332C488.694 275.751 491.635 277.15 495.073 277.15V276.65C491.78 276.65 488.978 275.313 486.996 273.007C485.012 270.697 483.839 267.401 483.839 263.472H483.339ZM488.159 263.328C488.159 259.666 488.866 256.58 490.089 254.42C491.31 252.263 493.029 251.05 495.073 251.05V250.55C492.797 250.55 490.935 251.911 489.654 254.173C488.375 256.432 487.659 259.61 487.659 263.328H488.159ZM495.073 251.05C497.095 251.05 498.779 252.277 499.97 254.461C501.163 256.649 501.843 259.772 501.843 263.472H502.343C502.343 259.72 501.655 256.507 500.409 254.222C499.161 251.933 497.335 250.55 495.073 250.55V251.05ZM501.843 263.472C501.843 267.152 501.137 270.238 499.914 272.394C498.693 274.545 496.974 275.75 494.929 275.75V276.25C497.205 276.25 499.067 274.899 500.349 272.64C501.628 270.386 502.343 267.208 502.343 263.472H501.843ZM494.929 275.75C492.908 275.75 491.224 274.515 490.032 272.326C488.839 270.133 488.159 267.01 488.159 263.328H487.659C487.659 267.062 488.347 270.275 489.593 272.564C490.841 274.857 492.667 276.25 494.929 276.25V275.75ZM514.688 276H514.438V276.25H514.688V276ZM535.388 276V276.25H535.638V276H535.388ZM535.388 269.52H535.638L535.159 269.421L535.388 269.52ZM516.74 273.12L516.511 273.02L516.358 273.373L516.742 273.37L516.74 273.12ZM516.164 253.644L515.979 253.476L515.826 253.645L515.98 253.813L516.164 253.644ZM516.956 254.508L516.772 254.677L516.952 254.873L517.137 254.681L516.956 254.508ZM514.688 276.25H535.388V275.75H514.688V276.25ZM535.638 276V269.52H535.138V276H535.638ZM535.159 269.421C535.014 269.756 534.716 270.075 534.262 270.374C533.81 270.672 533.22 270.94 532.521 271.177C531.122 271.653 529.322 271.998 527.396 272.247C523.546 272.744 519.238 272.852 516.739 272.87L516.742 273.37C519.247 273.352 523.579 273.244 527.46 272.742C529.399 272.492 531.237 272.142 532.682 271.651C533.404 271.405 534.037 271.121 534.537 270.791C535.036 270.462 535.421 270.076 535.618 269.619L535.159 269.421ZM516.97 273.22C517.744 271.436 519.247 269.972 521.1 268.657C522.954 267.341 525.127 266.195 527.226 265.027C529.314 263.865 531.329 262.681 532.822 261.3C534.319 259.916 535.314 258.31 535.314 256.308H534.814C534.814 258.122 533.92 259.603 532.482 260.933C531.04 262.268 529.075 263.426 526.982 264.59C524.9 265.749 522.693 266.913 520.811 268.249C518.928 269.585 517.339 271.114 516.511 273.02L516.97 273.22ZM535.314 256.308C535.314 254.499 534.502 252.825 532.912 251.609C531.327 250.397 528.983 249.65 525.92 249.65V250.15C528.906 250.15 531.134 250.879 532.609 252.007C534.079 253.131 534.814 254.661 534.814 256.308H535.314ZM525.92 249.65C522.684 249.65 520.202 250.601 518.529 251.555C517.693 252.031 517.058 252.508 516.632 252.868C516.418 253.047 516.257 253.198 516.148 253.304C516.093 253.357 516.052 253.399 516.024 253.429C516.01 253.443 515.999 253.455 515.991 253.463C515.988 253.467 515.985 253.47 515.983 253.472C515.982 253.473 515.981 253.474 515.98 253.475C515.98 253.475 515.98 253.476 515.979 253.476C515.979 253.476 515.979 253.476 515.979 253.476C515.979 253.476 515.979 253.476 516.164 253.644C516.35 253.812 516.35 253.812 516.35 253.812C516.35 253.812 516.35 253.812 516.35 253.812C516.35 253.812 516.35 253.812 516.35 253.812C516.35 253.811 516.351 253.811 516.351 253.81C516.352 253.809 516.354 253.807 516.357 253.804C516.363 253.797 516.372 253.788 516.384 253.775C516.409 253.75 516.446 253.711 516.497 253.662C516.598 253.564 516.75 253.422 516.954 253.25C517.361 252.908 517.97 252.449 518.777 251.989C520.389 251.071 522.785 250.15 525.92 250.15V249.65ZM515.98 253.813L516.772 254.677L517.141 254.339L516.349 253.475L515.98 253.813ZM516.956 254.508C517.137 254.681 517.137 254.681 517.137 254.681C517.137 254.681 517.137 254.681 517.137 254.681C517.137 254.681 517.137 254.681 517.137 254.681C517.137 254.681 517.138 254.68 517.138 254.68C517.14 254.678 517.142 254.676 517.145 254.673C517.151 254.666 517.161 254.656 517.174 254.644C517.2 254.618 517.239 254.579 517.291 254.53C517.395 254.431 517.549 254.29 517.75 254.119C518.152 253.778 518.737 253.322 519.469 252.866C520.936 251.953 522.978 251.05 525.308 251.05V250.55C522.851 250.55 520.717 251.501 519.205 252.442C518.448 252.913 517.843 253.384 517.426 253.738C517.218 253.915 517.057 254.063 516.947 254.167C516.892 254.219 516.85 254.261 516.821 254.289C516.807 254.303 516.796 254.315 516.788 254.322C516.785 254.326 516.782 254.329 516.78 254.331C516.779 254.332 516.778 254.333 516.777 254.334C516.777 254.334 516.777 254.334 516.777 254.334C516.776 254.334 516.776 254.335 516.776 254.335C516.776 254.335 516.776 254.335 516.956 254.508ZM525.308 251.05C527.013 251.05 528.312 251.489 529.179 252.187C530.042 252.882 530.494 253.845 530.494 254.94H530.994C530.994 253.695 530.475 252.588 529.493 251.798C528.515 251.011 527.095 250.55 525.308 250.55V251.05ZM530.494 254.94C530.494 256.487 529.549 258.033 528.053 259.64C526.561 261.242 524.57 262.856 522.556 264.55C520.55 266.236 518.525 267.998 517.003 269.879C515.48 271.76 514.438 273.786 514.438 276H514.938C514.938 273.948 515.903 272.032 517.392 270.194C518.88 268.355 520.869 266.621 522.877 264.932C524.877 263.251 526.9 261.611 528.419 259.98C529.933 258.354 530.994 256.687 530.994 254.94H530.494Z" fill="#C6905E"/>
</svg>
